<?xml version="1.0" encoding="utf-8"?>
<!-- Generator: Adobe Illustrator 22.1.0, SVG Export Plug-In . SVG Version: 6.00 Build 0)  -->
<svg version="1.1" id="Ebene_1" xmlns="http://www.w3.org/2000/svg" xmlns:xlink="http://www.w3.org/1999/xlink" x="0px" y="0px"
	 viewBox="0 0 300.5 141.2" style="enable-background:new 0 0 300.5 141.2;" xml:space="preserve">
<style type="text/css">
	.st0{fill:#E6320F;}
</style>
<g>
	<path d="M203.8,114.8v-9h-1.2V124h1.2v-7.6c0,0,1-2.4,3.4-2.4c1.8,0,3.1,1,3.1,3.2v6.8h1.2v-7c0-3-2.1-4.2-4.1-4.2
		C204.9,112.8,203.8,114.8,203.8,114.8 M194,123.1c-2.6,0-4.3-2.1-4.3-4.5s1.7-4.5,4.3-4.5c2.3,0,3.5,1.6,3.5,1.6l0.9-0.8
		c0,0-1.5-2.1-4.4-2.1c-3.3,0-5.6,2.6-5.6,5.8s2.4,5.8,5.6,5.8c3,0,4.5-2.2,4.5-2.2l-0.9-0.8C197.6,121.2,196.4,123.1,194,123.1
		 M184.5,112.8c-2.3,0-3.2,2.1-3.2,2.1V113h-1.1V124h1.2v-7.9c0,0,0.9-2.1,2.8-2.1c1,0,1.5,0.3,1.5,0.3l0.5-1.2
		C186.2,113,185.6,112.8,184.5,112.8 M170.3,123.1c-1.4,0-3-0.7-3-2.5c0-1.7,1.8-2.5,3.2-2.5c2.2,0,3.5,0.9,3.5,0.9v1.8
		C174.1,120.8,172.7,123.1,170.3,123.1 M170.8,112.8c-2.3,0-4.1,1.2-4.1,1.2l0.6,1.1c0,0,1.6-1,3.6-1c1.2,0,3.2,0.5,3.2,3.1v0.8
		c0,0-1.4-1-3.6-1c-2.1,0-4.3,1.3-4.3,3.7c0,2.4,2.1,3.7,4,3.7c2.7,0,4.1-2.2,4.1-2.2v1.9h1.1v-7.2
		C175.3,114.6,173.9,112.8,170.8,112.8 M153.2,117.9c0-1.2,1.1-3.9,4.1-3.9c2.9,0,4,2.6,4,3.9H153.2z M157.3,112.8
		c-3.3,0-5.4,2.7-5.4,5.8c0,3.1,2.4,5.8,5.6,5.8c1.8,0,3.5-1,4.6-2.2l-0.8-0.9c-0.7,0.9-2.1,1.9-3.7,1.9c-2.9,0-4.3-2.4-4.4-4h9.4
		c0-0.3,0-0.3,0-0.5C162.6,115.2,160.2,112.8,157.3,112.8 M139.8,121.9c0,0,1.4,2.3,4.7,2.3c2.1,0,4.2-1.1,4.2-3.1
		c0-2-1.6-2.7-3.7-3.1c-1.8-0.4-3.3-0.8-3.3-2.1c0-1.1,1.1-1.9,2.6-1.9c2,0,3.1,1.2,3.1,1.2l0.8-0.9c0,0-1.3-1.5-3.9-1.5
		c-2.4,0-3.9,1.5-3.9,3.1c0,1.8,1.5,2.7,3.9,3.3c1.7,0.4,3,0.8,3,2c0,1.4-1.7,1.9-2.9,1.9c-2.6,0-3.7-1.9-3.7-1.9L139.8,121.9z
		 M127.2,117.9c0-1.2,1.1-3.9,4.1-3.9c2.9,0,4,2.6,4,3.9H127.2z M131.3,112.8c-3.3,0-5.4,2.7-5.4,5.8c0,3.1,2.4,5.8,5.6,5.8
		c1.8,0,3.5-1,4.6-2.2l-0.8-0.9c-0.7,0.9-2.1,1.9-3.7,1.9c-2.9,0-4.3-2.4-4.4-4h9.4c0-0.3,0-0.3,0-0.5
		C136.6,115.2,134.2,112.8,131.3,112.8 M112.8,124h1.2v-7.3h2.5l4.7,7.3h1.5l-4.8-7.4c1.2-0.1,4.3-1.1,4.3-4.7c0-2.8-2-4.8-5.4-4.8
		h-4.1V124z M114,115.5v-7.1h2.9c2.5,0,4.1,1.3,4.1,3.6c0,2.2-1.6,3.6-4.1,3.6H114z M97.9,120.5c0,0-1.2,2.5-3.9,2.5
		c-2.4,0-4.2-2-4.2-4.5s1.7-4.5,4.2-4.5c2.8,0,3.9,2.5,3.9,2.5V120.5z M99.2,124v-18.1h-1.2v9c-0.3-0.4-1.6-2.1-4-2.1
		c-3,0-5.4,2.4-5.4,5.8c0,3.4,2.4,5.8,5.4,5.8c2.8,0,4.1-2.3,4.1-2.3v2H99.2z M80.4,112.8c-2.7,0-3.7,2.3-3.7,2.3v-2h-1.1V124h1.2
		v-7.6c0,0,1-2.4,3.4-2.4c1.8,0,3.1,1,3.1,3.2v6.8h1.2v-7C84.5,114,82.4,112.8,80.4,112.8 M65.7,123.1c-1.4,0-3-0.7-3-2.5
		c0-1.7,1.8-2.5,3.2-2.5c2.2,0,3.5,0.9,3.5,0.9v1.8C69.4,120.8,68.1,123.1,65.7,123.1 M66.1,112.8c-2.3,0-4.1,1.2-4.1,1.2l0.6,1.1
		c0,0,1.6-1,3.6-1c1.2,0,3.2,0.5,3.2,3.1v0.8c0,0-1.4-1-3.6-1c-2.1,0-4.3,1.3-4.3,3.7c0,2.4,2.1,3.7,4,3.7c2.7,0,4.1-2.2,4.1-2.2
		v1.9h1.1v-7.2C70.6,114.6,69.2,112.8,66.1,112.8"/>
	<path d="M267.1,87.9c0-1.2,1.1-3.9,4.1-3.9c2.9,0,4,2.6,4,3.9H267.1z M271.2,82.8c-3.3,0-5.4,2.7-5.4,5.8c0,3.1,2.4,5.8,5.6,5.8
		c1.8,0,3.5-1,4.6-2.2l-0.8-0.9c-0.7,0.9-2.1,1.9-3.7,1.9c-2.9,0-4.3-2.4-4.4-4h9.4c0-0.3,0-0.3,0-0.5
		C276.5,85.2,274.1,82.8,271.2,82.8 M258.5,93.1c-2.6,0-4.3-2.1-4.3-4.5c0-2.4,1.7-4.5,4.3-4.5c2.3,0,3.5,1.6,3.5,1.6l0.9-0.8
		c0,0-1.5-2.1-4.4-2.1c-3.3,0-5.6,2.6-5.6,5.8s2.4,5.8,5.6,5.8c3,0,4.5-2.2,4.5-2.2l-0.9-0.8C262.1,91.2,260.9,93.1,258.5,93.1
		 M244.7,82.8c-2.7,0-3.7,2.3-3.7,2.3v-2h-1.1V94h1.2v-7.6c0,0,1-2.4,3.4-2.4c1.8,0,3.1,1,3.1,3.2V94h1.2v-7
		C248.8,84,246.8,82.8,244.7,82.8 M226.4,87.9c0-1.2,1.1-3.9,4.1-3.9c2.9,0,4,2.6,4,3.9H226.4z M230.5,82.8c-3.3,0-5.4,2.7-5.4,5.8
		c0,3.1,2.4,5.8,5.6,5.8c1.8,0,3.5-1,4.6-2.2l-0.8-0.9c-0.7,0.9-2.1,1.9-3.7,1.9c-2.9,0-4.3-2.4-4.4-4h9.4c0-0.3,0-0.3,0-0.5
		C235.8,85.2,233.4,82.8,230.5,82.8 M219.2,79.5c0,0.5,0.4,1,1,1s1-0.4,1-1s-0.4-1-1-1S219.2,79,219.2,79.5 M219.5,94h1.2V83h-1.2
		V94z M211,93.1c-2.6,0-4.3-2.1-4.3-4.5c0-2.4,1.7-4.5,4.3-4.5c2.3,0,3.5,1.6,3.5,1.6l0.9-0.8c0,0-1.5-2.1-4.4-2.1
		c-3.3,0-5.6,2.6-5.6,5.8s2.4,5.8,5.6,5.8c3,0,4.5-2.2,4.5-2.2l-0.9-0.8C214.6,91.2,213.4,93.1,211,93.1 M200.4,89.8
		c0,2-1.7,3.3-3.8,3.3c-3,0-4.1-2.9-4.1-2.9l-1.1,0.7c0,0,1.5,3.4,5.2,3.4c2.8,0,5-1.8,5-4.5c0-2.3-1.4-3.6-4-4.7
		c-2.4-1.1-4.3-2-4.3-4c0-1.7,1.3-3,3.5-3c2.4,0,3.6,1.9,3.6,1.9l1-0.7c0,0-1.6-2.4-4.6-2.4c-3.1,0-4.7,2.3-4.7,4.2
		c0,2.5,2,3.8,4.5,4.9C198.6,86.9,200.4,87.7,200.4,89.8 M176.3,97.5l1.1,0.4l2-5.6l-1.2-0.4L176.3,97.5z M168.2,82.8
		c-2.7,0-3.7,2.3-3.7,2.3v-2h-1.1V94h1.2v-7.6c0,0,1-2.4,3.4-2.4c1.8,0,3.1,1,3.1,3.2V94h1.2v-7C172.3,84,170.3,82.8,168.2,82.8
		 M153.8,93.1c-2.7,0-4.3-2.1-4.3-4.5s1.5-4.5,4.3-4.5c2.7,0,4.3,2.1,4.3,4.5S156.5,93.1,153.8,93.1 M153.8,82.8
		c-3.3,0-5.6,2.6-5.6,5.8s2.3,5.8,5.6,5.8c3.3,0,5.6-2.6,5.6-5.8S157,82.8,153.8,82.8 M142.2,79.5c0,0.5,0.4,1,1,1s1-0.4,1-1
		s-0.4-1-1-1S142.2,79,142.2,79.5 M142.6,94h1.2V83h-1.2V94z M130.7,84.2h2.4V91c0,1.8,1,3.2,3.1,3.2c1.1,0,2.2-0.6,2.2-0.6
		l-0.5-1.1c0,0-0.8,0.5-1.6,0.5c-1.5,0-1.9-1-1.9-2.3v-6.6h3.7V83h-3.7v-3.5h-1.2V83h-2.4V84.2z M121.9,93.1c-1.4,0-3-0.7-3-2.5
		s1.8-2.5,3.2-2.5c2.2,0,3.5,0.9,3.5,0.9v1.8C125.6,90.8,124.3,93.1,121.9,93.1 M122.4,82.8c-2.3,0-4.1,1.2-4.1,1.2l0.6,1.1
		c0,0,1.6-1,3.6-1c1.2,0,3.2,0.5,3.2,3.1v0.8c0,0-1.4-1-3.6-1c-2.1,0-4.3,1.3-4.3,3.7c0,2.4,2.1,3.7,4,3.7c2.7,0,4.1-2.2,4.1-2.2V94
		h1.1v-7.2C126.9,84.6,125.4,82.8,122.4,82.8 M110,93.1c-2.6,0-4.3-2.1-4.3-4.5c0-2.4,1.7-4.5,4.3-4.5c2.3,0,3.5,1.6,3.5,1.6
		l0.9-0.8c0,0-1.5-2.1-4.4-2.1c-3.3,0-5.6,2.6-5.6,5.8s2.4,5.8,5.6,5.8c3,0,4.5-2.2,4.5-2.2l-0.9-0.8
		C113.6,91.2,112.4,93.1,110,93.1 M95.5,94.3c2.7,0,3.7-2.2,3.7-2.2V94h1.1V83h-1.2v7.6c0,0-1,2.4-3.4,2.4c-1.8,0-3.1-1-3.1-3.2V83
		h-1.2v7C91.4,93,93.4,94.3,95.5,94.3 M84.8,90.5c0,0-1.2,2.5-3.9,2.5c-2.4,0-4.2-2-4.2-4.5c0-2.5,1.7-4.5,4.2-4.5
		c2.8,0,3.9,2.5,3.9,2.5V90.5z M86.1,94V75.8h-1.2v9c-0.3-0.4-1.6-2.1-4-2.1c-3,0-5.4,2.4-5.4,5.8c0,3.4,2.4,5.8,5.4,5.8
		c2.8,0,4.1-2.3,4.1-2.3v2H86.1z M63.6,78.3h8.1v-1.2h-9.3V94h9.5v-1.2h-8.2v-6.9h7.5v-1.2h-7.5V78.3z"/>
	<path d="M276.7,62.5c-1.2,0-2.5-0.6-2.5-2c0-1.2,1.1-2,2.8-2c1.8,0,2.9,0.8,2.9,0.8v1.6C279.8,60.8,278.6,62.5,276.7,62.5
		 M277,52.6c-2.4,0-4.2,1.1-4.2,1.1l0.8,1.7c0,0,1.6-0.9,3.3-0.9c0.9,0,2.8,0.3,2.8,2.6v0.6c0,0-1.3-0.9-3.3-0.9
		c-2.5,0-4.4,1.5-4.4,3.7c0,2.4,2.1,3.8,4.1,3.8c2.5,0,3.8-1.9,3.8-1.9V64h1.8v-7.3C281.8,54.6,280.3,52.6,277,52.6 M265.4,49.3
		c0,0.7,0.6,1.4,1.4,1.4c0.7,0,1.4-0.6,1.4-1.4c0-0.7-0.6-1.4-1.4-1.4C266,48,265.4,48.6,265.4,49.3 M265.7,64h2V52.9h-2V64z
		 M260.8,52.6c-2.1,0-3.1,2-3.1,2v-1.7h-1.9V64h2v-7.6c0,0,0.8-1.9,2.5-1.9c0.8,0,1.3,0.2,1.3,0.2l0.7-1.8
		C262.4,52.9,261.7,52.6,260.8,52.6 M244.4,54.7h2.2v6.1c0,2.4,1.8,3.5,3.3,3.5c0.6,0,1.3-0.1,2.3-0.7l-0.7-1.7c0,0-0.6,0.5-1.3,0.5
		c-1.1,0-1.6-0.6-1.6-1.7v-6h3.5v-1.8h-3.5v-3.4h-2v3.4h-2.2V54.7z M232.2,61.9c0,0,1.6,2.3,4.8,2.3c2.1,0,4.4-1.1,4.4-3.2
		c0-2.3-1.8-3-3.9-3.5c-1.8-0.4-2.7-0.8-2.7-1.7c0-0.7,0.7-1.4,2.1-1.4c1.7,0,2.8,1.2,2.8,1.2l1.3-1.4c0,0-1.5-1.7-4.1-1.7
		c-2.5,0-4.1,1.6-4.1,3.2c0,2.1,1.7,3,4.1,3.5c1.7,0.3,2.5,0.8,2.5,1.8c0,0.9-1.3,1.4-2.4,1.4c-2.2,0-3.4-1.8-3.4-1.8L232.2,61.9z
		 M223.2,64.3c2.4,0,3.4-2,3.4-2V64h1.9V52.9h-2v7.7c0,0-0.9,1.8-2.8,1.8c-1.5,0-2.7-0.8-2.7-2.7v-6.8h-2V60
		C219,62.8,221,64.3,223.2,64.3 M208.3,50.1l2.9,7.5h-5.8L208.3,50.1z M200.8,64h2.2l1.8-4.5h7.2l1.8,4.5h2.1l-6.6-16.8h-1.9
		L200.8,64z M183.3,54.7h2.3V64h2v-9.3h2.9v-1.8h-2.9v-3.7c0-1.1,0.6-1.8,1.7-1.8c0.6,0,1.3,0.4,1.3,0.4l0.7-1.7
		c-1-0.5-1.7-0.6-2.3-0.6c-1.6,0-3.4,1.2-3.4,3.5v3.8h-2.3V54.7z M174.9,62.4c-2.2,0-3.7-1.8-3.7-4s1.5-4,3.7-4c2.2,0,3.7,1.8,3.7,4
		S177.1,62.4,174.9,62.4 M174.9,52.6c-3.3,0-5.7,2.6-5.7,5.8s2.4,5.8,5.7,5.8c3.3,0,5.7-2.6,5.7-5.8S178.1,52.6,174.9,52.6
		 M157.1,60.8c0,0-1.1,1.6-3.2,1.6c-2.2,0-3.7-1.8-3.7-4s1.5-4,3.7-4c2,0,3,1.3,3,1.3l1.4-1.2c0,0-1.6-2-4.4-2
		c-3.3,0-5.7,2.6-5.7,5.8c0,3.3,2.4,5.8,5.7,5.8c2.9,0,4.5-2.1,4.5-2.1L157.1,60.8z M141.6,49.3c0,0.7,0.6,1.4,1.4,1.4
		s1.4-0.6,1.4-1.4c0-0.7-0.6-1.4-1.4-1.4S141.6,48.6,141.6,49.3 M142,64h2V52.9h-2V64z M134.7,64h2V45.8h-2V64z M121.5,56.4
		c0,0,1.1-1.9,3.3-1.9s3.7,1.8,3.7,4s-1.4,4-3.7,4c-2.2,0-3.3-1.9-3.3-1.9V56.4z M125.1,52.6c-2.4,0-3.6,1.7-3.6,1.7v-8.4h-2V64h1.8
		v-1.6c0,0,1.1,1.9,3.7,1.9c3,0,5.4-2.6,5.4-5.8S128.1,52.6,125.1,52.6 M109.3,64.3c2.4,0,3.4-2,3.4-2V64h1.9V52.9h-2v7.7
		c0,0-0.9,1.8-2.8,1.8c-1.5,0-2.7-0.8-2.7-2.7v-6.8h-2V60C105.1,62.8,107.1,64.3,109.3,64.3 M92.4,56.4c0,0,1.1-1.9,3.3-1.9
		c2.3,0,3.7,1.8,3.7,4s-1.4,4-3.7,4c-2.2,0-3.3-1.9-3.3-1.9V56.4z M90.4,52.9v16.6h2v-6.9c0.4,0.5,1.5,1.7,3.6,1.7
		c3,0,5.4-2.6,5.4-5.8S99,52.6,96,52.6c-2.6,0-3.7,1.9-3.7,1.9v-1.6H90.4z M77.7,57.5c0.1-1.2,1.1-3,3.5-3c2.2,0,3.4,1.8,3.4,3H77.7
		z M81.3,52.6c-3.3,0-5.5,2.6-5.5,5.8c0,3.3,2.4,5.8,5.8,5.8c2.9,0,4.6-2.2,4.6-2.2l-1.3-1.3c0,0-1.2,1.6-3.3,1.6
		c-2.1,0-3.7-1.6-3.8-3.2h9c0-0.3,0-0.4,0-0.6C86.7,54.9,84.4,52.6,81.3,52.6 M62.2,64h2v-6.9h1.6l4.5,6.9h2.4l-4.7-7
		c0.5-0.1,4.1-0.8,4.1-4.8c0-3-2.3-5-5.6-5h-4.4V64z M66.7,55.2h-2.5v-6.1h2.5c2.3,0,3.5,1.2,3.5,3S68.9,55.2,66.7,55.2"/>
	<path d="M237.7,39c0,0,1,0.8,2.4,0.8c1.2,0,2.4-0.6,3.1-2.2c0.3-0.6,5.8-14.7,5.8-14.7h-2.2l-3.3,8.8l-3.9-8.8h-2.3l5.2,11.1
		l-0.9,2.2c-0.4,1.1-0.8,1.7-1.7,1.7c-0.6,0-1.3-0.6-1.3-0.6L237.7,39z M233.9,22.6c-2.1,0-3.1,2-3.1,2v-1.7H229V34h2v-7.6
		c0,0,0.8-1.9,2.5-1.9c0.8,0,1.3,0.2,1.3,0.2l0.7-1.8C235.5,22.9,234.8,22.6,233.9,22.6 M217.5,24.7h2.2v6.1c0,2.4,1.8,3.5,3.3,3.5
		c0.6,0,1.3-0.1,2.3-0.7l-0.7-1.7c0,0-0.6,0.5-1.3,0.5c-1.1,0-1.6-0.6-1.6-1.7v-6h3.5v-1.8h-3.5v-3.4h-2v3.4h-2.2V24.7z M205.4,31.9
		c0,0,1.6,2.3,4.8,2.3c2.1,0,4.4-1.1,4.4-3.2c0-2.3-1.8-3-3.9-3.5c-1.8-0.4-2.7-0.8-2.7-1.7c0-0.7,0.7-1.4,2.1-1.4
		c1.7,0,2.8,1.2,2.8,1.2l1.3-1.4c0,0-1.5-1.7-4.1-1.7c-2.5,0-4.1,1.6-4.1,3.2c0,2.1,1.7,3,4.1,3.5c1.7,0.3,2.5,0.8,2.5,1.8
		c0,0.9-1.3,1.4-2.4,1.4c-2.2,0-3.4-1.8-3.4-1.8L205.4,31.9z M198.9,19.3c0,0.7,0.6,1.4,1.4,1.4s1.4-0.6,1.4-1.4
		c0-0.7-0.6-1.4-1.4-1.4S198.9,18.6,198.9,19.3 M199.2,34h2V22.9h-2V34z M190.2,22.6c-2.4,0-3.4,1.8-3.4,1.8v-1.6h-1.9V34h2v-7.6
		c0,0,1-1.9,2.8-1.9c1.5,0,2.7,0.8,2.7,2.7V34h2v-7.1C194.4,24.1,192.4,22.6,190.2,22.6 M177.7,19.3c0,0.7,0.6,1.4,1.4,1.4
		c0.7,0,1.4-0.6,1.4-1.4c0-0.7-0.6-1.4-1.4-1.4C178.3,18,177.7,18.6,177.7,19.3 M178,34h2V22.9h-2V34z M157.2,17.2V34h2V20.9
		l5.7,9.3l5.7-9.3V34h2V17.2h-1.9l-5.8,9.4l-5.8-9.4H157.2z M141.7,34h2V15.8h-2V34z M131.5,32.5c-1.2,0-2.5-0.6-2.5-2
		c0-1.2,1.1-2,2.8-2c1.8,0,2.9,0.8,2.9,0.8v1.6C134.7,30.8,133.5,32.5,131.5,32.5 M131.9,22.6c-2.4,0-4.2,1.1-4.2,1.1l0.8,1.7
		c0,0,1.6-0.9,3.3-0.9c0.9,0,2.8,0.3,2.8,2.6v0.6c0,0-1.3-0.9-3.3-0.9c-2.5,0-4.4,1.5-4.4,3.7c0,2.4,2.1,3.8,4.1,3.8
		c2.5,0,3.8-1.9,3.8-1.9V34h1.8v-7.3C136.7,24.6,135.2,22.6,131.9,22.6 M123.2,22.6c-2.1,0-3.1,2-3.1,2v-1.7h-1.9V34h2v-7.6
		c0,0,0.8-1.9,2.5-1.9c0.8,0,1.3,0.2,1.3,0.2l0.7-1.8C124.8,22.9,124.1,22.6,123.2,22.6 M105.5,27.5c0.1-1.2,1.1-3,3.5-3
		c2.2,0,3.4,1.8,3.4,3H105.5z M109.1,22.6c-3.3,0-5.5,2.6-5.5,5.8c0,3.3,2.4,5.8,5.8,5.8c2.9,0,4.6-2.2,4.6-2.2l-1.3-1.3
		c0,0-1.2,1.6-3.3,1.6c-2.1,0-3.7-1.6-3.8-3.2h9c0-0.3,0-0.4,0-0.6C114.5,24.9,112.1,22.6,109.1,22.6 M97.3,30.5
		c0,0-1.1,1.9-3.3,1.9c-2.3,0-3.7-1.8-3.7-4c0-2.2,1.5-4,3.7-4s3.3,1.9,3.3,1.9V30.5z M93.7,22.6c-3,0-5.4,2.6-5.4,5.8
		s2.4,5.8,5.4,5.8c2.7,0,3.7-1.9,3.7-1.9V34h1.8V15.8h-2v8.4C97.3,24.3,96.2,22.6,93.7,22.6 M76.5,27.5c0.1-1.2,1.1-3,3.5-3
		c2.2,0,3.4,1.8,3.4,3H76.5z M80,22.6c-3.3,0-5.5,2.6-5.5,5.8c0,3.3,2.4,5.8,5.8,5.8c2.9,0,4.6-2.2,4.6-2.2l-1.3-1.3
		c0,0-1.2,1.6-3.3,1.6c-2.1,0-3.7-1.6-3.8-3.2h9c0-0.3,0-0.4,0-0.6C85.4,24.9,83.1,22.6,80,22.6 M64.2,19.1h7.5v-1.9h-9.5V34h2v-7.7
		h7v-1.9h-7V19.1z"/>
</g>
<polygon class="st0" points="43.2,22.7 43.2,17 17,17 19.7,22.7 "/>
<polygon class="st0" points="24.9,34 43.2,34 43.2,28.3 22.3,28.3 "/>
</svg>
