<?xml version="1.0" encoding="utf-8" ?>
<svg baseProfile="tiny" height="182" version="1.2" width="195" xmlns="http://www.w3.org/2000/svg" xmlns:ev="http://www.w3.org/2001/xml-events" xmlns:xlink="http://www.w3.org/1999/xlink"><defs /><path d="M 0.0 61.00313725490196 L 0.0031372549019607846 61.0 L 1.0 60.00313725490196 L 2.0 60.00313725490196 L 2.0031372549019606 60.0 L 3.0 59.00313725490196 L 4.0 59.00313725490196 L 4.003137254901961 59.0 L 5.0 58.00313725490196 L 6.0 58.00313725490196 L 6.003137254901961 58.0 L 7.0 57.00313725490196 L 8.0 57.00313725490196 L 8.003137254901961 57.0 L 9.0 56.00313725490196 L 10.0 56.00313725490196 L 10.003137254901961 56.0 L 11.0 55.00313725490196 L 12.0 55.00313725490196 L 12.003137254901961 55.0 L 13.0 54.00313725490196 L 14.0 54.00313725490196 L 14.003137254901961 54.0 L 15.0 53.00313725490196 L 16.0 53.00313725490196 L 16.00313725490196 53.0 L 17.0 52.00313725490196 L 18.0 52.00313725490196 L 18.00313725490196 52.0 L 19.0 51.00313725490196 L 20.0 51.00313725490196 L 20.00313725490196 51.0 L 21.0 50.00313725490196 L 22.0 50.00313725490196 L 22.00313725490196 50.0 L 23.0 49.00313725490196 L 24.0 49.00313725490196 L 24.00313725490196 49.0 L 25.0 48.00313725490196 L 26.0 48.00313725490196 L 26.00313725490196 48.0 L 27.0 47.00313725490196 L 28.0 47.00313725490196 L 28.00313725490196 47.0 L 29.0 46.00313725490196 L 30.0 46.00313725490196 L 30.00313725490196 46.0 L 31.0 45.00313725490196 L 32.0 45.00313725490196 L 32.00313725490196 45.0 L 33.0 44.00313725490196 L 34.0 44.00313725490196 L 34.00313725490196 44.0 L 35.0 43.00313725490196 L 36.0 43.00313725490196 L 36.00313725490196 43.0 L 37.0 42.00313725490196 L 38.0 42.00313725490196 L 38.00313725490196 42.0 L 39.0 41.00313725490196 L 39.00313725490196 41.0 L 39.00313725490196 40.0 L 40.0 39.00313725490196 L 40.00313725490196 39.0 L 40.00313725490196 38.0 L 40.00313725490196 37.0 L 40.00313725490196 36.0 L 41.0 35.00313725490196 L 41.00313725490196 35.0 L 41.00313725490196 34.0 L 41.00313725490196 33.0 L 42.0 32.00313725490196 L 42.00313725490196 32.0 L 42.00313725490196 31.0 L 42.00313725490196 30.0 L 42.00313725490196 29.0 L 43.0 28.00313725490196 L 43.00313725490196 28.0 L 43.00313725490196 27.0 L 43.00313725490196 26.0 L 44.0 25.00313725490196 L 44.00313725490196 25.0 L 44.00313725490196 24.0 L 45.0 23.00313725490196 L 45.00313725490196 23.0 L 45.00313725490196 22.0 L 45.00313725490196 21.0 L 46.0 20.00313725490196 L 46.00313725490196 20.0 L 46.00313725490196 19.0 L 47.0 18.00313725490196 L 47.00313725490196 18.0 L 47.00313725490196 17.0 L 48.0 16.00313725490196 L 48.00313725490196 16.0 L 48.00313725490196 15.0 L 49.0 14.003137254901961 L 49.00313725490196 14.0 L 49.00313725490196 13.0 L 50.0 12.003137254901961 L 50.00313725490196 12.0 L 51.0 11.003137254901961 L 51.00313725490196 11.0 L 52.0 10.003137254901961 L 52.00313725490196 10.0 L 52.00313725490196 9.0 L 53.0 8.003137254901961 L 54.0 8.003137254901961 L 54.00313725490196 8.0 L 55.0 7.003137254901961 L 55.00313725490196 7.0 L 56.0 6.003137254901961 L 56.00313725490196 6.0 L 57.0 5.003137254901961 L 58.0 5.003137254901961 L 58.00313725490196 5.0 L 59.0 4.003137254901961 L 60.0 4.003137254901961 L 60.00313725490196 4.0 L 61.0 3.0031372549019606 L 62.0 3.0031372549019606 L 62.00313725490196 3.0 L 63.0 2.0031372549019606 L 64.0 2.0031372549019606 L 65.0 2.0031372549019606 L 65.00313725490196 2.0 L 66.0 1.0031372549019608 L 67.0 1.0031372549019608 L 68.0 1.0031372549019608 L 69.0 1.0031372549019608 L 69.00313725490196 1.0 L 70.0 0.0031372549019607846 L 71.0 0.0031372549019607846 L 72.0 0.0031372549019607846 L 73.0 0.0031372549019607846 L 74.0 0.0031372549019607846 L 75.0 0.0031372549019607846 L 76.0 0.0031372549019607846 L 76.00313725490196 0.0 Z M 94.99686274509804 0.0 L 95.0 0.0031372549019607846 L 96.0 0.0031372549019607846 L 97.0 0.0031372549019607846 L 98.0 0.0031372549019607846 L 99.0 0.0031372549019607846 L 100.0 0.0031372549019607846 L 101.0 0.0031372549019607846 L 102.0 0.0031372549019607846 L 103.0 0.0031372549019607846 L 104.0 0.0031372549019607846 L 104.99686274509804 1.0 L 105.0 1.0031372549019608 L 106.0 1.0031372549019608 L 107.0 1.0031372549019608 L 108.0 1.0031372549019608 L 109.0 1.0031372549019608 L 110.0 1.0031372549019608 L 111.0 1.0031372549019608 L 111.99686274509804 2.0 L 112.0 2.0031372549019606 L 113.0 2.0031372549019606 L 114.0 2.0031372549019606 L 115.0 2.0031372549019606 L 116.0 2.0031372549019606 L 116.99686274509804 3.0 L 117.0 3.0031372549019606 L 118.0 3.0031372549019606 L 119.0 3.0031372549019606 L 120.0 3.0031372549019606 L 121.0 3.0031372549019606 L 121.99686274509804 4.0 L 122.0 4.003137254901961 L 123.0 4.003137254901961 L 124.0 4.003137254901961 L 125.0 4.003137254901961 L 126.0 4.003137254901961 L 126.99686274509804 5.0 L 127.0 5.003137254901961 L 128.0 5.003137254901961 L 129.0 5.003137254901961 L 130.0 5.003137254901961 L 131.0 5.003137254901961 L 131.99686274509804 6.0 L 132.0 6.003137254901961 L 133.0 6.003137254901961 L 134.0 6.003137254901961 L 135.0 6.003137254901961 L 135.99686274509804 7.0 L 136.0 7.003137254901961 L 137.0 7.003137254901961 L 138.0 7.003137254901961 L 139.0 7.003137254901961 L 139.99686274509804 8.0 L 140.0 8.003137254901961 L 141.0 8.003137254901961 L 142.0 8.003137254901961 L 143.0 8.003137254901961 L 143.99686274509804 9.0 L 144.0 9.003137254901961 L 145.0 9.003137254901961 L 146.0 9.003137254901961 L 147.0 9.003137254901961 L 147.99686274509804 10.0 L 148.0 10.003137254901961 L 149.0 10.003137254901961 L 150.0 10.003137254901961 L 150.99686274509804 11.0 L 151.0 11.003137254901961 L 152.0 11.003137254901961 L 153.0 11.003137254901961 L 153.99686274509804 12.0 L 154.0 12.003137254901961 L 155.0 12.003137254901961 L 155.99686274509804 13.0 L 156.0 13.003137254901961 L 157.0 13.003137254901961 L 157.99686274509804 14.0 L 158.0 14.003137254901961 L 159.0 14.003137254901961 L 159.99686274509804 15.0 L 160.0 15.003137254901961 L 161.0 15.003137254901961 L 161.99686274509804 16.0 L 162.0 16.00313725490196 L 163.0 16.00313725490196 L 163.99686274509804 17.0 L 164.0 17.00313725490196 L 165.0 17.00313725490196 L 165.99686274509804 18.0 L 166.0 18.00313725490196 L 166.99686274509804 19.0 L 167.0 19.00313725490196 L 168.0 19.00313725490196 L 168.99686274509804 20.0 L 169.0 20.00313725490196 L 169.99686274509804 21.0 L 170.0 21.00313725490196 L 170.99686274509804 22.0 L 171.0 22.00313725490196 L 172.0 22.00313725490196 L 172.99686274509804 23.0 L 173.0 23.00313725490196 L 173.99686274509804 24.0 L 174.0 24.00313725490196 L 174.99686274509804 25.0 L 175.0 25.00313725490196 L 175.99686274509804 26.0 L 176.0 26.00313725490196 L 177.0 26.00313725490196 L 177.99686274509804 27.0 L 178.0 27.00313725490196 L 178.99686274509804 28.0 L 179.0 28.00313725490196 L 179.99686274509804 29.0 L 180.0 29.00313725490196 L 180.99686274509804 30.0 L 181.0 30.00313725490196 L 181.99686274509804 31.0 L 181.99686274509804 32.0 L 182.0 32.00313725490196 L 182.99686274509804 33.0 L 183.0 33.00313725490196 L 183.99686274509804 34.0 L 184.0 34.00313725490196 L 184.99686274509804 35.0 L 185.0 35.00313725490196 L 185.99686274509804 36.0 L 185.99686274509804 37.0 L 186.0 37.00313725490196 L 186.99686274509804 38.0 L 187.0 38.00313725490196 L 187.99686274509804 39.0 L 187.99686274509804 40.0 L 188.0 40.00313725490196 L 188.99686274509804 41.0 L 188.99686274509804 42.0 L 189.0 42.00313725490196 L 189.99686274509804 43.0 L 189.99686274509804 44.0 L 190.0 44.00313725490196 L 190.99686274509804 45.0 L 190.99686274509804 46.0 L 191.0 46.00313725490196 L 191.99686274509804 47.0 L 191.99686274509804 48.0 L 191.99686274509804 49.0 L 191.99686274509804 50.0 L 191.99686274509804 51.0 L 192.0 51.00313725490196 L 192.99686274509804 52.0 L 192.99686274509804 53.0 L 192.99686274509804 54.0 L 192.99686274509804 55.0 L 192.99686274509804 56.0 L 192.99686274509804 57.0 L 192.99686274509804 58.0 L 193.0 58.00313725490196 L 193.99686274509804 59.0 L 193.99686274509804 60.0 L 193.99686274509804 61.0 L 193.99686274509804 62.0 L 193.99686274509804 63.0 L 193.99686274509804 64.0 L 193.99686274509804 65.0 L 193.99686274509804 66.0 L 193.99686274509804 67.0 L 193.99686274509804 68.0 L 193.99686274509804 69.0 L 193.99686274509804 70.0 L 193.99686274509804 71.0 L 193.99686274509804 72.0 L 193.99686274509804 73.0 L 193.99686274509804 74.0 L 193.99686274509804 75.0 L 193.99686274509804 76.0 L 193.99686274509804 77.0 L 193.99686274509804 78.0 L 193.99686274509804 79.0 L 193.99686274509804 80.0 L 193.99686274509804 81.0 L 193.99686274509804 82.0 L 193.99686274509804 83.0 L 193.99686274509804 84.0 L 193.99686274509804 85.0 L 193.99686274509804 86.0 L 193.99686274509804 87.0 L 193.99686274509804 88.0 L 193.99686274509804 89.0 L 193.99686274509804 90.0 L 193.99686274509804 91.0 L 193.99686274509804 92.0 L 193.99686274509804 93.0 L 193.99686274509804 94.0 L 193.99686274509804 95.0 L 193.99686274509804 96.0 L 193.99686274509804 97.0 L 193.99686274509804 98.0 L 193.99686274509804 99.0 L 193.99686274509804 100.0 L 193.99686274509804 101.0 L 193.99686274509804 102.0 L 193.99686274509804 103.0 L 193.99686274509804 104.0 L 193.99686274509804 105.0 L 193.0 105.99686274509804 L 192.99686274509804 106.0 L 192.99686274509804 107.0 L 192.99686274509804 108.0 L 192.99686274509804 109.0 L 192.99686274509804 110.0 L 192.99686274509804 111.0 L 192.99686274509804 112.0 L 192.99686274509804 113.0 L 192.99686274509804 114.0 L 192.0 114.99686274509804 L 191.99686274509804 115.0 L 191.99686274509804 116.0 L 191.99686274509804 117.0 L 191.99686274509804 118.0 L 191.99686274509804 119.0 L 191.99686274509804 120.0 L 191.0 120.99686274509804 L 190.99686274509804 121.0 L 190.99686274509804 122.0 L 190.99686274509804 123.0 L 190.99686274509804 124.0 L 190.99686274509804 125.0 L 190.99686274509804 126.0 L 190.0 126.99686274509804 L 189.99686274509804 127.0 L 189.99686274509804 128.0 L 189.99686274509804 129.0 L 189.99686274509804 130.0 L 189.0 130.99686274509804 L 188.99686274509804 131.0 L 188.99686274509804 132.0 L 188.99686274509804 133.0 L 188.99686274509804 134.0 L 188.0 134.99686274509804 L 187.99686274509804 135.0 L 187.99686274509804 136.0 L 187.99686274509804 137.0 L 187.0 137.99686274509804 L 186.99686274509804 138.0 L 186.99686274509804 139.0 L 186.0 139.99686274509804 L 185.99686274509804 140.0 L 185.99686274509804 141.0 L 185.0 141.99686274509804 L 184.99686274509804 142.0 L 184.99686274509804 143.0 L 184.0 143.99686274509804 L 183.99686274509804 144.0 L 183.99686274509804 145.0 L 183.0 145.99686274509804 L 182.99686274509804 146.0 L 182.0 146.99686274509804 L 181.99686274509804 147.0 L 181.0 147.99686274509804 L 180.99686274509804 148.0 L 180.99686274509804 149.0 L 180.0 149.99686274509804 L 179.99686274509804 150.0 L 179.0 150.99686274509804 L 178.99686274509804 151.0 L 178.0 151.99686274509804 L 177.99686274509804 152.0 L 177.0 152.99686274509804 L 176.99686274509804 153.0 L 176.0 153.99686274509804 L 175.99686274509804 154.0 L 175.0 154.99686274509804 L 174.99686274509804 155.0 L 174.0 155.99686274509804 L 173.99686274509804 156.0 L 173.0 156.99686274509804 L 172.99686274509804 157.0 L 172.0 157.99686274509804 L 171.99686274509804 158.0 L 171.0 158.99686274509804 L 170.99686274509804 159.0 L 170.0 159.99686274509804 L 169.99686274509804 160.0 L 169.0 160.99686274509804 L 168.99686274509804 161.0 L 168.0 161.99686274509804 L 167.0 161.99686274509804 L 166.99686274509804 162.0 L 166.0 162.99686274509804 L 165.99686274509804 163.0 L 165.0 163.99686274509804 L 164.99686274509804 164.0 L 164.0 164.99686274509804 L 163.0 164.99686274509804 L 162.99686274509804 165.0 L 162.0 165.99686274509804 L 161.99686274509804 166.0 L 161.0 166.99686274509804 L 160.0 166.99686274509804 L 159.99686274509804 167.0 L 159.0 167.99686274509804 L 158.0 167.99686274509804 L 157.99686274509804 168.0 L 157.0 168.99686274509804 L 156.0 168.99686274509804 L 155.99686274509804 169.0 L 155.0 169.99686274509804 L 154.0 169.99686274509804 L 153.99686274509804 170.0 L 153.0 170.99686274509804 L 152.0 170.99686274509804 L 151.0 170.99686274509804 L 150.99686274509804 171.0 L 150.0 171.99686274509804 L 149.0 171.99686274509804 L 148.0 171.99686274509804 L 147.99686274509804 172.0 L 147.0 172.99686274509804 L 146.0 172.99686274509804 L 145.0 172.99686274509804 L 144.0 172.99686274509804 L 143.0 172.99686274509804 L 142.0 172.99686274509804 L 141.0 172.99686274509804 L 140.0 172.99686274509804 L 139.0 172.99686274509804 L 138.0 172.99686274509804 L 137.99686274509804 173.0 L 137.0 173.99686274509804 L 136.0 173.99686274509804 L 135.99686274509804 174.0 L 135.99686274509804 175.0 L 135.0 175.99686274509804 L 134.99686274509804 176.0 L 134.0 176.99686274509804 L 133.99686274509804 177.0 L 133.0 177.99686274509804 L 132.99686274509804 178.0 L 132.0 178.99686274509804 L 131.99686274509804 179.0 L 131.0 179.99686274509804 L 130.99686274509804 180.0 L 130.0 180.99686274509804 L 129.99686274509804 181.0 Z M 146.00313725490196 170.0 L 147.0 169.00313725490196 L 148.0 169.00313725490196 L 149.0 169.00313725490196 L 150.0 169.00313725490196 L 150.00313725490196 169.0 L 151.0 168.00313725490196 L 152.0 168.00313725490196 L 152.00313725490196 168.0 L 153.0 167.00313725490196 L 154.0 167.00313725490196 L 154.00313725490196 167.0 L 155.0 166.00313725490196 L 156.0 166.00313725490196 L 157.0 166.00313725490196 L 157.00313725490196 166.0 L 158.0 165.00313725490196 L 158.00313725490196 165.0 L 159.0 164.00313725490196 L 160.0 164.00313725490196 L 160.00313725490196 164.0 L 161.0 163.00313725490196 L 162.0 163.00313725490196 L 162.00313725490196 163.0 L 163.0 162.00313725490196 L 163.00313725490196 162.0 L 164.0 161.00313725490196 L 164.00313725490196 161.0 L 165.0 160.00313725490196 L 166.0 160.00313725490196 L 166.00313725490196 160.0 L 167.0 159.00313725490196 L 167.00313725490196 159.0 L 168.0 158.00313725490196 L 168.00313725490196 158.0 L 169.0 157.00313725490196 L 169.00313725490196 157.0 L 170.0 156.00313725490196 L 171.0 156.00313725490196 L 171.00313725490196 156.0 L 172.0 155.00313725490196 L 172.00313725490196 155.0 L 173.0 154.00313725490196 L 173.00313725490196 154.0 L 174.0 153.00313725490196 L 174.00313725490196 153.0 L 175.0 152.00313725490196 L 175.00313725490196 152.0 L 175.00313725490196 151.0 L 176.0 150.00313725490196 L 176.00313725490196 150.0 L 177.0 149.00313725490196 L 177.00313725490196 149.0 L 178.0 148.00313725490196 L 178.00313725490196 148.0 L 179.0 147.00313725490196 L 179.00313725490196 147.0 L 179.00313725490196 146.0 L 180.0 145.00313725490196 L 180.00313725490196 145.0 L 181.0 144.00313725490196 L 181.00313725490196 144.0 L 181.00313725490196 143.0 L 182.0 142.00313725490196 L 182.00313725490196 142.0 L 183.0 141.00313725490196 L 183.00313725490196 141.0 L 183.00313725490196 140.0 L 184.0 139.00313725490196 L 184.00313725490196 139.0 L 184.00313725490196 138.0 L 184.00313725490196 137.0 L 185.0 136.00313725490196 L 185.00313725490196 136.0 L 185.00313725490196 135.0 L 185.00313725490196 134.0 L 186.0 133.00313725490196 L 186.00313725490196 133.0 L 186.00313725490196 132.0 L 186.00313725490196 131.0 L 187.0 130.00313725490196 L 187.00313725490196 130.0 L 187.00313725490196 129.0 L 187.00313725490196 128.0 L 187.00313725490196 127.0 L 187.00313725490196 126.0 L 188.0 125.00313725490196 L 188.00313725490196 125.0 L 188.00313725490196 124.0 L 188.00313725490196 123.0 L 188.00313725490196 122.0 L 188.00313725490196 121.0 L 189.0 120.00313725490196 L 189.00313725490196 120.0 L 189.00313725490196 119.0 L 189.00313725490196 118.0 L 189.00313725490196 117.0 L 189.00313725490196 116.0 L 189.00313725490196 115.0 L 189.00313725490196 114.0 L 190.0 113.00313725490196 L 190.00313725490196 113.0 L 190.00313725490196 112.0 L 190.00313725490196 111.0 L 190.00313725490196 110.0 L 190.00313725490196 109.0 L 190.00313725490196 108.0 L 190.00313725490196 107.0 L 190.00313725490196 106.0 L 190.00313725490196 105.0 L 191.0 104.00313725490196 L 191.00313725490196 104.0 L 191.00313725490196 103.0 L 191.00313725490196 102.0 L 191.00313725490196 101.0 L 191.00313725490196 100.0 L 191.00313725490196 99.0 L 191.00313725490196 98.0 L 191.00313725490196 97.0 L 191.00313725490196 96.0 L 191.00313725490196 95.0 L 191.00313725490196 94.0 L 191.00313725490196 93.0 L 191.00313725490196 92.0 L 191.00313725490196 91.0 L 191.00313725490196 90.0 L 191.00313725490196 89.0 L 191.00313725490196 88.0 L 192.0 87.00313725490196 L 192.00313725490196 87.0 L 192.00313725490196 86.0 L 192.00313725490196 85.0 L 192.00313725490196 84.0 L 192.00313725490196 83.0 L 192.00313725490196 82.0 L 192.00313725490196 81.0 L 192.00313725490196 80.0 L 192.00313725490196 79.0 L 192.00313725490196 78.0 L 192.00313725490196 77.0 L 192.00313725490196 76.0 L 192.00313725490196 75.0 L 192.0 74.99686274509804 L 191.00313725490196 74.0 L 191.00313725490196 73.0 L 191.00313725490196 72.0 L 191.00313725490196 71.0 L 191.00313725490196 70.0 L 191.00313725490196 69.0 L 191.00313725490196 68.0 L 191.00313725490196 67.0 L 191.00313725490196 66.0 L 191.00313725490196 65.0 L 191.00313725490196 64.0 L 191.00313725490196 63.0 L 191.00313725490196 62.0 L 191.00313725490196 61.0 L 191.00313725490196 60.0 L 191.00313725490196 59.0 L 191.0 58.99686274509804 L 190.00313725490196 58.0 L 190.00313725490196 57.0 L 190.00313725490196 56.0 L 190.00313725490196 55.0 L 190.00313725490196 54.0 L 190.00313725490196 53.0 L 190.00313725490196 52.0 L 190.0 51.99686274509804 L 189.00313725490196 51.0 L 189.00313725490196 50.0 L 189.00313725490196 49.0 L 189.00313725490196 48.0 L 189.0 47.99686274509804 L 188.00313725490196 47.0 L 188.00313725490196 46.0 L 188.00313725490196 45.0 L 188.0 44.99686274509804 L 187.00313725490196 44.0 L 187.00313725490196 43.0 L 187.0 42.99686274509804 L 186.00313725490196 42.0 L 186.00313725490196 41.0 L 186.0 40.99686274509804 L 185.00313725490196 40.0 L 185.0 39.99686274509804 L 184.00313725490196 39.0 L 184.00313725490196 38.0 L 184.0 37.99686274509804 L 183.00313725490196 37.0 L 183.0 36.99686274509804 L 182.00313725490196 36.0 L 182.0 35.99686274509804 L 181.00313725490196 35.0 L 181.00313725490196 34.0 L 181.0 33.99686274509804 L 180.00313725490196 33.0 L 180.0 32.99686274509804 L 179.00313725490196 32.0 L 179.0 31.99686274509804 L 178.00313725490196 31.0 L 178.0 30.99686274509804 L 177.00313725490196 30.0 L 177.0 29.99686274509804 L 176.00313725490196 29.0 L 176.0 28.99686274509804 L 175.00313725490196 28.0 L 175.0 27.99686274509804 L 174.00313725490196 27.0 L 174.0 26.99686274509804 L 173.0 26.99686274509804 L 172.00313725490196 26.0 L 172.0 25.99686274509804 L 171.00313725490196 25.0 L 171.0 24.99686274509804 L 170.00313725490196 24.0 L 170.0 23.99686274509804 L 169.0 23.99686274509804 L 168.00313725490196 23.0 L 168.0 22.99686274509804 L 167.00313725490196 22.0 L 167.0 21.99686274509804 L 166.0 21.99686274509804 L 165.00313725490196 21.0 L 165.0 20.99686274509804 L 164.00313725490196 20.0 L 164.0 19.99686274509804 L 163.0 19.99686274509804 L 162.00313725490196 19.0 L 162.0 18.99686274509804 L 161.00313725490196 18.0 L 161.0 17.99686274509804 L 160.0 17.99686274509804 L 159.00313725490196 17.0 L 159.0 16.99686274509804 L 158.0 16.99686274509804 L 157.00313725490196 16.0 L 157.0 15.996862745098039 L 156.0 15.996862745098039 L 155.0 15.996862745098039 L 154.00313725490196 15.0 L 154.0 14.996862745098039 L 153.0 14.996862745098039 L 152.00313725490196 14.0 L 152.0 13.996862745098039 L 151.0 13.996862745098039 L 150.00313725490196 13.0 L 150.0 12.996862745098039 L 149.0 12.996862745098039 L 148.0 12.996862745098039 L 147.0 12.996862745098039 L 146.00313725490196 12.0 L 146.0 11.996862745098039 L 145.0 11.996862745098039 L 144.0 11.996862745098039 L 143.00313725490196 11.0 L 143.0 10.996862745098039 L 142.0 10.996862745098039 L 141.0 10.996862745098039 L 140.0 10.996862745098039 L 139.00313725490196 10.0 L 139.0 9.996862745098039 L 138.0 9.996862745098039 L 137.0 9.996862745098039 L 136.0 9.996862745098039 L 135.00313725490196 9.0 L 135.0 8.996862745098039 L 134.0 8.996862745098039 L 133.0 8.996862745098039 L 132.0 8.996862745098039 L 131.00313725490196 8.0 L 131.0 7.996862745098039 L 130.0 7.996862745098039 L 129.0 7.996862745098039 L 128.0 7.996862745098039 L 127.0 7.996862745098039 L 126.00313725490196 7.0 L 126.0 6.996862745098039 L 125.0 6.996862745098039 L 124.0 6.996862745098039 L 123.0 6.996862745098039 L 122.0 6.996862745098039 L 121.00313725490196 6.0 L 121.0 5.996862745098039 L 120.0 5.996862745098039 L 119.0 5.996862745098039 L 118.0 5.996862745098039 L 117.0 5.996862745098039 L 116.00313725490196 5.0 L 116.0 4.996862745098039 L 115.0 4.996862745098039 L 114.0 4.996862745098039 L 113.0 4.996862745098039 L 112.0 4.996862745098039 L 111.0 4.996862745098039 L 110.00313725490196 4.0 L 110.0 3.9968627450980394 L 109.0 3.9968627450980394 L 108.0 3.9968627450980394 L 107.0 3.9968627450980394 L 106.0 3.9968627450980394 L 105.0 3.9968627450980394 L 104.00313725490196 3.0 L 104.0 2.9968627450980394 L 103.0 2.9968627450980394 L 102.0 2.9968627450980394 L 101.0 2.9968627450980394 L 100.0 2.9968627450980394 L 99.0 2.9968627450980394 L 98.0 2.9968627450980394 L 97.0 2.9968627450980394 L 96.0 2.9968627450980394 L 95.0 2.9968627450980394 L 94.00313725490196 2.0 L 94.0 1.9968627450980392 L 93.0 1.9968627450980392 L 92.0 1.9968627450980392 L 91.0 1.9968627450980392 L 90.0 1.9968627450980392 L 89.0 1.9968627450980392 L 88.0 1.9968627450980392 L 87.0 1.9968627450980392 L 86.0 1.9968627450980392 L 85.0 1.9968627450980392 L 84.0 1.9968627450980392 L 83.0 1.9968627450980392 L 82.0 1.9968627450980392 L 81.0 1.9968627450980392 L 80.0 1.9968627450980392 L 79.0 1.9968627450980392 L 78.0 1.9968627450980392 L 77.0 1.9968627450980392 L 76.99686274509804 2.0 L 76.0 2.9968627450980394 L 75.0 2.9968627450980394 L 74.0 2.9968627450980394 L 73.0 2.9968627450980394 L 72.0 2.9968627450980394 L 71.0 2.9968627450980394 L 70.0 2.9968627450980394 L 69.99686274509804 3.0 L 69.0 3.9968627450980394 L 68.0 3.9968627450980394 L 67.0 3.9968627450980394 L 66.0 3.9968627450980394 L 65.99686274509804 4.0 L 65.0 4.996862745098039 L 64.0 4.996862745098039 L 63.0 4.996862745098039 L 62.99686274509804 5.0 L 62.0 5.996862745098039 L 61.0 5.996862745098039 L 60.99686274509804 6.0 L 60.0 6.996862745098039 L 59.0 6.996862745098039 L 58.99686274509804 7.0 L 58.0 7.996862745098039 L 57.99686274509804 8.0 L 57.0 8.996862745098039 L 56.0 8.996862745098039 L 55.99686274509804 9.0 L 55.0 9.996862745098039 L 54.99686274509804 10.0 L 54.0 10.996862745098039 L 53.99686274509804 11.0 L 53.99686274509804 12.0 L 53.0 12.996862745098039 L 52.99686274509804 13.0 L 52.0 13.996862745098039 L 51.99686274509804 14.0 L 51.99686274509804 15.0 L 51.0 15.996862745098039 L 50.99686274509804 16.0 L 50.0 16.99686274509804 L 49.99686274509804 17.0 L 49.99686274509804 18.0 L 49.0 18.99686274509804 L 48.99686274509804 19.0 L 48.99686274509804 20.0 L 48.99686274509804 21.0 L 48.0 21.99686274509804 L 47.99686274509804 22.0 L 47.99686274509804 23.0 L 47.0 23.99686274509804 L 46.99686274509804 24.0 L 46.99686274509804 25.0 L 46.99686274509804 26.0 L 46.0 26.99686274509804 L 45.99686274509804 27.0 L 45.99686274509804 28.0 L 45.99686274509804 29.0 L 45.0 29.99686274509804 L 44.99686274509804 30.0 L 44.99686274509804 31.0 L 44.99686274509804 32.0 L 44.0 32.99686274509804 L 43.99686274509804 33.0 L 43.99686274509804 34.0 L 43.99686274509804 35.0 L 43.0 35.99686274509804 L 42.99686274509804 36.0 L 42.99686274509804 37.0 L 42.99686274509804 38.0 L 42.99686274509804 39.0 L 43.0 39.00313725490196 L 43.00313725490196 39.0 L 44.0 38.00313725490196 L 45.0 38.00313725490196 L 45.00313725490196 38.0 L 46.0 37.00313725490196 L 47.0 37.00313725490196 L 47.00313725490196 37.0 L 48.0 36.00313725490196 L 49.0 36.00313725490196 L 49.00313725490196 36.0 L 50.0 35.00313725490196 L 51.0 35.00313725490196 L 51.00313725490196 35.0 L 52.0 34.00313725490196 L 53.0 34.00313725490196 L 53.00313725490196 34.0 L 54.0 33.00313725490196 L 55.0 33.00313725490196 L 55.00313725490196 33.0 L 56.0 32.00313725490196 L 57.0 32.00313725490196 L 57.00313725490196 32.0 L 58.0 31.00313725490196 L 59.0 31.00313725490196 L 59.00313725490196 31.0 L 60.0 30.00313725490196 L 61.0 30.00313725490196 L 61.00313725490196 30.0 L 62.0 29.00313725490196 L 63.0 29.00313725490196 L 63.00313725490196 29.0 L 64.0 28.00313725490196 L 65.0 28.00313725490196 L 65.00313725490196 28.0 L 66.0 27.00313725490196 L 67.0 27.00313725490196 L 67.00313725490196 27.0 L 68.0 26.00313725490196 L 69.0 26.00313725490196 L 69.00313725490196 26.0 L 70.0 25.00313725490196 L 71.0 25.00313725490196 L 71.00313725490196 25.0 L 72.0 24.00313725490196 L 73.0 24.00313725490196 L 73.00313725490196 24.0 L 74.0 23.00313725490196 L 75.0 23.00313725490196 L 75.00313725490196 23.0 L 76.0 22.00313725490196 L 77.0 22.00313725490196 L 77.00313725490196 22.0 L 78.0 21.00313725490196 L 79.0 21.00313725490196 L 79.00313725490196 21.0 L 80.0 20.00313725490196 L 81.0 20.00313725490196 L 81.00313725490196 20.0 L 82.0 19.00313725490196 L 83.0 19.00313725490196 L 83.00313725490196 19.0 L 84.0 18.00313725490196 L 85.0 18.00313725490196 L 86.0 18.00313725490196 L 87.0 18.00313725490196 L 88.0 18.00313725490196 L 89.0 18.00313725490196 L 89.99686274509804 19.0 L 90.0 19.00313725490196 L 91.0 19.00313725490196 L 92.0 19.00313725490196 L 93.0 19.00313725490196 L 93.99686274509804 20.0 L 94.0 20.00313725490196 L 95.0 20.00313725490196 L 96.0 20.00313725490196 L 97.0 20.00313725490196 L 97.99686274509804 21.0 L 98.0 21.00313725490196 L 99.0 21.00313725490196 L 100.0 21.00313725490196 L 101.0 21.00313725490196 L 102.0 21.00313725490196 L 102.99686274509804 22.0 L 103.0 22.00313725490196 L 104.0 22.00313725490196 L 105.0 22.00313725490196 L 106.0 22.00313725490196 L 106.99686274509804 23.0 L 107.0 23.00313725490196 L 108.0 23.00313725490196 L 109.0 23.00313725490196 L 110.0 23.00313725490196 L 111.0 23.00313725490196 L 111.99686274509804 24.0 L 112.0 24.00313725490196 L 113.0 24.00313725490196 L 114.0 24.00313725490196 L 115.0 24.00313725490196 L 115.99686274509804 25.0 L 116.0 25.00313725490196 L 117.0 25.00313725490196 L 118.0 25.00313725490196 L 119.0 25.00313725490196 L 120.0 25.00313725490196 L 120.99686274509804 26.0 L 121.0 26.00313725490196 L 122.0 26.00313725490196 L 123.0 26.00313725490196 L 124.0 26.00313725490196 L 124.99686274509804 27.0 L 125.0 27.00313725490196 L 126.0 27.00313725490196 L 127.0 27.00313725490196 L 128.0 27.00313725490196 L 129.0 27.00313725490196 L 129.99686274509804 28.0 L 130.0 28.00313725490196 L 131.0 28.00313725490196 L 132.0 28.00313725490196 L 133.0 28.00313725490196 L 133.99686274509804 29.0 L 134.0 29.00313725490196 L 135.0 29.00313725490196 L 136.0 29.00313725490196 L 137.0 29.00313725490196 L 137.99686274509804 30.0 L 138.0 30.00313725490196 L 139.0 30.00313725490196 L 140.0 30.00313725490196 L 141.0 30.00313725490196 L 142.0 30.00313725490196 L 142.99686274509804 31.0 L 143.0 31.00313725490196 L 144.0 31.00313725490196 L 145.0 31.00313725490196 L 146.0 31.00313725490196 L 146.99686274509804 32.0 L 147.0 32.00313725490196 L 148.0 32.00313725490196 L 149.0 32.00313725490196 L 150.0 32.00313725490196 L 151.0 32.00313725490196 L 151.99686274509804 33.0 L 152.0 33.00313725490196 L 153.0 33.00313725490196 L 154.0 33.00313725490196 L 155.0 33.00313725490196 L 155.99686274509804 34.0 L 156.0 34.00313725490196 L 157.0 34.00313725490196 L 158.0 34.00313725490196 L 159.0 34.00313725490196 L 160.0 34.00313725490196 L 160.99686274509804 35.0 L 161.0 35.00313725490196 L 162.0 35.00313725490196 L 163.0 35.00313725490196 L 164.0 35.00313725490196 L 164.99686274509804 36.0 L 165.0 36.00313725490196 L 166.0 36.00313725490196 L 167.0 36.00313725490196 L 168.0 36.00313725490196 L 169.0 36.00313725490196 L 169.99686274509804 37.0 L 170.0 37.00313725490196 L 171.0 37.00313725490196 L 172.0 37.00313725490196 L 173.0 37.00313725490196 L 173.99686274509804 38.0 L 174.0 38.00313725490196 L 175.0 38.00313725490196 L 176.0 38.00313725490196 L 177.0 38.00313725490196 L 178.0 38.00313725490196 L 178.99686274509804 39.0 L 179.0 39.00313725490196 L 179.99686274509804 40.0 L 179.99686274509804 41.0 L 179.99686274509804 42.0 L 179.99686274509804 43.0 L 180.0 43.00313725490196 L 180.99686274509804 44.0 L 180.99686274509804 45.0 L 180.99686274509804 46.0 L 180.99686274509804 47.0 L 180.99686274509804 48.0 L 180.99686274509804 49.0 L 180.99686274509804 50.0 L 180.99686274509804 51.0 L 180.99686274509804 52.0 L 180.99686274509804 53.0 L 181.0 53.00313725490196 L 181.99686274509804 54.0 L 181.99686274509804 55.0 L 181.99686274509804 56.0 L 181.99686274509804 57.0 L 181.99686274509804 58.0 L 181.99686274509804 59.0 L 181.99686274509804 60.0 L 181.99686274509804 61.0 L 181.99686274509804 62.0 L 181.99686274509804 63.0 L 181.99686274509804 64.0 L 182.0 64.00313725490196 L 182.99686274509804 65.0 L 182.99686274509804 66.0 L 182.99686274509804 67.0 L 182.99686274509804 68.0 L 182.99686274509804 69.0 L 182.99686274509804 70.0 L 182.99686274509804 71.0 L 182.99686274509804 72.0 L 182.99686274509804 73.0 L 182.99686274509804 74.0 L 182.99686274509804 75.0 L 183.0 75.00313725490196 L 183.99686274509804 76.0 L 183.99686274509804 77.0 L 183.99686274509804 78.0 L 183.99686274509804 79.0 L 183.99686274509804 80.0 L 183.99686274509804 81.0 L 183.99686274509804 82.0 L 183.99686274509804 83.0 L 183.99686274509804 84.0 L 183.99686274509804 85.0 L 184.0 85.00313725490196 L 184.99686274509804 86.0 L 184.99686274509804 87.0 L 184.99686274509804 88.0 L 184.99686274509804 89.0 L 184.99686274509804 90.0 L 184.99686274509804 91.0 L 184.99686274509804 92.0 L 184.99686274509804 93.0 L 184.99686274509804 94.0 L 184.99686274509804 95.0 L 184.99686274509804 96.0 L 185.0 96.00313725490196 L 185.99686274509804 97.0 L 185.99686274509804 98.0 L 185.99686274509804 99.0 L 185.99686274509804 100.0 L 185.99686274509804 101.0 L 185.99686274509804 102.0 L 185.99686274509804 103.0 L 185.99686274509804 104.0 L 185.99686274509804 105.0 L 185.99686274509804 106.0 L 185.99686274509804 107.0 L 186.0 107.00313725490196 L 186.99686274509804 108.0 L 186.99686274509804 109.0 L 186.99686274509804 110.0 L 186.99686274509804 111.0 L 186.99686274509804 112.0 L 186.99686274509804 113.0 L 186.99686274509804 114.0 L 186.99686274509804 115.0 L 186.99686274509804 116.0 L 186.99686274509804 117.0 L 186.99686274509804 118.0 L 186.99686274509804 119.0 L 186.99686274509804 120.0 L 186.0 120.99686274509804 L 185.99686274509804 121.0 L 185.0 121.99686274509804 L 184.99686274509804 122.0 L 184.0 122.99686274509804 L 183.99686274509804 123.0 L 183.0 123.99686274509804 L 182.99686274509804 124.0 L 182.0 124.99686274509804 L 181.99686274509804 125.0 L 181.0 125.99686274509804 L 180.99686274509804 126.0 L 180.0 126.99686274509804 L 179.99686274509804 127.0 L 179.0 127.99686274509804 L 178.99686274509804 128.0 L 178.0 128.99686274509804 L 177.99686274509804 129.0 L 177.0 129.99686274509804 L 176.99686274509804 130.0 L 176.0 130.99686274509804 L 175.99686274509804 131.0 L 175.99686274509804 132.0 L 175.0 132.99686274509804 L 174.99686274509804 133.0 L 174.0 133.99686274509804 L 173.99686274509804 134.0 L 173.0 134.99686274509804 L 172.99686274509804 135.0 L 172.0 135.99686274509804 L 171.99686274509804 136.0 L 171.0 136.99686274509804 L 170.99686274509804 137.0 L 170.0 137.99686274509804 L 169.99686274509804 138.0 L 169.0 138.99686274509804 L 168.99686274509804 139.0 L 168.0 139.99686274509804 L 167.99686274509804 140.0 L 167.0 140.99686274509804 L 166.99686274509804 141.0 L 166.0 141.99686274509804 L 165.99686274509804 142.0 L 165.0 142.99686274509804 L 164.99686274509804 143.0 L 164.0 143.99686274509804 L 163.99686274509804 144.0 L 163.0 144.99686274509804 L 162.99686274509804 145.0 L 162.0 145.99686274509804 L 161.99686274509804 146.0 L 161.99686274509804 147.0 L 161.0 147.99686274509804 L 160.99686274509804 148.0 L 160.0 148.99686274509804 L 159.99686274509804 149.0 L 159.0 149.99686274509804 L 158.99686274509804 150.0 L 158.0 150.99686274509804 L 157.99686274509804 151.0 L 157.0 151.99686274509804 L 156.99686274509804 152.0 L 156.0 152.99686274509804 L 155.99686274509804 153.0 L 155.0 153.99686274509804 L 154.99686274509804 154.0 L 154.0 154.99686274509804 L 153.99686274509804 155.0 L 153.0 155.99686274509804 L 152.99686274509804 156.0 L 152.0 156.99686274509804 L 151.99686274509804 157.0 L 151.0 157.99686274509804 L 150.99686274509804 158.0 L 150.0 158.99686274509804 L 149.99686274509804 159.0 L 149.0 159.99686274509804 L 148.99686274509804 160.0 L 148.99686274509804 161.0 L 148.0 161.99686274509804 L 147.99686274509804 162.0 L 147.0 162.99686274509804 L 146.99686274509804 163.0 L 146.0 163.99686274509804 L 145.99686274509804 164.0 L 145.0 164.99686274509804 L 144.99686274509804 165.0 L 144.0 165.99686274509804 L 143.99686274509804 166.0 L 143.0 166.99686274509804 L 142.99686274509804 167.0 L 142.0 167.99686274509804 L 141.99686274509804 168.0 L 141.0 168.99686274509804 L 140.99686274509804 169.0 L 140.0 169.99686274509804 L 139.99686274509804 170.0 L 140.0 170.00313725490196 L 141.0 170.00313725490196 L 142.0 170.00313725490196 L 143.0 170.00313725490196 L 144.0 170.00313725490196 L 145.0 170.00313725490196 L 146.0 170.00313725490196 L 146.00313725490196 170.0 Z M 136.00313725490196 170.0 L 137.0 169.00313725490196 L 137.00313725490196 169.0 L 138.0 168.00313725490196 L 138.00313725490196 168.0 L 139.0 167.00313725490196 L 139.00313725490196 167.0 L 140.0 166.00313725490196 L 140.00313725490196 166.0 L 141.0 165.00313725490196 L 141.00313725490196 165.0 L 142.0 164.00313725490196 L 142.00313725490196 164.0 L 143.0 163.00313725490196 L 143.00313725490196 163.0 L 144.0 162.00313725490196 L 144.00313725490196 162.0 L 145.0 161.00313725490196 L 145.00313725490196 161.0 L 146.0 160.00313725490196 L 146.00313725490196 160.0 L 147.0 159.00313725490196 L 147.00313725490196 159.0 L 148.0 158.00313725490196 L 148.00313725490196 158.0 L 149.0 157.00313725490196 L 149.00313725490196 157.0 L 149.00313725490196 156.0 L 150.0 155.00313725490196 L 150.00313725490196 155.0 L 151.0 154.00313725490196 L 151.00313725490196 154.0 L 152.0 153.00313725490196 L 152.00313725490196 153.0 L 153.0 152.00313725490196 L 153.00313725490196 152.0 L 154.0 151.00313725490196 L 154.00313725490196 151.0 L 155.0 150.00313725490196 L 155.00313725490196 150.0 L 156.0 149.00313725490196 L 156.00313725490196 149.0 L 157.0 148.00313725490196 L 157.00313725490196 148.0 L 158.0 147.00313725490196 L 158.00313725490196 147.0 L 159.0 146.00313725490196 L 159.00313725490196 146.0 L 160.0 145.00313725490196 L 160.00313725490196 145.0 L 161.0 144.00313725490196 L 161.00313725490196 144.0 L 162.0 143.00313725490196 L 162.00313725490196 143.0 L 162.00313725490196 142.0 L 163.0 141.00313725490196 L 163.00313725490196 141.0 L 164.0 140.00313725490196 L 164.00313725490196 140.0 L 165.0 139.00313725490196 L 165.00313725490196 139.0 L 166.0 138.00313725490196 L 166.00313725490196 138.0 L 167.0 137.00313725490196 L 167.00313725490196 137.0 L 168.0 136.00313725490196 L 168.00313725490196 136.0 L 169.0 135.00313725490196 L 169.00313725490196 135.0 L 170.0 134.00313725490196 L 170.00313725490196 134.0 L 171.0 133.00313725490196 L 171.00313725490196 133.0 L 172.0 132.00313725490196 L 172.00313725490196 132.0 L 173.0 131.00313725490196 L 173.00313725490196 131.0 L 174.0 130.00313725490196 L 174.00313725490196 130.0 L 175.0 129.00313725490196 L 175.00313725490196 129.0 L 175.00313725490196 128.0 L 176.0 127.00313725490196 L 176.00313725490196 127.0 L 177.0 126.00313725490196 L 177.00313725490196 126.0 L 178.0 125.00313725490196 L 178.00313725490196 125.0 L 179.0 124.00313725490196 L 179.00313725490196 124.0 L 180.0 123.00313725490196 L 180.00313725490196 123.0 L 181.0 122.00313725490196 L 181.00313725490196 122.0 L 182.0 121.00313725490196 L 182.00313725490196 121.0 L 183.0 120.00313725490196 L 183.00313725490196 120.0 L 184.0 119.00313725490196 L 184.00313725490196 119.0 L 184.00313725490196 118.0 L 184.00313725490196 117.0 L 184.00313725490196 116.0 L 184.00313725490196 115.0 L 184.00313725490196 114.0 L 184.00313725490196 113.0 L 184.00313725490196 112.0 L 184.00313725490196 111.0 L 184.00313725490196 110.0 L 184.00313725490196 109.0 L 184.00313725490196 108.0 L 184.0 107.99686274509804 L 183.00313725490196 107.0 L 183.00313725490196 106.0 L 183.00313725490196 105.0 L 183.00313725490196 104.0 L 183.00313725490196 103.0 L 183.00313725490196 102.0 L 183.00313725490196 101.0 L 183.00313725490196 100.0 L 183.00313725490196 99.0 L 183.00313725490196 98.0 L 183.00313725490196 97.0 L 183.0 96.99686274509804 L 182.00313725490196 96.0 L 182.00313725490196 95.0 L 182.00313725490196 94.0 L 182.00313725490196 93.0 L 182.00313725490196 92.0 L 182.00313725490196 91.0 L 182.00313725490196 90.0 L 182.00313725490196 89.0 L 182.00313725490196 88.0 L 182.00313725490196 87.0 L 182.0 86.99686274509804 L 181.00313725490196 86.0 L 181.00313725490196 85.0 L 181.00313725490196 84.0 L 181.00313725490196 83.0 L 181.00313725490196 82.0 L 181.00313725490196 81.0 L 181.00313725490196 80.0 L 181.00313725490196 79.0 L 181.00313725490196 78.0 L 181.00313725490196 77.0 L 181.00313725490196 76.0 L 181.0 75.99686274509804 L 180.00313725490196 75.0 L 180.00313725490196 74.0 L 180.00313725490196 73.0 L 180.00313725490196 72.0 L 180.00313725490196 71.0 L 180.00313725490196 70.0 L 180.00313725490196 69.0 L 180.00313725490196 68.0 L 180.00313725490196 67.0 L 180.00313725490196 66.0 L 180.00313725490196 65.0 L 180.0 64.99686274509804 L 179.00313725490196 64.0 L 179.00313725490196 63.0 L 179.00313725490196 62.0 L 179.00313725490196 61.0 L 179.00313725490196 60.0 L 179.00313725490196 59.0 L 179.00313725490196 58.0 L 179.00313725490196 57.0 L 179.00313725490196 56.0 L 179.00313725490196 55.0 L 179.00313725490196 54.0 L 179.0 53.99686274509804 L 178.00313725490196 53.0 L 178.00313725490196 52.0 L 178.00313725490196 51.0 L 178.00313725490196 50.0 L 178.00313725490196 49.0 L 178.00313725490196 48.0 L 178.00313725490196 47.0 L 178.00313725490196 46.0 L 178.00313725490196 45.0 L 178.00313725490196 44.0 L 178.0 43.99686274509804 L 177.00313725490196 43.0 L 177.00313725490196 42.0 L 177.0 41.99686274509804 L 176.0 41.99686274509804 L 175.00313725490196 41.0 L 175.0 40.99686274509804 L 174.0 40.99686274509804 L 173.0 40.99686274509804 L 172.0 40.99686274509804 L 171.00313725490196 40.0 L 171.0 39.99686274509804 L 170.0 39.99686274509804 L 169.0 39.99686274509804 L 168.0 39.99686274509804 L 167.00313725490196 39.0 L 167.0 38.99686274509804 L 166.0 38.99686274509804 L 165.0 38.99686274509804 L 164.0 38.99686274509804 L 163.0 38.99686274509804 L 162.00313725490196 38.0 L 162.0 37.99686274509804 L 161.0 37.99686274509804 L 160.0 37.99686274509804 L 159.0 37.99686274509804 L 158.00313725490196 37.0 L 158.0 36.99686274509804 L 157.0 36.99686274509804 L 156.0 36.99686274509804 L 155.0 36.99686274509804 L 154.0 36.99686274509804 L 153.00313725490196 36.0 L 153.0 35.99686274509804 L 152.0 35.99686274509804 L 151.0 35.99686274509804 L 150.0 35.99686274509804 L 149.00313725490196 35.0 L 149.0 34.99686274509804 L 148.0 34.99686274509804 L 147.0 34.99686274509804 L 146.0 34.99686274509804 L 145.0 34.99686274509804 L 144.00313725490196 34.0 L 144.0 33.99686274509804 L 143.0 33.99686274509804 L 142.0 33.99686274509804 L 141.0 33.99686274509804 L 140.00313725490196 33.0 L 140.0 32.99686274509804 L 139.0 32.99686274509804 L 138.0 32.99686274509804 L 137.0 32.99686274509804 L 136.0 32.99686274509804 L 135.00313725490196 32.0 L 135.0 31.99686274509804 L 134.0 31.99686274509804 L 133.0 31.99686274509804 L 132.0 31.99686274509804 L 131.00313725490196 31.0 L 131.0 30.99686274509804 L 130.0 30.99686274509804 L 129.0 30.99686274509804 L 128.0 30.99686274509804 L 127.0 30.99686274509804 L 126.00313725490196 30.0 L 126.0 29.99686274509804 L 125.0 29.99686274509804 L 124.0 29.99686274509804 L 123.0 29.99686274509804 L 122.00313725490196 29.0 L 122.0 28.99686274509804 L 121.0 28.99686274509804 L 120.0 28.99686274509804 L 119.0 28.99686274509804 L 118.00313725490196 28.0 L 118.0 27.99686274509804 L 117.0 27.99686274509804 L 116.0 27.99686274509804 L 115.0 27.99686274509804 L 114.0 27.99686274509804 L 113.00313725490196 27.0 L 113.0 26.99686274509804 L 112.0 26.99686274509804 L 111.0 26.99686274509804 L 110.0 26.99686274509804 L 109.00313725490196 26.0 L 109.0 25.99686274509804 L 108.0 25.99686274509804 L 107.0 25.99686274509804 L 106.0 25.99686274509804 L 105.0 25.99686274509804 L 104.00313725490196 25.0 L 104.0 24.99686274509804 L 103.0 24.99686274509804 L 102.0 24.99686274509804 L 101.0 24.99686274509804 L 100.00313725490196 24.0 L 100.0 23.99686274509804 L 99.0 23.99686274509804 L 98.0 23.99686274509804 L 97.0 23.99686274509804 L 96.0 23.99686274509804 L 95.00313725490196 23.0 L 95.0 22.99686274509804 L 94.0 22.99686274509804 L 93.0 22.99686274509804 L 92.0 22.99686274509804 L 91.00313725490196 22.0 L 91.0 21.99686274509804 L 90.0 21.99686274509804 L 89.0 21.99686274509804 L 88.0 21.99686274509804 L 87.0 21.99686274509804 L 86.00313725490196 21.0 L 86.0 20.99686274509804 L 85.0 20.99686274509804 L 84.99686274509804 21.0 L 84.0 21.99686274509804 L 83.0 21.99686274509804 L 82.99686274509804 22.0 L 82.0 22.99686274509804 L 81.0 22.99686274509804 L 80.99686274509804 23.0 L 80.0 23.99686274509804 L 79.0 23.99686274509804 L 78.99686274509804 24.0 L 78.0 24.99686274509804 L 77.0 24.99686274509804 L 76.99686274509804 25.0 L 76.0 25.99686274509804 L 75.0 25.99686274509804 L 74.99686274509804 26.0 L 74.0 26.99686274509804 L 73.0 26.99686274509804 L 72.99686274509804 27.0 L 72.0 27.99686274509804 L 71.0 27.99686274509804 L 70.99686274509804 28.0 L 70.0 28.99686274509804 L 69.0 28.99686274509804 L 68.99686274509804 29.0 L 68.0 29.99686274509804 L 67.0 29.99686274509804 L 66.99686274509804 30.0 L 66.0 30.99686274509804 L 65.0 30.99686274509804 L 64.99686274509804 31.0 L 64.0 31.99686274509804 L 63.0 31.99686274509804 L 62.99686274509804 32.0 L 62.0 32.99686274509804 L 61.0 32.99686274509804 L 60.99686274509804 33.0 L 60.0 33.99686274509804 L 59.0 33.99686274509804 L 58.99686274509804 34.0 L 58.0 34.99686274509804 L 57.0 34.99686274509804 L 56.99686274509804 35.0 L 56.0 35.99686274509804 L 55.0 35.99686274509804 L 54.99686274509804 36.0 L 54.0 36.99686274509804 L 53.0 36.99686274509804 L 52.99686274509804 37.0 L 52.0 37.99686274509804 L 51.0 37.99686274509804 L 50.99686274509804 38.0 L 50.0 38.99686274509804 L 49.0 38.99686274509804 L 48.99686274509804 39.0 L 48.0 39.99686274509804 L 47.0 39.99686274509804 L 46.99686274509804 40.0 L 46.0 40.99686274509804 L 45.0 40.99686274509804 L 44.99686274509804 41.0 L 44.0 41.99686274509804 L 43.0 41.99686274509804 L 42.99686274509804 42.0 L 42.0 42.99686274509804 L 41.99686274509804 43.0 L 41.99686274509804 44.0 L 41.0 44.99686274509804 L 40.99686274509804 45.0 L 40.99686274509804 46.0 L 40.99686274509804 47.0 L 40.99686274509804 48.0 L 40.99686274509804 49.0 L 40.0 49.99686274509804 L 39.99686274509804 50.0 L 39.99686274509804 51.0 L 39.99686274509804 52.0 L 39.99686274509804 53.0 L 39.99686274509804 54.0 L 39.0 54.99686274509804 L 38.99686274509804 55.0 L 38.99686274509804 56.0 L 38.99686274509804 57.0 L 38.99686274509804 58.0 L 38.99686274509804 59.0 L 38.0 59.99686274509804 L 37.99686274509804 60.0 L 37.99686274509804 61.0 L 37.99686274509804 62.0 L 37.99686274509804 63.0 L 37.99686274509804 64.0 L 37.99686274509804 65.0 L 37.99686274509804 66.0 L 37.0 66.99686274509804 L 36.99686274509804 67.0 L 36.99686274509804 68.0 L 36.99686274509804 69.0 L 36.99686274509804 70.0 L 36.99686274509804 71.0 L 36.99686274509804 72.0 L 36.99686274509804 73.0 L 36.0 73.99686274509804 L 35.99686274509804 74.0 L 35.99686274509804 75.0 L 35.99686274509804 76.0 L 35.99686274509804 77.0 L 35.99686274509804 78.0 L 35.99686274509804 79.0 L 35.99686274509804 80.0 L 35.99686274509804 81.0 L 35.99686274509804 82.0 L 35.0 82.99686274509804 L 34.99686274509804 83.0 L 34.99686274509804 84.0 L 34.99686274509804 85.0 L 34.99686274509804 86.0 L 34.99686274509804 87.0 L 34.99686274509804 88.0 L 34.99686274509804 89.0 L 34.99686274509804 90.0 L 34.99686274509804 91.0 L 34.99686274509804 92.0 L 34.99686274509804 93.0 L 34.99686274509804 94.0 L 34.99686274509804 95.0 L 34.99686274509804 96.0 L 34.99686274509804 97.0 L 34.99686274509804 98.0 L 34.0 98.99686274509804 L 33.99686274509804 99.0 L 33.99686274509804 100.0 L 33.99686274509804 101.0 L 34.0 101.00313725490196 L 34.99686274509804 102.0 L 34.99686274509804 103.0 L 34.99686274509804 104.0 L 34.99686274509804 105.0 L 34.99686274509804 106.0 L 34.99686274509804 107.0 L 34.99686274509804 108.0 L 34.99686274509804 109.0 L 34.99686274509804 110.0 L 34.99686274509804 111.0 L 34.99686274509804 112.0 L 35.0 112.00313725490196 L 35.99686274509804 113.0 L 35.99686274509804 114.0 L 35.99686274509804 115.0 L 35.99686274509804 116.0 L 35.99686274509804 117.0 L 36.0 117.00313725490196 L 36.99686274509804 118.0 L 36.99686274509804 119.0 L 36.99686274509804 120.0 L 36.99686274509804 121.0 L 37.0 121.00313725490196 L 37.99686274509804 122.0 L 37.99686274509804 123.0 L 37.99686274509804 124.0 L 38.0 124.00313725490196 L 38.99686274509804 125.0 L 38.99686274509804 126.0 L 38.99686274509804 127.0 L 39.0 127.00313725490196 L 39.99686274509804 128.0 L 39.99686274509804 129.0 L 40.0 129.00313725490196 L 40.99686274509804 130.0 L 40.99686274509804 131.0 L 40.99686274509804 132.0 L 41.0 132.00313725490196 L 41.99686274509804 133.0 L 42.0 133.00313725490196 L 42.99686274509804 134.0 L 42.99686274509804 135.0 L 43.0 135.00313725490196 L 43.99686274509804 136.0 L 44.0 136.00313725490196 L 44.99686274509804 137.0 L 45.0 137.00313725490196 L 45.99686274509804 138.0 L 46.0 138.00313725490196 L 47.0 138.00313725490196 L 47.99686274509804 139.0 L 48.0 139.00313725490196 L 48.99686274509804 140.0 L 49.0 140.00313725490196 L 50.0 140.00313725490196 L 50.99686274509804 141.0 L 51.0 141.00313725490196 L 51.99686274509804 142.0 L 52.0 142.00313725490196 L 53.0 142.00313725490196 L 53.99686274509804 143.0 L 54.0 143.00313725490196 L 55.0 143.00313725490196 L 55.99686274509804 144.0 L 56.0 144.00313725490196 L 57.0 144.00313725490196 L 57.99686274509804 145.0 L 58.0 145.00313725490196 L 59.0 145.00313725490196 L 59.99686274509804 146.0 L 60.0 146.00313725490196 L 60.99686274509804 147.0 L 61.0 147.00313725490196 L 62.0 147.00313725490196 L 62.99686274509804 148.0 L 63.0 148.00313725490196 L 64.0 148.00313725490196 L 64.99686274509804 149.0 L 65.0 149.00313725490196 L 66.0 149.00313725490196 L 66.99686274509804 150.0 L 67.0 150.00313725490196 L 68.0 150.00313725490196 L 69.0 150.00313725490196 L 69.99686274509804 151.0 L 70.0 151.00313725490196 L 71.0 151.00313725490196 L 71.99686274509804 152.0 L 72.0 152.00313725490196 L 73.0 152.00313725490196 L 73.99686274509804 153.0 L 74.0 153.00313725490196 L 75.0 153.00313725490196 L 75.99686274509804 154.0 L 76.0 154.00313725490196 L 77.0 154.00313725490196 L 77.99686274509804 155.0 L 78.0 155.00313725490196 L 79.0 155.00313725490196 L 80.0 155.00313725490196 L 80.99686274509804 156.0 L 81.0 156.00313725490196 L 82.0 156.00313725490196 L 82.99686274509804 157.0 L 83.0 157.00313725490196 L 84.0 157.00313725490196 L 85.0 157.00313725490196 L 85.99686274509804 158.0 L 86.0 158.00313725490196 L 87.0 158.00313725490196 L 88.0 158.00313725490196 L 88.99686274509804 159.0 L 89.0 159.00313725490196 L 90.0 159.00313725490196 L 90.99686274509804 160.0 L 91.0 160.00313725490196 L 92.0 160.00313725490196 L 93.0 160.00313725490196 L 93.99686274509804 161.0 L 94.0 161.00313725490196 L 95.0 161.00313725490196 L 96.0 161.00313725490196 L 96.99686274509804 162.0 L 97.0 162.00313725490196 L 98.0 162.00313725490196 L 99.0 162.00313725490196 L 99.99686274509804 163.0 L 100.0 163.00313725490196 L 101.0 163.00313725490196 L 102.0 163.00313725490196 L 102.99686274509804 164.0 L 103.0 164.00313725490196 L 104.0 164.00313725490196 L 105.0 164.00313725490196 L 105.99686274509804 165.0 L 106.0 165.00313725490196 L 107.0 165.00313725490196 L 108.0 165.00313725490196 L 109.0 165.00313725490196 L 109.99686274509804 166.0 L 110.0 166.00313725490196 L 111.0 166.00313725490196 L 112.0 166.00313725490196 L 113.0 166.00313725490196 L 113.99686274509804 167.0 L 114.0 167.00313725490196 L 115.0 167.00313725490196 L 116.0 167.00313725490196 L 117.0 167.00313725490196 L 117.99686274509804 168.0 L 118.0 168.00313725490196 L 119.0 168.00313725490196 L 120.0 168.00313725490196 L 121.0 168.00313725490196 L 121.99686274509804 169.0 L 122.0 169.00313725490196 L 123.0 169.00313725490196 L 124.0 169.00313725490196 L 125.0 169.00313725490196 L 126.0 169.00313725490196 L 127.0 169.00313725490196 L 127.99686274509804 170.0 L 128.0 170.00313725490196 L 129.0 170.00313725490196 L 130.0 170.00313725490196 L 131.0 170.00313725490196 L 132.0 170.00313725490196 L 133.0 170.00313725490196 L 134.0 170.00313725490196 L 135.0 170.00313725490196 L 136.0 170.00313725490196 L 136.00313725490196 170.0 Z M 128.00313725490196 179.0 L 129.0 178.00313725490196 L 129.00313725490196 178.0 L 130.0 177.00313725490196 L 130.00313725490196 177.0 L 131.0 176.00313725490196 L 131.00313725490196 176.0 L 132.0 175.00313725490196 L 132.00313725490196 175.0 L 133.0 174.00313725490196 L 133.00313725490196 174.0 L 133.00313725490196 173.0 L 133.0 172.99686274509804 L 132.0 172.99686274509804 L 131.0 172.99686274509804 L 130.0 172.99686274509804 L 129.0 172.99686274509804 L 128.0 172.99686274509804 L 127.00313725490196 172.0 L 127.0 171.99686274509804 L 126.0 171.99686274509804 L 125.0 171.99686274509804 L 124.0 171.99686274509804 L 123.0 171.99686274509804 L 122.0 171.99686274509804 L 121.00313725490196 171.0 L 121.0 170.99686274509804 L 120.0 170.99686274509804 L 119.0 170.99686274509804 L 118.0 170.99686274509804 L 117.0 170.99686274509804 L 116.00313725490196 170.0 L 116.0 169.99686274509804 L 115.0 169.99686274509804 L 114.0 169.99686274509804 L 113.0 169.99686274509804 L 112.00313725490196 169.0 L 112.0 168.99686274509804 L 111.0 168.99686274509804 L 110.0 168.99686274509804 L 109.0 168.99686274509804 L 108.00313725490196 168.0 L 108.0 167.99686274509804 L 107.0 167.99686274509804 L 106.0 167.99686274509804 L 105.00313725490196 167.0 L 105.0 166.99686274509804 L 104.0 166.99686274509804 L 103.0 166.99686274509804 L 102.00313725490196 166.0 L 102.0 165.99686274509804 L 101.0 165.99686274509804 L 100.0 165.99686274509804 L 99.00313725490196 165.0 L 99.0 164.99686274509804 L 98.0 164.99686274509804 L 97.0 164.99686274509804 L 96.00313725490196 164.0 L 96.0 163.99686274509804 L 95.0 163.99686274509804 L 94.0 163.99686274509804 L 93.00313725490196 163.0 L 93.0 162.99686274509804 L 92.0 162.99686274509804 L 91.0 162.99686274509804 L 90.00313725490196 162.0 L 90.0 161.99686274509804 L 89.0 161.99686274509804 L 88.0 161.99686274509804 L 87.00313725490196 161.0 L 87.0 160.99686274509804 L 86.0 160.99686274509804 L 85.00313725490196 160.0 L 85.0 159.99686274509804 L 84.0 159.99686274509804 L 83.0 159.99686274509804 L 82.00313725490196 159.0 L 82.0 158.99686274509804 L 81.0 158.99686274509804 L 80.00313725490196 158.0 L 80.0 157.99686274509804 L 79.0 157.99686274509804 L 78.0 157.99686274509804 L 77.00313725490196 157.0 L 77.0 156.99686274509804 L 76.0 156.99686274509804 L 75.00313725490196 156.0 L 75.0 155.99686274509804 L 74.0 155.99686274509804 L 73.0 155.99686274509804 L 72.00313725490196 155.0 L 72.0 154.99686274509804 L 71.0 154.99686274509804 L 70.00313725490196 154.0 L 70.0 153.99686274509804 L 69.0 153.99686274509804 L 68.00313725490196 153.0 L 68.0 152.99686274509804 L 67.0 152.99686274509804 L 66.00313725490196 152.0 L 66.0 151.99686274509804 L 65.0 151.99686274509804 L 64.00313725490196 151.0 L 64.0 150.99686274509804 L 63.0 150.99686274509804 L 62.00313725490196 150.0 L 62.0 149.99686274509804 L 61.0 149.99686274509804 L 60.00313725490196 149.0 L 60.0 148.99686274509804 L 59.0 148.99686274509804 L 58.00313725490196 148.0 L 58.0 147.99686274509804 L 57.0 147.99686274509804 L 56.00313725490196 147.0 L 56.0 146.99686274509804 L 55.0 146.99686274509804 L 54.00313725490196 146.0 L 54.0 145.99686274509804 L 53.00313725490196 145.0 L 53.0 144.99686274509804 L 52.0 144.99686274509804 L 51.00313725490196 144.0 L 51.0 143.99686274509804 L 50.0 143.99686274509804 L 49.00313725490196 143.0 L 49.0 142.99686274509804 L 48.00313725490196 142.0 L 48.0 141.99686274509804 L 47.0 141.99686274509804 L 46.00313725490196 141.0 L 46.0 140.99686274509804 L 45.00313725490196 140.0 L 45.0 139.99686274509804 L 44.0 139.99686274509804 L 43.00313725490196 139.0 L 43.0 138.99686274509804 L 42.00313725490196 138.0 L 42.0 137.99686274509804 L 41.00313725490196 137.0 L 41.00313725490196 136.0 L 41.0 135.99686274509804 L 40.00313725490196 135.0 L 40.0 134.99686274509804 L 39.00313725490196 134.0 L 39.00313725490196 133.0 L 39.0 132.99686274509804 L 38.00313725490196 132.0 L 38.0 131.99686274509804 L 37.00313725490196 131.0 L 37.00313725490196 130.0 L 37.00313725490196 129.0 L 37.0 128.99686274509804 L 36.00313725490196 128.0 L 36.00313725490196 127.0 L 36.0 126.99686274509804 L 35.00313725490196 126.0 L 35.00313725490196 125.0 L 35.00313725490196 124.0 L 35.0 123.99686274509804 L 34.00313725490196 123.0 L 34.00313725490196 122.0 L 34.00313725490196 121.0 L 34.00313725490196 120.0 L 34.0 119.99686274509804 L 33.00313725490196 119.0 L 33.00313725490196 118.0 L 33.00313725490196 117.0 L 33.00313725490196 116.0 L 33.0 115.99686274509804 L 32.00313725490196 115.0 L 32.00313725490196 114.0 L 32.00313725490196 113.0 L 32.00313725490196 112.0 L 32.00313725490196 111.0 L 32.00313725490196 110.0 L 32.00313725490196 109.0 L 32.0 108.99686274509804 L 31.00313725490196 108.0 L 31.00313725490196 107.0 L 31.00313725490196 106.0 L 31.00313725490196 105.0 L 31.00313725490196 104.0 L 31.00313725490196 103.0 L 31.00313725490196 102.0 L 31.00313725490196 101.0 L 31.00313725490196 100.0 L 31.00313725490196 99.0 L 31.00313725490196 98.0 L 31.00313725490196 97.0 L 31.00313725490196 96.0 L 31.00313725490196 95.0 L 31.00313725490196 94.0 L 31.00313725490196 93.0 L 31.00313725490196 92.0 L 31.00313725490196 91.0 L 31.00313725490196 90.0 L 32.0 89.00313725490196 L 32.00313725490196 89.0 L 32.00313725490196 88.0 L 32.00313725490196 87.0 L 32.00313725490196 86.0 L 32.00313725490196 85.0 L 32.00313725490196 84.0 L 32.00313725490196 83.0 L 32.00313725490196 82.0 L 32.00313725490196 81.0 L 32.00313725490196 80.0 L 32.00313725490196 79.0 L 33.0 78.00313725490196 L 33.00313725490196 78.0 L 33.00313725490196 77.0 L 33.00313725490196 76.0 L 33.00313725490196 75.0 L 33.00313725490196 74.0 L 33.00313725490196 73.0 L 33.00313725490196 72.0 L 33.00313725490196 71.0 L 33.00313725490196 70.0 L 34.0 69.00313725490196 L 34.00313725490196 69.0 L 34.00313725490196 68.0 L 34.00313725490196 67.0 L 34.00313725490196 66.0 L 34.00313725490196 65.0 L 34.00313725490196 64.0 L 35.0 63.00313725490196 L 35.00313725490196 63.0 L 35.00313725490196 62.0 L 35.00313725490196 61.0 L 35.00313725490196 60.0 L 35.00313725490196 59.0 L 35.00313725490196 58.0 L 36.0 57.00313725490196 L 36.00313725490196 57.0 L 36.00313725490196 56.0 L 36.00313725490196 55.0 L 36.00313725490196 54.0 L 36.00313725490196 53.0 L 36.00313725490196 52.0 L 37.0 51.00313725490196 L 37.00313725490196 51.0 L 37.00313725490196 50.0 L 37.00313725490196 49.0 L 37.00313725490196 48.0 L 37.00313725490196 47.0 L 38.0 46.00313725490196 L 38.00313725490196 46.0 L 38.00313725490196 45.0 L 38.0 44.99686274509804 L 37.0 44.99686274509804 L 36.99686274509804 45.0 L 36.0 45.99686274509804 L 35.0 45.99686274509804 L 34.99686274509804 46.0 L 34.0 46.99686274509804 L 33.0 46.99686274509804 L 32.99686274509804 47.0 L 32.0 47.99686274509804 L 31.0 47.99686274509804 L 30.99686274509804 48.0 L 30.0 48.99686274509804 L 29.0 48.99686274509804 L 28.99686274509804 49.0 L 28.0 49.99686274509804 L 27.0 49.99686274509804 L 26.99686274509804 50.0 L 26.0 50.99686274509804 L 25.0 50.99686274509804 L 24.99686274509804 51.0 L 24.0 51.99686274509804 L 23.0 51.99686274509804 L 22.99686274509804 52.0 L 22.0 52.99686274509804 L 21.0 52.99686274509804 L 20.99686274509804 53.0 L 20.0 53.99686274509804 L 19.0 53.99686274509804 L 18.99686274509804 54.0 L 18.0 54.99686274509804 L 17.0 54.99686274509804 L 16.99686274509804 55.0 L 16.0 55.99686274509804 L 15.0 55.99686274509804 L 14.996862745098039 56.0 L 14.0 56.99686274509804 L 13.0 56.99686274509804 L 12.996862745098039 57.0 L 12.0 57.99686274509804 L 11.0 57.99686274509804 L 10.996862745098039 58.0 L 10.0 58.99686274509804 L 9.0 58.99686274509804 L 8.996862745098039 59.0 L 8.0 59.99686274509804 L 7.0 59.99686274509804 L 6.996862745098039 60.0 L 6.0 60.99686274509804 L 5.0 60.99686274509804 L 4.996862745098039 61.0 L 4.0 61.99686274509804 L 3.0 61.99686274509804 L 2.9968627450980394 62.0 L 2.9968627450980394 63.0 L 2.9968627450980394 64.0 L 3.0 64.00313725490196 L 3.9968627450980394 65.0 L 3.9968627450980394 66.0 L 3.9968627450980394 67.0 L 4.0 67.00313725490196 L 4.996862745098039 68.0 L 4.996862745098039 69.0 L 4.996862745098039 70.0 L 5.0 70.00313725490196 L 5.996862745098039 71.0 L 5.996862745098039 72.0 L 6.0 72.00313725490196 L 6.996862745098039 73.0 L 6.996862745098039 74.0 L 6.996862745098039 75.0 L 7.0 75.00313725490196 L 7.996862745098039 76.0 L 7.996862745098039 77.0 L 7.996862745098039 78.0 L 8.0 78.00313725490196 L 8.996862745098039 79.0 L 8.996862745098039 80.0 L 9.0 80.00313725490196 L 9.996862745098039 81.0 L 9.996862745098039 82.0 L 9.996862745098039 83.0 L 10.0 83.00313725490196 L 10.996862745098039 84.0 L 10.996862745098039 85.0 L 10.996862745098039 86.0 L 11.0 86.00313725490196 L 11.996862745098039 87.0 L 11.996862745098039 88.0 L 12.0 88.00313725490196 L 12.996862745098039 89.0 L 12.996862745098039 90.0 L 12.996862745098039 91.0 L 13.0 91.00313725490196 L 13.996862745098039 92.0 L 13.996862745098039 93.0 L 14.0 93.00313725490196 L 14.996862745098039 94.0 L 14.996862745098039 95.0 L 14.996862745098039 96.0 L 15.0 96.00313725490196 L 15.996862745098039 97.0 L 15.996862745098039 98.0 L 15.996862745098039 99.0 L 16.0 99.00313725490196 L 16.99686274509804 100.0 L 16.99686274509804 101.0 L 17.0 101.00313725490196 L 17.99686274509804 102.0 L 17.99686274509804 103.0 L 17.99686274509804 104.0 L 18.0 104.00313725490196 L 18.99686274509804 105.0 L 18.99686274509804 106.0 L 18.99686274509804 107.0 L 19.0 107.00313725490196 L 19.99686274509804 108.0 L 19.99686274509804 109.0 L 20.0 109.00313725490196 L 20.99686274509804 110.0 L 20.99686274509804 111.0 L 20.99686274509804 112.0 L 21.0 112.00313725490196 L 21.99686274509804 113.0 L 21.99686274509804 114.0 L 21.99686274509804 115.0 L 22.0 115.00313725490196 L 22.99686274509804 116.0 L 22.99686274509804 117.0 L 23.0 117.00313725490196 L 23.99686274509804 118.0 L 23.99686274509804 119.0 L 23.99686274509804 120.0 L 24.0 120.00313725490196 L 24.99686274509804 121.0 L 24.99686274509804 122.0 L 25.0 122.00313725490196 L 25.99686274509804 123.0 L 25.99686274509804 124.0 L 25.99686274509804 125.0 L 26.0 125.00313725490196 L 26.99686274509804 126.0 L 26.99686274509804 127.0 L 26.99686274509804 128.0 L 27.0 128.00313725490196 L 27.99686274509804 129.0 L 27.99686274509804 130.0 L 28.0 130.00313725490196 L 28.99686274509804 131.0 L 28.99686274509804 132.0 L 28.99686274509804 133.0 L 29.0 133.00313725490196 L 29.99686274509804 134.0 L 29.99686274509804 135.0 L 29.99686274509804 136.0 L 30.0 136.00313725490196 L 30.99686274509804 137.0 L 30.99686274509804 138.0 L 31.0 138.00313725490196 L 31.99686274509804 139.0 L 31.99686274509804 140.0 L 31.99686274509804 141.0 L 32.0 141.00313725490196 L 32.99686274509804 142.0 L 32.99686274509804 143.0 L 32.99686274509804 144.0 L 33.0 144.00313725490196 L 33.99686274509804 145.0 L 33.99686274509804 146.0 L 34.0 146.00313725490196 L 34.99686274509804 147.0 L 34.99686274509804 148.0 L 34.99686274509804 149.0 L 35.0 149.00313725490196 L 35.99686274509804 150.0 L 35.99686274509804 151.0 L 35.99686274509804 152.0 L 36.0 152.00313725490196 L 36.99686274509804 153.0 L 36.99686274509804 154.0 L 37.0 154.00313725490196 L 37.99686274509804 155.0 L 37.99686274509804 156.0 L 37.99686274509804 157.0 L 38.0 157.00313725490196 L 38.99686274509804 158.0 L 38.99686274509804 159.0 L 39.0 159.00313725490196 L 39.99686274509804 160.0 L 39.99686274509804 161.0 L 39.99686274509804 162.0 L 40.0 162.00313725490196 L 40.99686274509804 163.0 L 40.99686274509804 164.0 L 40.99686274509804 165.0 L 41.0 165.00313725490196 L 41.99686274509804 166.0 L 41.99686274509804 167.0 L 42.0 167.00313725490196 L 42.99686274509804 168.0 L 43.0 168.00313725490196 L 44.0 168.00313725490196 L 45.0 168.00313725490196 L 46.0 168.00313725490196 L 47.0 168.00313725490196 L 48.0 168.00313725490196 L 48.99686274509804 169.0 L 49.0 169.00313725490196 L 50.0 169.00313725490196 L 51.0 169.00313725490196 L 52.0 169.00313725490196 L 53.0 169.00313725490196 L 54.0 169.00313725490196 L 55.0 169.00313725490196 L 55.99686274509804 170.0 L 56.0 170.00313725490196 L 57.0 170.00313725490196 L 58.0 170.00313725490196 L 59.0 170.00313725490196 L 60.0 170.00313725490196 L 61.0 170.00313725490196 L 62.0 170.00313725490196 L 63.0 170.00313725490196 L 63.99686274509804 171.0 L 64.0 171.00313725490196 L 65.0 171.00313725490196 L 66.0 171.00313725490196 L 67.0 171.00313725490196 L 68.0 171.00313725490196 L 69.0 171.00313725490196 L 70.0 171.00313725490196 L 71.0 171.00313725490196 L 71.99686274509804 172.0 L 72.0 172.00313725490196 L 73.0 172.00313725490196 L 74.0 172.00313725490196 L 75.0 172.00313725490196 L 76.0 172.00313725490196 L 77.0 172.00313725490196 L 78.0 172.00313725490196 L 78.99686274509804 173.0 L 79.0 173.00313725490196 L 80.0 173.00313725490196 L 81.0 173.00313725490196 L 82.0 173.00313725490196 L 83.0 173.00313725490196 L 84.0 173.00313725490196 L 85.0 173.00313725490196 L 86.0 173.00313725490196 L 86.99686274509804 174.0 L 87.0 174.00313725490196 L 88.0 174.00313725490196 L 89.0 174.00313725490196 L 90.0 174.00313725490196 L 91.0 174.00313725490196 L 92.0 174.00313725490196 L 93.0 174.00313725490196 L 94.0 174.00313725490196 L 94.99686274509804 175.0 L 95.0 175.00313725490196 L 96.0 175.00313725490196 L 97.0 175.00313725490196 L 98.0 175.00313725490196 L 99.0 175.00313725490196 L 100.0 175.00313725490196 L 101.0 175.00313725490196 L 102.0 175.00313725490196 L 102.99686274509804 176.0 L 103.0 176.00313725490196 L 104.0 176.00313725490196 L 105.0 176.00313725490196 L 106.0 176.00313725490196 L 107.0 176.00313725490196 L 108.0 176.00313725490196 L 109.0 176.00313725490196 L 109.99686274509804 177.0 L 110.0 177.00313725490196 L 111.0 177.00313725490196 L 112.0 177.00313725490196 L 113.0 177.00313725490196 L 114.0 177.00313725490196 L 115.0 177.00313725490196 L 116.0 177.00313725490196 L 117.0 177.00313725490196 L 117.99686274509804 178.0 L 118.0 178.00313725490196 L 119.0 178.00313725490196 L 120.0 178.00313725490196 L 121.0 178.00313725490196 L 122.0 178.00313725490196 L 123.0 178.00313725490196 L 124.0 178.00313725490196 L 125.0 178.00313725490196 L 125.99686274509804 179.0 L 126.0 179.00313725490196 L 127.0 179.00313725490196 L 128.0 179.00313725490196 L 128.00313725490196 179.0 Z M 166.0 67.99686274509804 L 165.0 67.99686274509804 L 164.0 67.99686274509804 L 163.0 67.99686274509804 L 162.0 67.99686274509804 L 161.0 67.99686274509804 L 160.00313725490196 67.0 L 160.0 66.99686274509804 L 159.0 66.99686274509804 L 158.00313725490196 66.0 L 158.0 65.99686274509804 L 157.00313725490196 65.0 L 157.00313725490196 64.0 L 157.0 63.99686274509804 L 156.00313725490196 63.0 L 156.00313725490196 62.0 L 156.00313725490196 61.0 L 156.00313725490196 60.0 L 156.00313725490196 59.0 L 156.00313725490196 58.0 L 157.0 57.00313725490196 L 157.00313725490196 57.0 L 158.0 56.00313725490196 L 158.00313725490196 56.0 L 159.0 55.00313725490196 L 159.00313725490196 55.0 L 160.0 54.00313725490196 L 161.0 54.00313725490196 L 162.0 54.00313725490196 L 162.00313725490196 54.0 L 163.0 53.00313725490196 L 164.0 53.00313725490196 L 165.0 53.00313725490196 L 165.99686274509804 54.0 L 166.0 54.00313725490196 L 167.0 54.00313725490196 L 168.0 54.00313725490196 L 168.99686274509804 55.0 L 169.0 55.00313725490196 L 169.99686274509804 56.0 L 170.0 56.00313725490196 L 170.99686274509804 57.0 L 170.99686274509804 58.0 L 171.0 58.00313725490196 L 171.99686274509804 59.0 L 171.99686274509804 60.0 L 171.99686274509804 61.0 L 171.99686274509804 62.0 L 171.0 62.99686274509804 L 170.99686274509804 63.0 L 170.99686274509804 64.0 L 170.0 64.99686274509804 L 169.99686274509804 65.0 L 169.0 65.99686274509804 L 168.99686274509804 66.0 L 168.0 66.99686274509804 L 167.0 66.99686274509804 L 166.99686274509804 67.0 L 166.0 67.99686274509804 Z M 83.0 128.99686274509804 L 82.0 128.99686274509804 L 81.0 128.99686274509804 L 80.0 128.99686274509804 L 79.0 128.99686274509804 L 78.0 128.99686274509804 L 77.0 128.99686274509804 L 76.0 128.99686274509804 L 75.0 128.99686274509804 L 74.0 128.99686274509804 L 73.0 128.99686274509804 L 72.0 128.99686274509804 L 71.0 128.99686274509804 L 70.0 128.99686274509804 L 69.0 128.99686274509804 L 68.00313725490196 128.0 L 68.0 127.99686274509804 L 67.0 127.99686274509804 L 66.0 127.99686274509804 L 65.00313725490196 127.0 L 65.0 126.99686274509804 L 64.0 126.99686274509804 L 63.0 126.99686274509804 L 62.00313725490196 126.0 L 62.0 125.99686274509804 L 61.0 125.99686274509804 L 60.00313725490196 125.0 L 60.0 124.99686274509804 L 59.0 124.99686274509804 L 58.00313725490196 124.0 L 58.0 123.99686274509804 L 57.0 123.99686274509804 L 56.00313725490196 123.0 L 56.0 122.99686274509804 L 55.00313725490196 122.0 L 55.0 121.99686274509804 L 54.00313725490196 121.0 L 54.0 120.99686274509804 L 53.00313725490196 120.0 L 53.0 119.99686274509804 L 52.00313725490196 119.0 L 52.00313725490196 118.0 L 53.0 117.00313725490196 L 53.00313725490196 117.0 L 54.0 116.00313725490196 L 54.00313725490196 116.0 L 54.00313725490196 115.0 L 55.0 114.00313725490196 L 55.00313725490196 114.0 L 56.0 113.00313725490196 L 56.00313725490196 113.0 L 57.0 112.00313725490196 L 57.00313725490196 112.0 L 58.0 111.00313725490196 L 58.00313725490196 111.0 L 59.0 110.00313725490196 L 59.99686274509804 111.0 L 60.0 111.00313725490196 L 60.99686274509804 112.0 L 61.0 112.00313725490196 L 62.0 112.00313725490196 L 62.99686274509804 113.0 L 63.0 113.00313725490196 L 63.99686274509804 114.0 L 64.0 114.00313725490196 L 65.0 114.00313725490196 L 65.99686274509804 115.0 L 66.0 115.00313725490196 L 67.0 115.00313725490196 L 67.99686274509804 116.0 L 68.0 116.00313725490196 L 69.0 116.00313725490196 L 69.99686274509804 117.0 L 70.0 117.00313725490196 L 71.0 117.00313725490196 L 72.0 117.00313725490196 L 73.0 117.00313725490196 L 74.0 117.00313725490196 L 74.99686274509804 118.0 L 75.0 118.00313725490196 L 76.0 118.00313725490196 L 77.0 118.00313725490196 L 78.0 118.00313725490196 L 78.00313725490196 118.0 L 79.0 117.00313725490196 L 80.0 117.00313725490196 L 81.0 117.00313725490196 L 82.0 117.00313725490196 L 82.00313725490196 117.0 L 83.0 116.00313725490196 L 84.0 116.00313725490196 L 84.00313725490196 116.0 L 85.0 115.00313725490196 L 85.00313725490196 115.0 L 86.0 114.00313725490196 L 86.00313725490196 114.0 L 87.0 113.00313725490196 L 87.00313725490196 113.0 L 87.00313725490196 112.0 L 88.0 111.00313725490196 L 88.00313725490196 111.0 L 88.00313725490196 110.0 L 88.00313725490196 109.0 L 88.00313725490196 108.0 L 88.0 107.99686274509804 L 87.00313725490196 107.0 L 87.00313725490196 106.0 L 87.0 105.99686274509804 L 86.00313725490196 105.0 L 86.0 104.99686274509804 L 85.00313725490196 104.0 L 85.0 103.99686274509804 L 84.00313725490196 103.0 L 84.0 102.99686274509804 L 83.0 102.99686274509804 L 82.00313725490196 102.0 L 82.0 101.99686274509804 L 81.0 101.99686274509804 L 80.00313725490196 101.0 L 80.0 100.99686274509804 L 79.0 100.99686274509804 L 78.00313725490196 100.0 L 78.0 99.99686274509804 L 77.0 99.99686274509804 L 76.00313725490196 99.0 L 76.0 98.99686274509804 L 75.0 98.99686274509804 L 74.0 98.99686274509804 L 73.00313725490196 98.0 L 73.0 97.99686274509804 L 72.0 97.99686274509804 L 71.00313725490196 97.0 L 71.0 96.99686274509804 L 70.0 96.99686274509804 L 69.00313725490196 96.0 L 69.0 95.99686274509804 L 68.0 95.99686274509804 L 67.00313725490196 95.0 L 67.0 94.99686274509804 L 66.0 94.99686274509804 L 65.00313725490196 94.0 L 65.0 93.99686274509804 L 64.0 93.99686274509804 L 63.00313725490196 93.0 L 63.0 92.99686274509804 L 62.00313725490196 92.0 L 62.0 91.99686274509804 L 61.0 91.99686274509804 L 60.00313725490196 91.0 L 60.0 90.99686274509804 L 59.00313725490196 90.0 L 59.0 89.99686274509804 L 58.00313725490196 89.0 L 58.00313725490196 88.0 L 58.0 87.99686274509804 L 57.00313725490196 87.0 L 57.0 86.99686274509804 L 56.00313725490196 86.0 L 56.00313725490196 85.0 L 56.0 84.99686274509804 L 55.00313725490196 84.0 L 55.00313725490196 83.0 L 55.00313725490196 82.0 L 55.0 81.99686274509804 L 54.00313725490196 81.0 L 54.00313725490196 80.0 L 54.00313725490196 79.0 L 54.00313725490196 78.0 L 54.00313725490196 77.0 L 54.00313725490196 76.0 L 54.00313725490196 75.0 L 55.0 74.00313725490196 L 55.00313725490196 74.0 L 55.00313725490196 73.0 L 55.00313725490196 72.0 L 55.00313725490196 71.0 L 56.0 70.00313725490196 L 56.00313725490196 70.0 L 56.00313725490196 69.0 L 57.0 68.00313725490196 L 57.00313725490196 68.0 L 58.0 67.00313725490196 L 58.00313725490196 67.0 L 59.0 66.00313725490196 L 59.00313725490196 66.0 L 59.00313725490196 65.0 L 60.0 64.00313725490196 L 60.00313725490196 64.0 L 61.0 63.00313725490196 L 62.0 63.00313725490196 L 62.00313725490196 63.0 L 63.0 62.00313725490196 L 63.00313725490196 62.0 L 64.0 61.00313725490196 L 65.0 61.00313725490196 L 65.00313725490196 61.0 L 66.0 60.00313725490196 L 67.0 60.00313725490196 L 67.00313725490196 60.0 L 68.0 59.00313725490196 L 69.0 59.00313725490196 L 70.0 59.00313725490196 L 71.0 59.00313725490196 L 71.00313725490196 59.0 L 72.0 58.00313725490196 L 73.0 58.00313725490196 L 74.0 58.00313725490196 L 75.0 58.00313725490196 L 76.0 58.00313725490196 L 77.0 58.00313725490196 L 78.0 58.00313725490196 L 79.0 58.00313725490196 L 80.0 58.00313725490196 L 81.0 58.00313725490196 L 82.0 58.00313725490196 L 83.0 58.00313725490196 L 83.99686274509804 59.0 L 84.0 59.00313725490196 L 85.0 59.00313725490196 L 86.0 59.00313725490196 L 87.0 59.00313725490196 L 87.99686274509804 60.0 L 88.0 60.00313725490196 L 89.0 60.00313725490196 L 89.99686274509804 61.0 L 90.0 61.00313725490196 L 91.0 61.00313725490196 L 91.99686274509804 62.0 L 92.0 62.00313725490196 L 93.0 62.00313725490196 L 93.99686274509804 63.0 L 94.0 63.00313725490196 L 95.0 63.00313725490196 L 95.99686274509804 64.0 L 96.0 64.00313725490196 L 96.99686274509804 65.0 L 97.0 65.00313725490196 L 97.99686274509804 66.0 L 98.0 66.00313725490196 L 98.99686274509804 67.0 L 98.0 67.99686274509804 L 97.99686274509804 68.0 L 97.0 68.99686274509804 L 96.99686274509804 69.0 L 96.99686274509804 70.0 L 96.0 70.99686274509804 L 95.99686274509804 71.0 L 95.0 71.99686274509804 L 94.99686274509804 72.0 L 94.0 72.99686274509804 L 93.99686274509804 73.0 L 93.0 73.99686274509804 L 92.99686274509804 74.0 L 92.0 74.99686274509804 L 91.00313725490196 74.0 L 91.0 73.99686274509804 L 90.00313725490196 73.0 L 90.0 72.99686274509804 L 89.0 72.99686274509804 L 88.00313725490196 72.0 L 88.0 71.99686274509804 L 87.0 71.99686274509804 L 86.00313725490196 71.0 L 86.0 70.99686274509804 L 85.0 70.99686274509804 L 84.00313725490196 70.0 L 84.0 69.99686274509804 L 83.0 69.99686274509804 L 82.0 69.99686274509804 L 81.0 69.99686274509804 L 80.0 69.99686274509804 L 79.0 69.99686274509804 L 78.00313725490196 69.0 L 78.0 68.99686274509804 L 77.0 68.99686274509804 L 76.99686274509804 69.0 L 76.0 69.99686274509804 L 75.0 69.99686274509804 L 74.0 69.99686274509804 L 73.0 69.99686274509804 L 72.0 69.99686274509804 L 71.99686274509804 70.0 L 71.0 70.99686274509804 L 70.99686274509804 71.0 L 70.0 71.99686274509804 L 69.0 71.99686274509804 L 68.99686274509804 72.0 L 68.99686274509804 73.0 L 68.0 73.99686274509804 L 67.99686274509804 74.0 L 67.99686274509804 75.0 L 67.99686274509804 76.0 L 67.99686274509804 77.0 L 67.99686274509804 78.0 L 67.99686274509804 79.0 L 67.99686274509804 80.0 L 68.0 80.00313725490196 L 68.99686274509804 81.0 L 69.0 81.00313725490196 L 69.99686274509804 82.0 L 70.0 82.00313725490196 L 70.99686274509804 83.0 L 71.0 83.00313725490196 L 72.0 83.00313725490196 L 72.99686274509804 84.0 L 73.0 84.00313725490196 L 74.0 84.00313725490196 L 74.99686274509804 85.0 L 75.0 85.00313725490196 L 76.0 85.00313725490196 L 77.0 85.00313725490196 L 77.99686274509804 86.0 L 78.0 86.00313725490196 L 79.0 86.00313725490196 L 79.99686274509804 87.0 L 80.0 87.00313725490196 L 81.0 87.00313725490196 L 81.99686274509804 88.0 L 82.0 88.00313725490196 L 83.0 88.00313725490196 L 84.0 88.00313725490196 L 84.99686274509804 89.0 L 85.0 89.00313725490196 L 86.0 89.00313725490196 L 86.99686274509804 90.0 L 87.0 90.00313725490196 L 88.0 90.00313725490196 L 88.99686274509804 91.0 L 89.0 91.00313725490196 L 90.0 91.00313725490196 L 90.99686274509804 92.0 L 91.0 92.00313725490196 L 92.0 92.00313725490196 L 92.99686274509804 93.0 L 93.0 93.00313725490196 L 93.99686274509804 94.0 L 94.0 94.00313725490196 L 95.0 94.00313725490196 L 95.99686274509804 95.0 L 96.0 95.00313725490196 L 96.99686274509804 96.0 L 96.99686274509804 97.0 L 97.0 97.00313725490196 L 97.99686274509804 98.0 L 98.0 98.00313725490196 L 98.99686274509804 99.0 L 98.99686274509804 100.0 L 99.0 100.00313725490196 L 99.99686274509804 101.0 L 99.99686274509804 102.0 L 100.0 102.00313725490196 L 100.99686274509804 103.0 L 100.99686274509804 104.0 L 100.99686274509804 105.0 L 100.99686274509804 106.0 L 100.99686274509804 107.0 L 100.99686274509804 108.0 L 100.99686274509804 109.0 L 100.99686274509804 110.0 L 100.99686274509804 111.0 L 100.99686274509804 112.0 L 100.99686274509804 113.0 L 100.0 113.99686274509804 L 99.99686274509804 114.0 L 99.99686274509804 115.0 L 99.99686274509804 116.0 L 99.0 116.99686274509804 L 98.99686274509804 117.0 L 98.99686274509804 118.0 L 98.0 118.99686274509804 L 97.99686274509804 119.0 L 97.0 119.99686274509804 L 96.99686274509804 120.0 L 96.0 120.99686274509804 L 95.99686274509804 121.0 L 95.99686274509804 122.0 L 95.0 122.99686274509804 L 94.0 122.99686274509804 L 93.99686274509804 123.0 L 93.0 123.99686274509804 L 92.99686274509804 124.0 L 92.0 124.99686274509804 L 91.99686274509804 125.0 L 91.0 125.99686274509804 L 90.0 125.99686274509804 L 89.99686274509804 126.0 L 89.0 126.99686274509804 L 88.0 126.99686274509804 L 87.0 126.99686274509804 L 86.99686274509804 127.0 L 86.0 127.99686274509804 L 85.0 127.99686274509804 L 84.0 127.99686274509804 L 83.99686274509804 128.0 L 83.0 128.99686274509804 Z M 125.00313725490196 181.0 L 125.0 180.99686274509804 L 124.0 180.99686274509804 L 123.0 180.99686274509804 L 122.0 180.99686274509804 L 121.0 180.99686274509804 L 120.0 180.99686274509804 L 119.0 180.99686274509804 L 118.0 180.99686274509804 L 117.00313725490196 180.0 L 117.0 179.99686274509804 L 116.0 179.99686274509804 L 115.0 179.99686274509804 L 114.0 179.99686274509804 L 113.0 179.99686274509804 L 112.0 179.99686274509804 L 111.0 179.99686274509804 L 110.0 179.99686274509804 L 109.00313725490196 179.0 L 109.0 178.99686274509804 L 108.0 178.99686274509804 L 107.0 178.99686274509804 L 106.0 178.99686274509804 L 105.0 178.99686274509804 L 104.0 178.99686274509804 L 103.0 178.99686274509804 L 102.0 178.99686274509804 L 101.00313725490196 178.0 L 101.0 177.99686274509804 L 100.0 177.99686274509804 L 99.0 177.99686274509804 L 98.0 177.99686274509804 L 97.0 177.99686274509804 L 96.0 177.99686274509804 L 95.0 177.99686274509804 L 94.00313725490196 177.0 L 94.0 176.99686274509804 L 93.0 176.99686274509804 L 92.0 176.99686274509804 L 91.0 176.99686274509804 L 90.0 176.99686274509804 L 89.0 176.99686274509804 L 88.0 176.99686274509804 L 87.0 176.99686274509804 L 86.00313725490196 176.0 L 86.0 175.99686274509804 L 85.0 175.99686274509804 L 84.0 175.99686274509804 L 83.0 175.99686274509804 L 82.0 175.99686274509804 L 81.0 175.99686274509804 L 80.0 175.99686274509804 L 79.0 175.99686274509804 L 78.00313725490196 175.0 L 78.0 174.99686274509804 L 77.0 174.99686274509804 L 76.0 174.99686274509804 L 75.0 174.99686274509804 L 74.0 174.99686274509804 L 73.0 174.99686274509804 L 72.0 174.99686274509804 L 71.0 174.99686274509804 L 70.00313725490196 174.0 L 70.0 173.99686274509804 L 69.0 173.99686274509804 L 68.0 173.99686274509804 L 67.0 173.99686274509804 L 66.0 173.99686274509804 L 65.0 173.99686274509804 L 64.0 173.99686274509804 L 63.00313725490196 173.0 L 63.0 172.99686274509804 L 62.0 172.99686274509804 L 61.0 172.99686274509804 L 60.0 172.99686274509804 L 59.0 172.99686274509804 L 58.0 172.99686274509804 L 57.0 172.99686274509804 L 56.0 172.99686274509804 L 55.00313725490196 172.0 L 55.0 171.99686274509804 L 54.0 171.99686274509804 L 53.0 171.99686274509804 L 52.0 171.99686274509804 L 51.0 171.99686274509804 L 50.0 171.99686274509804 L 49.0 171.99686274509804 L 48.0 171.99686274509804 L 47.00313725490196 171.0 L 47.0 170.99686274509804 L 46.0 170.99686274509804 L 45.0 170.99686274509804 L 44.0 170.99686274509804 L 43.0 170.99686274509804 L 42.0 170.99686274509804 L 41.0 170.99686274509804 L 40.00313725490196 170.0 L 40.00313725490196 169.0 L 40.0 168.99686274509804 L 39.00313725490196 168.0 L 39.00313725490196 167.0 L 39.00313725490196 166.0 L 39.0 165.99686274509804 L 38.00313725490196 165.0 L 38.00313725490196 164.0 L 38.00313725490196 163.0 L 38.0 162.99686274509804 L 37.00313725490196 162.0 L 37.00313725490196 161.0 L 37.0 160.99686274509804 L 36.00313725490196 160.0 L 36.00313725490196 159.0 L 36.00313725490196 158.0 L 36.0 157.99686274509804 L 35.00313725490196 157.0 L 35.00313725490196 156.0 L 35.0 155.99686274509804 L 34.00313725490196 155.0 L 34.00313725490196 154.0 L 34.00313725490196 153.0 L 34.0 152.99686274509804 L 33.00313725490196 152.0 L 33.00313725490196 151.0 L 33.00313725490196 150.0 L 33.0 149.99686274509804 L 32.00313725490196 149.0 L 32.00313725490196 148.0 L 32.0 147.99686274509804 L 31.00313725490196 147.0 L 31.00313725490196 146.0 L 31.00313725490196 145.0 L 31.0 144.99686274509804 L 30.00313725490196 144.0 L 30.00313725490196 143.0 L 30.00313725490196 142.0 L 30.0 141.99686274509804 L 29.00313725490196 141.0 L 29.00313725490196 140.0 L 29.0 139.99686274509804 L 28.00313725490196 139.0 L 28.00313725490196 138.0 L 28.00313725490196 137.0 L 28.0 136.99686274509804 L 27.00313725490196 136.0 L 27.00313725490196 135.0 L 27.00313725490196 134.0 L 27.0 133.99686274509804 L 26.00313725490196 133.0 L 26.00313725490196 132.0 L 26.0 131.99686274509804 L 25.00313725490196 131.0 L 25.00313725490196 130.0 L 25.00313725490196 129.0 L 25.0 128.99686274509804 L 24.00313725490196 128.0 L 24.00313725490196 127.0 L 24.00313725490196 126.0 L 24.0 125.99686274509804 L 23.00313725490196 125.0 L 23.00313725490196 124.0 L 23.0 123.99686274509804 L 22.00313725490196 123.0 L 22.00313725490196 122.0 L 22.00313725490196 121.0 L 22.0 120.99686274509804 L 21.00313725490196 120.0 L 21.00313725490196 119.0 L 21.0 118.99686274509804 L 20.00313725490196 118.0 L 20.00313725490196 117.0 L 20.00313725490196 116.0 L 20.0 115.99686274509804 L 19.00313725490196 115.0 L 19.00313725490196 114.0 L 19.00313725490196 113.0 L 19.0 112.99686274509804 L 18.00313725490196 112.0 L 18.00313725490196 111.0 L 18.0 110.99686274509804 L 17.00313725490196 110.0 L 17.00313725490196 109.0 L 17.00313725490196 108.0 L 17.0 107.99686274509804 L 16.00313725490196 107.0 L 16.00313725490196 106.0 L 16.00313725490196 105.0 L 16.0 104.99686274509804 L 15.003137254901961 104.0 L 15.003137254901961 103.0 L 15.0 102.99686274509804 L 14.003137254901961 102.0 L 14.003137254901961 101.0 L 14.003137254901961 100.0 L 14.0 99.99686274509804 L 13.003137254901961 99.0 L 13.003137254901961 98.0 L 13.003137254901961 97.0 L 13.0 96.99686274509804 L 12.003137254901961 96.0 L 12.003137254901961 95.0 L 12.0 94.99686274509804 L 11.003137254901961 94.0 L 11.003137254901961 93.0 L 11.003137254901961 92.0 L 11.0 91.99686274509804 L 10.003137254901961 91.0 L 10.003137254901961 90.0 L 10.0 89.99686274509804 L 9.003137254901961 89.0 L 9.003137254901961 88.0 L 9.003137254901961 87.0 L 9.0 86.99686274509804 L 8.003137254901961 86.0 L 8.003137254901961 85.0 L 8.003137254901961 84.0 L 8.0 83.99686274509804 L 7.003137254901961 83.0 L 7.003137254901961 82.0 L 7.0 81.99686274509804 L 6.003137254901961 81.0 L 6.003137254901961 80.0 L 6.003137254901961 79.0 L 6.0 78.99686274509804 L 5.003137254901961 78.0 L 5.003137254901961 77.0 L 5.003137254901961 76.0 L 5.0 75.99686274509804 L 4.003137254901961 75.0 L 4.003137254901961 74.0 L 4.0 73.99686274509804 L 3.0031372549019606 73.0 L 3.0031372549019606 72.0 L 3.0031372549019606 71.0 L 3.0 70.99686274509804 L 2.0031372549019606 70.0 L 2.0031372549019606 69.0 L 2.0031372549019606 68.0 L 2.0 67.99686274509804 L 1.0031372549019608 67.0 L 1.0031372549019608 66.0 L 1.0 65.99686274509804 L 0.0031372549019607846 65.0 L 0.0031372549019607846 64.0 L 0.0031372549019607846 63.0 L 0.0 62.99686274509804 Z M 139.0 128.99686274509804 L 138.0 128.99686274509804 L 137.0 128.99686274509804 L 136.0 128.99686274509804 L 135.0 128.99686274509804 L 134.0 128.99686274509804 L 133.0 128.99686274509804 L 132.0 128.99686274509804 L 131.0 128.99686274509804 L 130.0 128.99686274509804 L 129.0 128.99686274509804 L 128.0 128.99686274509804 L 127.0 128.99686274509804 L 126.00313725490196 128.0 L 126.0 127.99686274509804 L 125.0 127.99686274509804 L 124.0 127.99686274509804 L 123.00313725490196 127.0 L 123.0 126.99686274509804 L 122.0 126.99686274509804 L 121.0 126.99686274509804 L 120.00313725490196 126.0 L 120.0 125.99686274509804 L 119.00313725490196 125.0 L 119.0 124.99686274509804 L 118.0 124.99686274509804 L 117.00313725490196 124.0 L 117.0 123.99686274509804 L 116.00313725490196 123.0 L 116.0 122.99686274509804 L 115.00313725490196 122.0 L 115.0 121.99686274509804 L 114.00313725490196 121.0 L 114.0 120.99686274509804 L 113.00313725490196 120.0 L 113.00313725490196 119.0 L 113.0 118.99686274509804 L 112.00313725490196 118.0 L 112.0 117.99686274509804 L 111.00313725490196 117.0 L 111.00313725490196 116.0 L 111.0 115.99686274509804 L 110.00313725490196 115.0 L 110.00313725490196 114.0 L 110.0 113.99686274509804 L 109.00313725490196 113.0 L 109.00313725490196 112.0 L 109.00313725490196 111.0 L 109.00313725490196 110.0 L 109.0 109.99686274509804 L 108.00313725490196 109.0 L 108.00313725490196 108.0 L 108.00313725490196 107.0 L 108.00313725490196 106.0 L 108.00313725490196 105.0 L 108.00313725490196 104.0 L 108.00313725490196 103.0 L 108.00313725490196 102.0 L 108.00313725490196 101.0 L 108.00313725490196 100.0 L 108.00313725490196 99.0 L 108.00313725490196 98.0 L 108.00313725490196 97.0 L 108.00313725490196 96.0 L 108.00313725490196 95.0 L 109.0 94.00313725490196 L 109.00313725490196 94.0 L 109.00313725490196 93.0 L 109.00313725490196 92.0 L 110.0 91.00313725490196 L 110.00313725490196 91.0 L 110.00313725490196 90.0 L 111.0 89.00313725490196 L 111.00313725490196 89.0 L 111.00313725490196 88.0 L 112.0 87.00313725490196 L 112.00313725490196 87.0 L 112.00313725490196 86.0 L 113.0 85.00313725490196 L 113.00313725490196 85.0 L 114.0 84.00313725490196 L 114.00313725490196 84.0 L 115.0 83.00313725490196 L 115.00313725490196 83.0 L 116.0 82.00313725490196 L 116.00313725490196 82.0 L 117.0 81.00313725490196 L 117.00313725490196 81.0 L 118.0 80.00313725490196 L 118.00313725490196 80.0 L 119.0 79.00313725490196 L 120.0 79.00313725490196 L 120.00313725490196 79.0 L 121.0 78.00313725490196 L 121.00313725490196 78.0 L 122.0 77.00313725490196 L 123.0 77.00313725490196 L 124.0 77.00313725490196 L 124.00313725490196 77.0 L 125.0 76.00313725490196 L 126.0 76.00313725490196 L 127.0 76.00313725490196 L 127.00313725490196 76.0 L 128.0 75.00313725490196 L 129.0 75.00313725490196 L 130.0 75.00313725490196 L 131.0 75.00313725490196 L 132.0 75.00313725490196 L 133.0 75.00313725490196 L 134.0 75.00313725490196 L 135.0 75.00313725490196 L 136.0 75.00313725490196 L 137.0 75.00313725490196 L 138.0 75.00313725490196 L 139.0 75.00313725490196 L 139.99686274509804 76.0 L 140.0 76.00313725490196 L 141.0 76.00313725490196 L 142.0 76.00313725490196 L 142.99686274509804 77.0 L 143.0 77.00313725490196 L 144.0 77.00313725490196 L 144.99686274509804 78.0 L 145.0 78.00313725490196 L 146.0 78.00313725490196 L 146.99686274509804 79.0 L 147.0 79.00313725490196 L 147.99686274509804 80.0 L 148.0 80.00313725490196 L 148.99686274509804 81.0 L 148.0 81.99686274509804 L 147.99686274509804 82.0 L 147.99686274509804 83.0 L 147.0 83.99686274509804 L 146.99686274509804 84.0 L 146.0 84.99686274509804 L 145.99686274509804 85.0 L 145.0 85.99686274509804 L 144.99686274509804 86.0 L 144.99686274509804 87.0 L 144.0 87.99686274509804 L 143.99686274509804 88.0 L 143.0 88.99686274509804 L 142.0 88.99686274509804 L 141.00313725490196 88.0 L 141.0 87.99686274509804 L 140.00313725490196 87.0 L 140.0 86.99686274509804 L 139.0 86.99686274509804 L 138.00313725490196 86.0 L 138.0 85.99686274509804 L 137.0 85.99686274509804 L 136.0 85.99686274509804 L 135.0 85.99686274509804 L 134.0 85.99686274509804 L 133.0 85.99686274509804 L 132.0 85.99686274509804 L 131.0 85.99686274509804 L 130.0 85.99686274509804 L 129.99686274509804 86.0 L 129.0 86.99686274509804 L 128.0 86.99686274509804 L 127.99686274509804 87.0 L 127.0 87.99686274509804 L 126.99686274509804 88.0 L 126.0 88.99686274509804 L 125.99686274509804 89.0 L 125.0 89.99686274509804 L 124.99686274509804 90.0 L 124.0 90.99686274509804 L 123.99686274509804 91.0 L 123.99686274509804 92.0 L 123.0 92.99686274509804 L 122.99686274509804 93.0 L 122.99686274509804 94.0 L 122.0 94.99686274509804 L 121.99686274509804 95.0 L 121.99686274509804 96.0 L 121.99686274509804 97.0 L 121.0 97.99686274509804 L 120.99686274509804 98.0 L 120.99686274509804 99.0 L 120.99686274509804 100.0 L 120.99686274509804 101.0 L 120.99686274509804 102.0 L 120.99686274509804 103.0 L 120.99686274509804 104.0 L 120.99686274509804 105.0 L 120.99686274509804 106.0 L 121.0 106.00313725490196 L 121.99686274509804 107.0 L 121.99686274509804 108.0 L 121.99686274509804 109.0 L 122.0 109.00313725490196 L 122.99686274509804 110.0 L 122.99686274509804 111.0 L 122.99686274509804 112.0 L 123.0 112.00313725490196 L 123.99686274509804 113.0 L 124.0 113.00313725490196 L 124.99686274509804 114.0 L 125.0 114.00313725490196 L 125.99686274509804 115.0 L 126.0 115.00313725490196 L 126.99686274509804 116.0 L 127.0 116.00313725490196 L 127.99686274509804 117.0 L 128.0 117.00313725490196 L 129.0 117.00313725490196 L 129.99686274509804 118.0 L 130.0 118.00313725490196 L 131.0 118.00313725490196 L 132.0 118.00313725490196 L 133.0 118.00313725490196 L 134.0 118.00313725490196 L 135.0 118.00313725490196 L 136.0 118.00313725490196 L 137.0 118.00313725490196 L 138.0 118.00313725490196 L 138.00313725490196 118.0 L 139.0 117.00313725490196 L 140.0 117.00313725490196 L 140.00313725490196 117.0 L 141.0 116.00313725490196 L 142.0 116.00313725490196 L 142.00313725490196 116.0 L 143.0 115.00313725490196 L 143.00313725490196 115.0 L 144.0 114.00313725490196 L 144.99686274509804 115.0 L 145.0 115.00313725490196 L 145.99686274509804 116.0 L 146.0 116.00313725490196 L 146.99686274509804 117.0 L 146.99686274509804 118.0 L 147.0 118.00313725490196 L 147.99686274509804 119.0 L 148.0 119.00313725490196 L 148.99686274509804 120.0 L 148.99686274509804 121.0 L 149.0 121.00313725490196 L 149.99686274509804 122.0 L 149.0 122.99686274509804 L 148.99686274509804 123.0 L 148.0 123.99686274509804 L 147.99686274509804 124.0 L 147.0 124.99686274509804 L 146.99686274509804 125.0 L 146.0 125.99686274509804 L 145.0 125.99686274509804 L 144.99686274509804 126.0 L 144.0 126.99686274509804 L 143.0 126.99686274509804 L 142.99686274509804 127.0 L 142.0 127.99686274509804 L 141.0 127.99686274509804 L 140.0 127.99686274509804 L 139.99686274509804 128.0 L 139.0 128.99686274509804 Z M 169.0 127.99686274509804 L 168.0 127.99686274509804 L 167.0 127.99686274509804 L 166.0 127.99686274509804 L 165.0 127.99686274509804 L 164.0 127.99686274509804 L 163.0 127.99686274509804 L 162.0 127.99686274509804 L 161.0 127.99686274509804 L 160.0 127.99686274509804 L 159.0 127.99686274509804 L 158.0 127.99686274509804 L 157.00313725490196 127.0 L 157.00313725490196 126.0 L 157.00313725490196 125.0 L 157.00313725490196 124.0 L 157.00313725490196 123.0 L 157.00313725490196 122.0 L 157.00313725490196 121.0 L 157.00313725490196 120.0 L 157.00313725490196 119.0 L 157.00313725490196 118.0 L 157.00313725490196 117.0 L 157.00313725490196 116.0 L 157.00313725490196 115.0 L 157.00313725490196 114.0 L 157.00313725490196 113.0 L 157.00313725490196 112.0 L 157.00313725490196 111.0 L 157.00313725490196 110.0 L 157.00313725490196 109.0 L 157.00313725490196 108.0 L 157.00313725490196 107.0 L 157.00313725490196 106.0 L 157.00313725490196 105.0 L 157.00313725490196 104.0 L 157.00313725490196 103.0 L 157.00313725490196 102.0 L 157.00313725490196 101.0 L 157.00313725490196 100.0 L 157.00313725490196 99.0 L 157.00313725490196 98.0 L 157.00313725490196 97.0 L 157.00313725490196 96.0 L 157.00313725490196 95.0 L 157.00313725490196 94.0 L 157.00313725490196 93.0 L 157.00313725490196 92.0 L 157.00313725490196 91.0 L 157.00313725490196 90.0 L 157.00313725490196 89.0 L 157.00313725490196 88.0 L 157.00313725490196 87.0 L 157.00313725490196 86.0 L 157.00313725490196 85.0 L 157.00313725490196 84.0 L 157.00313725490196 83.0 L 157.00313725490196 82.0 L 157.00313725490196 81.0 L 157.00313725490196 80.0 L 157.00313725490196 79.0 L 157.00313725490196 78.0 L 157.00313725490196 77.0 L 158.0 76.00313725490196 L 159.0 76.00313725490196 L 160.0 76.00313725490196 L 161.0 76.00313725490196 L 162.0 76.00313725490196 L 163.0 76.00313725490196 L 164.0 76.00313725490196 L 165.0 76.00313725490196 L 166.0 76.00313725490196 L 167.0 76.00313725490196 L 168.0 76.00313725490196 L 169.0 76.00313725490196 L 169.99686274509804 77.0 L 169.99686274509804 78.0 L 169.99686274509804 79.0 L 169.99686274509804 80.0 L 169.99686274509804 81.0 L 169.99686274509804 82.0 L 169.99686274509804 83.0 L 169.99686274509804 84.0 L 169.99686274509804 85.0 L 169.99686274509804 86.0 L 169.99686274509804 87.0 L 169.99686274509804 88.0 L 169.99686274509804 89.0 L 169.99686274509804 90.0 L 169.99686274509804 91.0 L 169.99686274509804 92.0 L 169.99686274509804 93.0 L 169.99686274509804 94.0 L 169.99686274509804 95.0 L 169.99686274509804 96.0 L 169.99686274509804 97.0 L 169.99686274509804 98.0 L 169.99686274509804 99.0 L 169.99686274509804 100.0 L 169.99686274509804 101.0 L 169.99686274509804 102.0 L 169.99686274509804 103.0 L 169.99686274509804 104.0 L 169.99686274509804 105.0 L 169.99686274509804 106.0 L 169.99686274509804 107.0 L 169.99686274509804 108.0 L 169.99686274509804 109.0 L 169.99686274509804 110.0 L 169.99686274509804 111.0 L 169.99686274509804 112.0 L 169.99686274509804 113.0 L 169.99686274509804 114.0 L 169.99686274509804 115.0 L 169.99686274509804 116.0 L 169.99686274509804 117.0 L 169.99686274509804 118.0 L 169.99686274509804 119.0 L 169.99686274509804 120.0 L 169.99686274509804 121.0 L 169.99686274509804 122.0 L 169.99686274509804 123.0 L 169.99686274509804 124.0 L 169.99686274509804 125.0 L 169.99686274509804 126.0 L 169.99686274509804 127.0 L 169.0 127.99686274509804 Z " fill="black" /></svg>