<svg id="Ebene_1" xmlns="http://www.w3.org/2000/svg" version="1.1" viewBox="0 0 194.3 182.5"><defs><style>.st0{ fill: #fff;} .st1{ stroke: #fff; stroke-miterlimit: 10; stroke-width: 2px;} </style></defs><path class="st0" d="M193,87.3c-.5,14.9-2.6,44.1-12.7,60.9-1.6,2.6-17.2,19.6-34.1,24-7.7,2-63.9-4.9-101.7-32.8-13.9-10.3-12.1-34.2-10.3-62,1.5-22.8,7.6-50.8,18.9-66.1,11-15,33.8-9.2,66-5.8,23.7,2.5,34.6,8.1,42.4,12.7,5.4,3.2,15,8.2,22,18.1,11.1,15.6,10.2,31.8,9.6,51Z"/><path class="st0" d="M1.3,61.9l41,108.2,87.2,11.3,57.5-61.8c.7.2-5.8-58.1-7.3-78.3l-92.5-21L19.5,53.1l-1.2.6S1.3,61.9,1.3,61.9Z"/><path class="st0" d="M193,87.3c-.5,14.9-2.6,44.1-12.7,60.9-1.6,2.6-17.2,19.6-34.1,24-7.7,2-63.9-4.9-101.7-32.8-13.9-10.3-12.1-34.2-10.3-62,1.5-22.8,7.6-50.8,18.9-66.1,11-15,33.8-9.2,66-5.8,23.7,2.5,34.6,8.1,42.4,12.7,5.4,3.2,15,8.2,22,18.1,11.1,15.6,10.2,31.8,9.6,51Z"/><path id="path6" class="st0" d="M156.1,61.7c0-4.1,3.2-6.8,7.5-6.8s7.5,2.8,7.5,6.8-3.2,6.9-7.5,6.9-7.5-2.9-7.5-6.9ZM157.5,77.4h12.2v51.1h-12.1v-51.1h0Z"/><path id="path5" class="st0" d="M108,103c0-17,12.1-26.8,25.7-26.8,5.5,0,10.9,2,14.9,5.7l-5.9,7.9c-2.7-2.3-5.2-3.7-8.4-3.7-8.2,0-13.8,6.7-13.8,16.9s5.6,16.8,13.5,16.8,7.6-1.9,10.5-4.4l4.9,8c-4.6,4.1-10.6,6.3-16.7,6.3-14,0-24.7-9.8-24.7-26.8h0Z"/><path id="path4" class="st0" d="M51.5,119.8l7.1-8.4c4.9,4.6,11.4,7.7,17.7,7.7s11.7-3.4,11.7-8.6-4.3-7.3-10.5-9.9l-9.3-4c-6.7-2.8-13.7-8.1-13.7-18.1s9.6-19.2,22.9-19.2c7.9,0,15.4,3.1,21,8.7l-6.3,7.8c-4.3-3.7-8.9-5.8-14.7-5.8s-10.5,3-10.5,7.9,5.1,7.2,10.8,9.5l9.1,3.8c8.1,3.4,13.7,8.5,13.7,18.3s-9.2,20.3-24.5,20.3-18-3.6-24.5-10h0Z"/><line class="st1" x1="157.5" y1="76.4" x2="157.5" y2="77.4"/></svg>