<?xml version="1.0" encoding="UTF-8"?>
<svg id="svg14" xmlns="http://www.w3.org/2000/svg" xmlns:svg="http://www.w3.org/2000/svg" xmlns:sodipodi="http://sodipodi.sourceforge.net/DTD/sodipodi-0.dtd" xmlns:inkscape="http://www.inkscape.org/namespaces/inkscape" version="1.1" viewBox="0 0 194.7 181.9">
  <!-- Generator: Adobe Illustrator 29.0.0, SVG Export Plug-In . SVG Version: 2.1.0 Build 186)  -->
  <defs>
    <style>
      .st0 {
        fill: none;
        stroke: #000;
        stroke-width: 2px;
      }
    </style>
  </defs>
  <path class="st0" d="M85.9,19.8l-45,22.6c-4.7,19.3-7.3,42.3-7.6,57.8-.1,8.1,1.8,22.7,7,32.2-5.2-9.6-7.1-24.1-7-32.2.3-15.5,2.9-38.5,7.6-57.8L1.3,62.2l40.7,107.4,87.2,11.3,7.9-8.5,49.6-53.3-7.3-78.3-93.3-21ZM82.2,1c-11.5.3-21.2,2.7-27.1,8.2-5.8,5.4-10.6,18.2-14.2,33.1l45-22.6,93.3,21-93.3-21-45,22.6c-4.7,19.3-7.3,42.3-7.6,57.8-.2,10.8,3.4,33.1,13.2,39.7,22.6,15.1,66,31.6,90.5,32.5,2.7.1,5.4,0,8-.4,15.3-2.5,36.6-19,42.1-36.1,5.4-16.6,9.2-56.4,4.3-85-3-17.7-26.9-35-45.7-40C125.5,5.6,101.4.5,82.2,1ZM52.2,119.2l7.1-8.4c4.9,4.6,11.4,7.7,17.6,7.7s11.7-3.4,11.7-8.6-4.4-7.3-10.5-9.9l-9.3-4c-6.7-2.8-13.7-8.1-13.7-18.1s9.6-19.2,22.9-19.2c7.9,0,15.4,3.1,21,8.7l-6.3,7.8c-4.3-3.7-8.9-5.8-14.7-5.8s-10.5,3-10.5,7.9,5.1,7.2,10.8,9.5l9.1,3.8c8.1,3.4,13.7,8.5,13.7,18.3s-9.2,20.3-24.5,20.3c-9.2,0-18-3.6-24.5-10ZM108.7,102.4c0-17,12.1-26.8,25.7-26.8,5.5,0,10.9,2,14.9,5.7l-5.9,7.9c-2.7-2.4-5.2-3.7-8.4-3.7-8.2,0-13.8,6.7-13.8,16.9s5.6,16.8,13.5,16.8,7.6-1.9,10.5-4.4l4.9,8c-4.6,4.1-10.6,6.3-16.7,6.3-14,0-24.7-9.8-24.7-26.8h0ZM156.8,61.1c0-4.1,3.2-6.8,7.5-6.8s7.5,2.8,7.5,6.8-3.2,6.8-7.5,6.8-7.5-2.9-7.5-6.8ZM158.1,76.8h12.2v51.1h-12.2v-51.1Z"/>
</svg>