<?xml version="1.0" encoding="UTF-8"?>
<svg id="Layer_1" xmlns="http://www.w3.org/2000/svg" version="1.1" viewBox="0 0 326.7 305">
  <!-- Generator: Adobe Illustrator 29.0.1, SVG Export Plug-In . SVG Version: 2.1.0 Build 192)  -->
  <defs>
    <style>
      .st0 {
        fill: #fff;
        stroke: #000;
        stroke-miterlimit: 10;
        stroke-width: 2px;
      }
    </style>
  </defs>
  <polygon class="st0" points="299.4 68.9 143.7 33.9 68.6 71.5 2.5 104.6 70.3 283.7 215.7 302.5 228.9 288.3 311.6 199.5 299.4 68.9"/>
  <path class="st0" d="M319.6,85.5c-5-29.5-44.9-58.5-76.3-66.7-53.7-14.1-124.6-27.1-151-2.7-9.7,9-17.7,30.3-23.8,55.3-7.8,32.2-12.3,70.5-12.7,96.4-.3,18,5.6,55.2,22.1,66.2,37.6,25.1,110.2,52.7,150.9,54.2,5,.2,9.5,0,13.4-.7,25.6-4.2,61-31.7,70.3-60.3,9-27.7,15.3-94.1,7.1-141.8h0Z"/>
  <path class="st0" d="M299.4,68.9l-155.7-35-75.1,37.6c-7.8,32.2-12.3,70.5-12.7,96.4-.3,18,5.6,55.2,22.1,66.2,37.6,25.1,110.2,52.7,150.9,54.2l82.7-88.9-12.2-130.6h0Z"/>
  <g>
    <path d="M146.3,151.9l-15.2-6.4c-9.4-3.9-18-7.1-18-15.9s6.9-13.1,17.6-13.1,17.3,3.6,24.6,9.7l10.5-13c-8.9-9-21.8-14.5-35-14.5-22.2,0-38.2,14-38.2,32.1s11.7,25.5,22.9,30.1l15.5,6.7c10.3,4.4,17.5,7.3,17.5,16.5s-6.9,14.4-19.5,14.4-21.3-5.2-29.4-12.9l-11.9,14c10.8,10.6,25.6,16.6,40.9,16.6,25.5,0,40.8-15.4,40.8-33.8s-9.4-25-22.9-30.6h0Z"/>
    <path d="M224.9,199.7c-13.1,0-22.4-11.1-22.4-28.1s9.4-28.2,23.1-28.2,9.5,2.2,14,6.2l9.9-13.2c-6.2-5.4-14.1-9.6-24.9-9.6-22.8,0-42.9,16.4-42.9,44.8s17.9,44.6,41.2,44.6,19.9-3.4,27.9-10.5l-8.2-13.4c-4.8,4.1-10.9,7.3-17.5,7.3h0Z"/>
    <path d="M274.5,91.4c-7.2,0-12.5,4.6-12.5,11.4s5.3,11.4,12.5,11.4,12.5-4.8,12.5-11.4-5.3-11.4-12.5-11.4Z"/>
    <rect x="264.3" y="129" width="20.3" height="85.2"/>
  </g>
</svg>