<svg xmlns="http://www.w3.org/2000/svg" id="Layer_1" data-name="Layer 1" version="1.1" viewBox="0 0 839.05 305">
  <polygon points="299.367 68.878 143.651 33.856 68.562 71.478 2.482 104.586 70.315 283.692 215.709 302.509 228.898 288.338 311.61 199.467 299.367 68.878" fill="#fff" stroke-width="0"/>
  <path d="M319.634,85.509c-5.036-29.455-44.92-58.453-76.313-66.667-53.744-14.062-124.566-27.15-151.004-2.659-9.671,8.959-17.709,30.282-23.755,55.294-7.783,32.197-12.265,70.508-12.681,96.436-.289,18.041,5.63,55.244,22.097,66.24,37.63,25.127,110.186,52.696,150.92,54.183,4.966.181,9.46-.024,13.359-.67,25.577-4.235,60.991-31.668,70.264-60.313,8.972-27.714,15.276-94.098,7.112-141.846Z" fill="#fff" stroke-width="0"/>
  <path d="M299.367,68.878l-155.716-35.022-75.09,37.622c-7.783,32.197-12.265,70.508-12.681,96.436-.289,18.041,5.63,55.244,22.097,66.24,37.63,25.127,110.186,52.696,150.92,54.183l82.711-88.871-12.243-130.589Z" fill="#fff" stroke-width="0"/>
  <g>
    <path d="M146.324,151.911l-15.243-6.383c-9.428-3.854-17.99-7.103-17.99-15.898,0-8.181,6.923-13.128,17.559-13.128,9.665,0,17.328,3.579,24.557,9.693l10.49-12.966c-8.931-9.025-21.812-14.485-35.047-14.485-22.214,0-38.216,13.973-38.216,32.084,0,16.57,11.719,25.462,22.92,30.117l15.456,6.701c10.276,4.352,17.541,7.293,17.541,16.49,0,8.717-6.899,14.414-19.538,14.414-10.47,0-21.333-5.18-29.446-12.87l-11.901,14.028c10.799,10.592,25.627,16.599,40.921,16.599,25.548,0,40.833-15.387,40.833-33.794,0-16.414-9.385-24.986-22.897-30.603Z" fill="#000" stroke-width="0"/>
    <path d="M224.949,199.749c-13.12,0-22.415-11.141-22.415-28.076s9.406-28.209,23.053-28.209c5.267,0,9.517,2.247,14.002,6.174l9.852-13.179c-6.188-5.415-14.11-9.555-24.918-9.555-22.75,0-42.859,16.382-42.859,44.769s17.871,44.635,41.157,44.635c9.689,0,19.85-3.366,27.851-10.461l-8.229-13.391c-4.833,4.06-10.896,7.293-17.495,7.293Z" fill="#000" stroke-width="0"/>
    <path d="M274.473,91.352c-7.165,0-12.493,4.635-12.493,11.429,0,6.661,5.328,11.43,12.493,11.43s12.493-4.769,12.493-11.43c0-6.794-5.328-11.429-12.493-11.429Z" fill="#000" stroke-width="0"/>
    <rect x="264.251" y="128.985" width="20.311" height="85.241" fill="#000" stroke-width="0"/>
  </g>
</svg>
