<?xml version="1.0" encoding="UTF-8"?>
<svg id="Ebene_1" data-name="Ebene 1" xmlns="http://www.w3.org/2000/svg" viewBox="0 0 194.32 181.97">
  <defs>
    <style>
      .cls-1 {
        fill: #fff;
        stroke-miterlimit: 10;
      }

      .cls-1, .cls-2 {
        stroke: #fff;
      }

      .cls-2 {
        fill: none;
        stroke-width: 2px;
      }
    </style>
  </defs>
  <path id="path4" class="cls-1" d="M51.53,119.29l7.14-8.41c4.89,4.61,11.38,7.71,17.65,7.71,7.58,0,11.71-3.41,11.71-8.64,0-5.5-4.35-7.27-10.51-9.88l-9.27-4.02c-6.73-2.79-13.74-8.12-13.74-18.05,0-10.86,9.59-19.23,22.91-19.23,7.87.01,15.42,3.14,21.01,8.68l-6.29,7.77c-4.34-3.67-8.93-5.81-14.72-5.81-6.38,0-10.52,2.97-10.52,7.87,0,5.27,5.13,7.22,10.78,9.53l9.14,3.83c8.1,3.36,13.73,8.5,13.73,18.35,0,11.04-9.17,20.26-24.46,20.26-9.17,0-17.98-3.57-24.55-9.96Z"/>
  <path id="path5" class="cls-1" d="M107.99,102.49c0-17.02,12.05-26.84,25.69-26.84,5.52-.05,10.86,2,14.94,5.73l-5.91,7.9c-2.69-2.35-5.24-3.67-8.4-3.67-8.18,0-13.82,6.73-13.82,16.91s5.57,16.83,13.45,16.83c3.96,0,7.59-1.94,10.49-4.37l4.94,7.99c-4.62,4.05-10.55,6.29-16.7,6.27-13.98,0-24.69-9.82-24.69-26.75h0Z"/>
  <path id="path6" class="cls-1" d="M156.11,61.19c0-4.07,3.2-6.85,7.49-6.85s7.49,2.78,7.49,6.85-3.2,6.85-7.49,6.85-7.49-2.86-7.49-6.85ZM157.47,76.89h12.18v51.1h-12.15l-.02-51.1Z"/>
  <path class="cls-2" d="M192.96,86.76c-.54,14.95-2.63,44.08-12.73,60.86-1.58,2.63-17.19,19.56-34.08,24.02-7.71,2.03-63.93-4.89-101.74-32.82-13.91-10.28-12.12-34.18-10.3-61.96,1.49-22.79,7.61-50.79,18.88-66.09,11.03-14.98,33.76-9.16,66-5.78,23.68,2.48,34.56,8.07,42.43,12.7,5.45,3.21,15,8.25,21.98,18.11,11.08,15.64,10.25,31.79,9.56,50.96Z"/>
  <path class="cls-2" d="M1.26,61.42l40.98,108.21,87.15,11.28,57.49-61.77c.72.24-5.76-58.11-7.34-78.28l-92.48-20.99L19.48,52.6l-1.18.57L1.26,61.42Z"/>
</svg>