<?xml version="1.0" standalone="no"?>
<!DOCTYPE svg PUBLIC "-//W3C//DTD SVG 20010904//EN"
 "http://www.w3.org/TR/2001/REC-SVG-20010904/DTD/svg10.dtd">
<svg version="1.0" xmlns="http://www.w3.org/2000/svg"
 width="1910.000000pt" height="587.000000pt" viewBox="0 0 1910.000000 587.000000"
 preserveAspectRatio="xMidYMid meet">

<g transform="translate(0.000000,587.000000) scale(0.100000,-0.100000)"
fill="#000000" stroke="none">
<path d="M0 5511 l0 -361 133 0 c72 0 149 5 169 10 48 14 97 55 114 97 18 42
18 134 0 176 -15 38 -66 84 -102 93 l-24 6 32 22 c55 37 71 69 72 138 1 75
-22 122 -74 153 -30 17 -56 21 -177 23 l-143 4 0 -361z m244 263 c22 -9 46
-56 46 -93 0 -73 -53 -115 -138 -109 l-47 3 -3 94 c-1 52 0 101 3 109 4 12 18
14 64 9 32 -4 65 -9 75 -13z m-19 -295 c52 -14 83 -43 95 -90 25 -90 -51 -163
-162 -157 l-53 3 -3 114 c-1 63 0 121 2 128 6 16 66 17 121 2z"/>
<path d="M2010 5729 l0 -142 -24 26 c-78 84 -218 46 -263 -71 -28 -72 -25
-252 4 -308 36 -69 75 -94 141 -94 59 0 98 17 127 56 14 18 14 17 15 -13 0
-32 1 -33 45 -33 l45 0 0 360 0 360 -45 0 -45 0 0 -141z m-45 -175 c51 -55 58
-204 13 -286 -42 -77 -120 -73 -154 8 -17 40 -22 148 -10 211 16 87 98 124
151 67z"/>
<path d="M3310 5830 l0 -40 40 0 40 0 0 40 0 40 -40 0 -40 0 0 -40z"/>
<path d="M4730 5830 l0 -40 40 0 40 0 0 40 0 40 -40 0 -40 0 0 -40z"/>
<path d="M5853 5783 c-20 -13 -23 -24 -23 -74 l0 -59 -40 0 c-36 0 -40 -3 -40
-24 0 -21 5 -25 38 -28 l37 -3 5 -203 5 -204 28 -24 c23 -20 39 -24 88 -24 58
0 59 1 59 28 0 26 -2 27 -44 24 -35 -3 -49 1 -65 17 -20 20 -21 32 -21 206 l0
185 65 0 c63 0 65 1 65 25 0 24 -2 25 -65 25 l-64 0 -3 74 -3 74 -22 -15z"/>
<path d="M4483 5777 c-20 -9 -23 -18 -23 -69 l0 -58 -40 0 c-36 0 -40 -2 -40
-25 0 -22 4 -25 40 -25 l40 0 0 -190 c0 -208 6 -236 55 -258 14 -7 50 -12 80
-12 53 0 55 1 55 28 0 26 -2 27 -43 24 -31 -3 -49 2 -67 16 -25 20 -25 21 -25
204 l0 183 68 3 c64 3 67 4 67 27 0 24 -2 25 -70 25 l-69 0 -3 69 c-3 67 -4
68 -25 58z"/>
<path d="M5018 5776 c-14 -10 -18 -28 -18 -70 l0 -56 -40 0 c-36 0 -40 -3 -40
-24 0 -21 5 -25 38 -28 l37 -3 5 -202 c5 -193 6 -204 27 -225 18 -17 37 -23
88 -26 l65 -4 0 28 c0 28 -1 29 -44 26 -37 -3 -46 0 -65 24 -20 26 -21 36 -19
203 l3 176 63 3 c58 3 62 4 62 27 0 24 -3 25 -65 25 l-65 0 0 70 c0 73 -3 78
-32 56z"/>
<path d="M1344 5641 c-22 -10 -50 -34 -62 -52 l-22 -34 0 48 0 47 -50 0 -50 0
0 -250 0 -250 50 0 50 0 0 138 c0 123 3 142 24 187 26 57 61 85 104 85 59 0
65 -21 70 -225 l5 -185 43 0 44 0 0 198 c0 174 -3 202 -20 240 -31 69 -105 90
-186 53z"/>
<path d="M2385 5648 c-93 -33 -129 -99 -128 -235 0 -82 4 -99 29 -150 41 -82
93 -116 184 -121 39 -2 90 -1 115 2 45 7 45 7 45 48 0 34 -3 39 -17 33 -122
-48 -237 25 -259 164 l-7 41 148 0 148 0 -7 56 c-7 63 -23 99 -58 132 -43 40
-128 53 -193 30z m130 -93 c47 -46 36 -55 -70 -55 l-96 0 16 30 c19 37 41 49
88 50 27 0 45 -7 62 -25z"/>
<path d="M2848 5649 c-21 -6 -51 -26 -68 -45 -25 -29 -30 -43 -30 -84 0 -62
23 -90 135 -163 62 -40 81 -58 83 -78 7 -57 -65 -82 -160 -57 l-58 15 0 -42
c0 -40 2 -43 31 -49 17 -3 64 -6 103 -6 122 0 181 47 181 145 0 70 -19 95
-123 157 -90 55 -109 77 -92 108 17 32 88 39 168 14 20 -6 22 -3 22 34 0 29
-5 42 -17 47 -32 12 -138 14 -175 4z"/>
<path d="M3684 5640 c-23 -12 -49 -36 -62 -58 l-22 -37 0 53 c0 51 -1 52 -30
52 l-30 0 0 -250 0 -250 30 0 30 0 0 128 c0 145 13 206 59 269 54 75 137 79
166 8 11 -26 15 -80 15 -220 l0 -185 25 0 25 0 0 208 c0 144 -4 214 -13 231
-32 63 -122 87 -193 51z"/>
<path d="M4095 5645 c-56 -20 -85 -56 -85 -106 0 -68 21 -94 114 -139 118 -57
136 -73 136 -119 0 -27 -7 -44 -26 -62 -22 -21 -35 -24 -97 -24 -40 0 -84 3
-99 8 -26 7 -28 5 -28 -22 0 -34 22 -41 134 -41 120 0 180 47 180 143 1 75
-19 99 -130 152 -106 51 -134 80 -115 121 22 49 90 62 189 37 21 -5 23 -2 20
23 -2 23 -9 30 -33 35 -52 11 -119 9 -160 -6z"/>
<path d="M580 5458 c0 -106 5 -210 10 -230 16 -55 60 -88 121 -88 61 0 97 18
138 67 l31 38 0 -48 0 -47 45 0 45 0 0 250 0 250 -44 0 -43 0 -5 -137 c-4
-111 -9 -147 -25 -183 -38 -85 -110 -123 -152 -81 -20 20 -21 31 -21 211 l0
190 -50 0 -50 0 0 -192z"/>
<path d="M3330 5400 l0 -250 25 0 25 0 0 250 0 250 -25 0 -25 0 0 -250z"/>
<path d="M4750 5400 l0 -250 25 0 25 0 0 250 0 250 -25 0 -25 0 0 -250z"/>
<path d="M5280 5450 c0 -219 6 -250 55 -288 20 -16 42 -22 77 -22 67 0 113 24
143 74 l25 41 0 -52 c0 -50 2 -53 25 -53 l25 0 0 250 0 250 -24 0 c-24 0 -24
0 -28 -142 -6 -162 -21 -218 -72 -273 -37 -38 -77 -52 -115 -39 -48 17 -56 51
-59 262 l-4 192 -24 0 -24 0 0 -200z"/>
<path d="M7230 4880 c-210 -27 -377 -142 -454 -310 -49 -108 -57 -161 -63
-402 l-6 -228 -173 0 -174 0 0 -105 0 -105 175 0 175 0 0 -930 0 -930 110 0
110 0 0 930 0 930 300 0 300 0 0 105 0 105 -301 0 -302 0 6 208 c7 268 27 344
115 429 52 51 122 79 239 93 99 13 177 7 282 -20 l71 -18 0 108 c0 60 -4 111
-8 114 -34 21 -305 39 -402 26z"/>
<path d="M3310 4035 c0 -459 1 -835 3 -835 13 0 254 86 344 123 200 82 225 98
253 159 13 29 50 79 81 110 45 45 68 60 114 73 153 45 303 -39 366 -205 45
-119 60 -223 66 -465 11 -474 -57 -715 -230 -808 -62 -32 -210 -32 -284 2
-100 45 -159 137 -195 309 -18 82 -21 134 -22 337 -1 132 2 266 7 297 l7 57
-122 -58 c-101 -48 -278 -122 -372 -155 -18 -6 -19 -16 -13 -204 3 -108 13
-236 21 -284 61 -336 262 -562 571 -640 78 -20 114 -23 280 -22 219 1 286 14
421 83 152 77 244 173 325 336 89 182 124 369 123 670 0 216 -11 322 -50 484
-78 328 -261 529 -526 577 -94 18 -230 13 -317 -10 -121 -33 -241 -115 -316
-217 l-45 -61 0 591 0 591 -245 0 -245 0 0 -835z"/>
<path d="M5470 4630 l0 -240 245 0 245 0 0 240 0 240 -245 0 -245 0 0 -240z"/>
<path d="M7860 4695 l0 -175 160 0 160 0 0 175 0 175 -160 0 -160 0 0 -175z"/>
<path d="M9216 3980 c-343 -54 -547 -286 -622 -705 -22 -124 -25 -468 -6 -590
36 -224 121 -431 229 -560 110 -131 260 -224 442 -273 89 -24 112 -26 311 -26
203 -1 291 7 403 35 l37 10 0 104 c0 58 -1 105 -3 105 -2 0 -45 -10 -97 -22
-78 -18 -127 -22 -275 -22 -158 -1 -189 2 -258 22 -344 99 -519 362 -543 812
-4 69 -4 156 0 193 l8 67 605 0 605 0 -5 148 c-6 171 -25 251 -90 377 -78 151
-225 267 -392 310 -74 19 -269 27 -349 15z m236 -211 c162 -34 278 -149 323
-320 8 -30 15 -66 15 -81 l0 -28 -460 0 -460 0 0 23 c1 36 46 154 80 207 41
63 116 131 177 160 95 45 224 60 325 39z"/>
<path d="M5470 2905 l0 -1035 245 0 245 0 0 1035 0 1035 -245 0 -245 0 0
-1035z"/>
<path d="M7910 2905 l0 -1035 110 0 110 0 0 1035 0 1035 -110 0 -110 0 0
-1035z"/>
<path d="M3330 1210 l0 -290 168 0 c191 0 235 12 272 72 46 75 16 194 -55 219
l-35 13 26 17 c61 40 82 125 48 190 -28 56 -77 69 -261 69 l-163 0 0 -290z
m356 207 c34 -40 33 -105 -2 -138 -24 -23 -34 -24 -160 -27 l-134 -4 0 102 0
102 136 -4 c135 -3 136 -3 160 -31z m-11 -237 c17 -9 38 -32 49 -54 17 -36 18
-43 5 -80 -23 -67 -59 -81 -209 -81 l-125 0 -3 119 -3 118 128 -4 c86 -2 138
-8 158 -18z"/>
<path d="M3870 1460 c0 -38 2 -40 30 -40 28 0 30 2 30 40 0 38 -2 40 -30 40
-28 0 -30 -2 -30 -40z"/>
<path d="M4030 1210 l0 -290 25 0 25 0 0 290 0 290 -25 0 -25 0 0 -290z"/>
<path d="M4500 1390 c0 -60 -3 -110 -6 -110 -3 0 -15 11 -25 24 -41 52 -166
61 -229 16 -90 -64 -109 -260 -33 -350 67 -80 179 -88 258 -19 l35 31 0 -31
c0 -26 4 -31 25 -31 l25 0 0 290 0 290 -25 0 -25 0 0 -110z m-71 -107 c94 -69
84 -271 -15 -318 -68 -32 -146 -8 -181 57 -25 48 -24 161 3 212 38 73 129 96
193 49z"/>
<path d="M6439 1481 c-18 -14 -23 -31 -27 -80 l-4 -61 -34 0 c-27 0 -34 -4
-34 -19 0 -15 8 -21 33 -23 l32 -3 3 -187 2 -188 25 0 25 0 2 188 3 187 38 3
c29 3 37 7 37 23 0 16 -7 19 -40 19 l-40 0 0 40 c0 47 27 80 65 80 18 0 25 5
25 20 0 17 -7 20 -44 20 -28 0 -52 -7 -67 -19z"/>
<path d="M8130 1210 l0 -290 25 0 25 0 0 138 c0 111 3 144 18 171 39 79 135
103 189 48 l28 -27 3 -165 3 -165 25 0 24 0 0 166 c0 188 -9 222 -65 248 -37
18 -111 21 -150 6 -14 -5 -37 -22 -50 -36 l-25 -27 0 112 0 111 -25 0 -25 0 0
-290z"/>
<path d="M10380 1210 l0 -290 25 0 25 0 0 290 0 290 -25 0 -25 0 0 -290z"/>
<path d="M12930 1460 c0 -38 2 -40 30 -40 28 0 30 2 30 40 0 38 -2 40 -30 40
-28 0 -30 -2 -30 -40z"/>
<path d="M14304 1466 c-30 -30 -34 -41 -34 -83 0 -40 6 -59 32 -94 l31 -43
-29 -21 c-92 -64 -125 -128 -105 -202 29 -108 156 -151 271 -93 19 10 44 27
54 39 l19 21 29 -35 c24 -28 37 -35 65 -35 l35 0 -47 55 -47 54 16 64 c21 83
20 87 -9 87 -18 0 -26 -6 -30 -25 -17 -83 -10 -83 -75 -5 -33 40 -60 74 -60
76 0 2 23 26 50 52 48 46 50 51 50 101 0 47 -4 57 -34 87 -31 31 -40 34 -91
34 -51 0 -60 -3 -91 -34z m140 -27 c39 -31 36 -78 -10 -129 -20 -22 -40 -40
-45 -40 -19 0 -69 84 -69 116 0 37 37 74 75 74 12 0 34 -9 49 -21z m-3 -324
l72 -86 -23 -24 c-111 -118 -297 -23 -225 115 16 30 72 80 92 80 7 0 44 -38
84 -85z"/>
<path d="M14950 1210 l0 -290 205 0 c198 0 205 1 205 20 0 19 -7 20 -175 20
l-175 0 0 120 0 120 160 0 c153 0 160 1 160 20 0 19 -7 20 -160 20 l-160 0 0
105 0 105 175 0 175 0 0 25 0 25 -205 0 -205 0 0 -290z"/>
<path d="M16720 1460 c0 -36 3 -40 25 -40 23 0 25 4 25 40 0 36 -2 40 -25 40
-22 0 -25 -4 -25 -40z"/>
<path d="M17300 1210 l0 -290 25 0 c25 0 25 1 25 78 l0 79 39 31 c22 18 42 32
44 32 2 0 39 -49 83 -110 73 -102 81 -110 113 -110 l33 0 -18 28 c-10 15 -49
69 -86 120 -38 51 -71 99 -74 106 -3 7 32 45 82 87 86 74 86 74 54 77 -35 4
-37 2 -180 -121 l-90 -78 0 180 0 181 -25 0 -25 0 0 -290z"/>
<path d="M17710 1210 l0 -290 25 0 25 0 0 290 0 290 -25 0 -25 0 0 -290z"/>
<path d="M12720 1405 l0 -65 -35 0 c-28 0 -35 -4 -35 -20 0 -16 7 -20 35 -20
l35 0 0 -170 c0 -168 0 -171 25 -195 18 -19 35 -25 70 -25 41 0 45 2 45 25 0
22 -4 25 -35 25 -51 0 -56 18 -53 187 l3 148 43 3 c34 3 42 7 42 23 0 16 -7
19 -45 19 l-45 0 0 65 c0 63 -1 65 -25 65 -24 0 -25 -2 -25 -65z"/>
<path d="M15900 1405 l0 -65 -35 0 c-28 0 -35 -4 -35 -19 0 -15 8 -21 33 -23
l32 -3 5 -177 c3 -120 9 -181 17 -189 7 -7 37 -14 68 -17 54 -4 55 -4 55 22 0
23 -4 26 -34 26 -54 0 -57 11 -54 181 l3 154 43 3 c34 3 42 7 42 23 0 16 -7
19 -45 19 l-45 0 0 65 c0 63 -1 65 -25 65 -24 0 -25 -2 -25 -65z"/>
<path d="M5188 1325 c-20 -13 -38 -30 -41 -37 -3 -7 -6 2 -6 20 -1 27 -5 32
-26 32 l-25 0 0 -210 0 -210 25 0 25 0 0 135 c0 148 8 182 55 225 40 37 114
36 152 -3 l28 -27 3 -165 3 -165 25 0 24 0 0 169 c0 158 -1 170 -23 202 -30
45 -60 59 -127 59 -43 0 -64 -6 -92 -25z"/>
<path d="M5610 1331 c-19 -10 -48 -37 -65 -60 -25 -36 -30 -54 -33 -116 -6
-116 25 -181 102 -216 75 -34 154 -19 203 39 22 25 23 26 23 6 0 -60 -22 -130
-49 -158 -56 -56 -179 -41 -204 24 -9 24 -17 30 -40 30 -25 0 -28 -3 -22 -22
22 -77 81 -110 187 -106 86 3 118 20 153 79 18 31 20 56 23 272 l4 237 -26 0
c-23 0 -26 -4 -26 -32 l0 -32 -27 26 c-16 14 -38 31 -50 37 -34 17 -114 13
-153 -8z m151 -44 c45 -30 71 -84 71 -151 2 -165 -152 -229 -246 -102 -32 42
-30 157 3 210 41 65 112 83 172 43z"/>
<path d="M6045 1335 c-47 -24 -65 -52 -65 -102 0 -67 32 -94 144 -121 97 -24
126 -42 126 -79 0 -37 -16 -60 -51 -72 -76 -26 -151 -3 -175 55 -11 26 -20 34
-40 34 -23 0 -25 -3 -20 -27 18 -76 81 -117 177 -117 82 1 126 23 153 78 16
32 17 44 7 76 -15 51 -48 73 -150 99 -46 11 -93 28 -103 37 -55 51 19 126 107
110 31 -6 85 -54 85 -77 0 -5 11 -9 25 -9 29 0 32 17 10 61 -24 46 -70 69
-140 69 -34 0 -73 -7 -90 -15z"/>
<path d="M6675 1327 c-159 -90 -129 -370 45 -417 88 -24 188 19 225 96 23 48
31 160 15 209 -16 47 -66 104 -107 121 -51 22 -131 17 -178 -9z m174 -44 c36
-26 71 -99 71 -146 0 -103 -55 -177 -137 -184 -91 -9 -156 65 -156 177 0 139
124 224 222 153z"/>
<path d="M7195 1335 c-22 -8 -52 -28 -67 -45 l-28 -30 0 40 c0 36 -2 40 -25
40 l-25 0 0 -210 0 -210 24 0 24 0 4 138 c2 112 6 143 21 165 23 36 74 67 110
67 23 0 27 4 27 30 0 34 -7 35 -65 15z"/>
<path d="M7361 1331 c-18 -10 -40 -29 -47 -42 -16 -29 -18 -83 -4 -110 14 -25
72 -54 135 -67 75 -16 102 -28 120 -55 57 -87 -124 -150 -197 -68 -15 17 -28
38 -28 46 0 10 -10 15 -29 15 -28 0 -29 -1 -21 -31 23 -80 72 -113 170 -113
109 0 165 43 165 126 0 43 -4 53 -32 78 -20 18 -52 32 -90 40 -130 27 -175 66
-136 119 44 58 153 48 183 -16 10 -22 22 -33 38 -33 48 0 14 83 -48 115 -40
21 -137 19 -179 -4z"/>
<path d="M7785 1327 c-143 -81 -138 -326 8 -404 42 -22 132 -22 175 0 35 19
76 76 86 120 6 25 4 27 -24 27 -20 0 -30 -5 -30 -15 0 -29 -30 -75 -60 -90
-133 -69 -259 111 -182 261 51 100 179 110 228 18 21 -38 64 -49 64 -15 0 29
-43 85 -80 103 -50 26 -135 23 -185 -5z"/>
<path d="M9125 1334 c-16 -8 -38 -25 -47 -37 l-18 -22 0 33 c0 27 -4 32 -25
32 l-25 0 0 -210 0 -210 25 0 25 0 0 128 c0 70 5 144 10 164 20 70 97 111 166
88 55 -18 64 -51 64 -230 l0 -150 25 0 25 0 0 170 c0 193 -8 222 -65 246 -45
18 -122 18 -160 -2z"/>
<path d="M9525 1327 c-99 -55 -127 -236 -52 -341 38 -54 137 -81 203 -56 14 6
40 25 57 43 l30 32 -5 -61 c-11 -114 -62 -163 -157 -150 -46 6 -101 46 -101
73 0 7 -11 13 -25 13 -19 0 -25 -5 -25 -23 0 -33 26 -64 72 -88 33 -17 55 -20
114 -17 82 4 115 21 149 79 18 31 20 55 23 272 l3 237 -25 0 c-23 0 -26 -4
-26 -32 l0 -32 -27 26 c-16 14 -38 31 -50 37 -36 19 -114 13 -158 -12z m182
-61 c74 -81 63 -226 -22 -282 -32 -21 -99 -20 -131 1 -81 53 -95 195 -27 275
34 41 58 51 108 45 30 -3 48 -13 72 -39z"/>
<path d="M10653 1331 c-17 -11 -36 -28 -42 -38 -9 -15 -10 -13 -11 15 0 27 -4
32 -25 32 l-25 0 0 -210 0 -210 25 0 25 0 0 143 c0 162 11 197 71 229 62 33
122 17 151 -42 15 -29 18 -62 18 -182 l0 -148 25 0 25 0 0 160 c0 182 -9 217
-62 250 -44 27 -131 27 -175 1z"/>
<path d="M11093 1331 c-17 -11 -36 -28 -42 -38 -9 -15 -10 -13 -11 15 0 27 -4
32 -25 32 l-25 0 0 -210 0 -210 25 0 25 0 0 141 c0 126 2 145 22 180 26 47 77
73 125 66 78 -13 93 -52 93 -242 l0 -145 25 0 25 0 0 160 c0 171 -7 207 -49
245 -33 29 -145 33 -188 6z"/>
<path d="M11509 1327 c-64 -34 -99 -105 -99 -202 0 -88 27 -146 88 -189 36
-25 51 -30 104 -30 74 1 114 18 156 70 69 83 65 236 -7 318 -51 58 -164 74
-242 33z m176 -43 c37 -24 68 -98 68 -159 0 -132 -109 -212 -213 -157 -85 46
-106 201 -38 288 42 53 125 66 183 28z"/>
<path d="M12329 1330 c-35 -18 -69 -70 -69 -104 0 -27 49 -20 56 8 22 91 193
100 216 11 12 -45 -12 -72 -69 -80 -107 -14 -154 -28 -183 -51 -31 -27 -47
-77 -36 -118 24 -98 173 -125 257 -48 33 29 39 31 39 15 0 -28 20 -43 57 -43
26 0 33 4 33 19 0 10 -9 21 -20 24 -19 5 -20 14 -20 141 0 156 -10 194 -62
226 -44 27 -148 27 -199 0z m208 -242 c-4 -29 -15 -64 -25 -78 -40 -54 -133
-77 -180 -44 -48 33 -48 99 0 125 18 10 151 41 202 48 5 0 6 -23 3 -51z"/>
<path d="M13167 1329 c-113 -60 -138 -263 -43 -367 35 -39 77 -55 141 -55 109
0 173 56 194 170 20 105 -23 214 -99 253 -52 27 -141 26 -193 -1z m172 -47
c48 -35 65 -69 69 -136 8 -116 -51 -196 -143 -196 -85 0 -144 73 -145 177 0
60 12 98 43 132 48 52 124 62 176 23z"/>
<path d="M13665 1338 c-11 -6 -32 -22 -47 -36 l-28 -26 0 32 c0 27 -4 32 -25
32 l-25 0 0 -210 0 -210 25 0 25 0 0 128 c1 176 22 230 100 253 28 9 47 8 74
-1 58 -19 66 -45 66 -225 l0 -155 31 0 31 0 -4 168 c-4 185 -14 219 -68 247
-34 17 -126 19 -155 3z"/>
<path d="M15528 1325 c-20 -13 -38 -30 -41 -37 -3 -7 -6 2 -6 20 -1 27 -5 32
-26 32 l-25 0 0 -210 0 -210 25 0 25 0 0 135 c0 148 8 182 55 225 40 37 114
36 152 -3 l28 -27 3 -165 4 -165 24 0 24 0 0 169 c0 158 -1 170 -23 202 -30
45 -60 59 -127 59 -43 0 -64 -6 -92 -25z"/>
<path d="M16965 1335 c-79 -40 -123 -135 -112 -242 12 -113 89 -187 197 -188
88 0 144 44 170 134 8 30 7 31 -21 31 -20 0 -29 -5 -29 -16 0 -28 -32 -72 -65
-90 -76 -41 -163 7 -192 105 -47 162 104 308 216 207 13 -11 27 -31 32 -43 11
-29 59 -33 59 -4 0 29 -43 85 -80 103 -43 22 -134 23 -175 3z"/>
<path d="M18425 1338 c-11 -6 -32 -22 -47 -36 l-28 -26 0 32 c0 27 -4 32 -25
32 l-25 0 0 -210 0 -210 25 0 25 0 0 129 c0 70 5 143 11 162 25 74 94 112 163
89 58 -19 66 -45 66 -225 l0 -155 25 0 25 0 0 170 c0 193 -8 222 -65 246 -41
17 -122 18 -150 2z"/>
<path d="M18818 1330 c-23 -12 -48 -39 -65 -68 -24 -41 -28 -57 -28 -127 0
-67 4 -87 25 -125 57 -103 210 -121 280 -34 l23 29 -6 -61 c-6 -80 -29 -122
-75 -141 -68 -28 -159 2 -178 59 -3 11 -15 18 -30 18 -18 0 -24 -5 -24 -23 0
-61 76 -107 175 -107 70 0 107 13 141 52 39 42 44 81 44 314 l0 224 -25 0
c-21 0 -25 -5 -25 -32 l0 -32 -27 26 c-16 14 -38 31 -50 37 -34 17 -114 12
-155 -9z m146 -35 c49 -23 81 -86 81 -160 0 -100 -55 -168 -136 -167 -81 1
-134 68 -133 167 2 130 91 206 188 160z"/>
<path d="M3870 1130 l0 -210 30 0 30 0 0 210 0 210 -30 0 -30 0 0 -210z"/>
<path d="M4650 1168 c0 -154 2 -177 20 -205 22 -36 40 -48 92 -57 51 -9 115
10 150 44 l28 28 0 -29 c0 -24 4 -29 25 -29 l25 0 0 210 0 210 -25 0 -25 0 0
-121 c0 -66 -5 -140 -11 -165 -24 -94 -130 -137 -196 -80 l-28 24 -3 171 -3
171 -25 0 -24 0 0 -172z"/>
<path d="M8570 1174 c0 -133 3 -173 16 -200 39 -83 168 -94 249 -23 l35 31 0
-31 c0 -24 4 -31 20 -31 19 0 20 7 20 210 l0 210 -25 0 -25 0 0 -137 c0 -114
-4 -145 -19 -180 -29 -63 -97 -89 -166 -63 -44 17 -55 62 -55 230 l0 150 -25
0 -25 0 0 -166z"/>
<path d="M11840 1333 c1 -5 36 -98 78 -208 77 -198 78 -200 109 -203 29 -3 32
0 51 50 11 29 45 120 76 202 31 82 56 153 56 158 0 5 -12 8 -26 6 -25 -3 -31
-15 -88 -175 -33 -94 -63 -174 -66 -177 -3 -3 -34 76 -69 174 -63 176 -64 180
-92 180 -16 0 -29 -3 -29 -7z"/>
<path d="M12930 1130 l0 -210 30 0 30 0 0 210 0 210 -30 0 -30 0 0 -210z"/>
<path d="M16070 1336 c0 -2 29 -95 65 -206 36 -111 65 -204 65 -206 0 -2 15
-4 33 -4 l32 0 49 170 c27 94 51 168 53 166 3 -2 26 -78 53 -168 l47 -163 33
0 32 0 59 180 c32 99 61 193 65 208 5 26 4 28 -22 25 -27 -3 -30 -9 -78 -170
-27 -93 -52 -168 -56 -168 -3 0 -28 77 -54 170 l-49 170 -31 0 -31 0 -49 -175
c-27 -96 -53 -170 -56 -164 -4 6 -29 85 -56 175 -47 161 -49 164 -76 164 -15
0 -28 -2 -28 -4z"/>
<path d="M16720 1130 l0 -210 25 0 25 0 0 210 0 210 -25 0 -25 0 0 -210z"/>
<path d="M17860 1174 c0 -133 3 -173 16 -200 39 -83 168 -94 249 -23 l35 31 0
-31 c0 -24 4 -31 20 -31 19 0 20 7 20 210 l0 210 -25 0 -25 0 0 -137 c0 -114
-4 -145 -19 -180 -29 -63 -97 -89 -166 -63 -44 17 -55 62 -55 230 l0 150 -25
0 -25 0 0 -166z"/>
<path d="M9940 960 c0 -29 4 -40 15 -40 19 0 19 -30 0 -56 -17 -23 -20 -57 -3
-52 29 10 52 60 56 123 l4 65 -36 0 c-35 0 -36 -1 -36 -40z"/>
<path d="M10938 600 c-97 -29 -148 -146 -98 -227 25 -41 53 -55 170 -83 107
-26 165 -51 180 -79 29 -55 -8 -129 -76 -151 -44 -15 -138 -9 -179 11 -37 18
-75 73 -75 110 0 26 -4 29 -30 29 -24 0 -30 -4 -30 -22 0 -123 105 -196 265
-186 122 8 195 69 195 164 0 91 -50 131 -222 175 -127 32 -158 53 -158 109 0
68 55 110 145 110 79 0 155 -56 155 -115 0 -10 10 -15 30 -15 24 0 30 4 30 23
0 12 -10 40 -23 62 -32 57 -109 95 -191 94 -34 0 -73 -4 -88 -9z"/>
<path d="M3650 484 l0 -116 -39 35 c-61 55 -145 61 -218 16 -91 -56 -113 -248
-40 -353 57 -81 201 -86 272 -10 l25 27 0 -37 c0 -32 3 -36 25 -36 l25 0 0
295 0 295 -25 0 -25 0 0 -116z m-80 -99 c44 -23 73 -86 73 -162 0 -85 -25
-131 -87 -162 -41 -21 -52 -22 -85 -13 -44 14 -84 54 -100 101 -27 80 -2 185
54 229 33 26 102 29 145 7z"/>
<path d="M7300 560 c0 -36 3 -40 25 -40 23 0 25 4 25 40 0 36 -2 40 -25 40
-22 0 -25 -4 -25 -40z"/>
<path d="M7870 305 l0 -295 24 0 24 0 4 147 c3 117 7 155 21 180 36 68 136 86
188 34 l29 -29 0 -166 0 -166 31 0 31 0 -4 174 c-3 157 -5 178 -24 203 -53 72
-161 83 -234 24 l-40 -32 0 111 0 110 -25 0 -25 0 0 -295z"/>
<path d="M8310 560 c0 -38 2 -40 30 -40 28 0 30 2 30 40 0 38 -2 40 -30 40
-28 0 -30 -2 -30 -40z"/>
<path d="M9290 305 l0 -295 25 0 25 0 0 145 c0 158 7 185 56 224 32 25 109 28
141 6 33 -23 43 -76 43 -232 l0 -143 25 0 25 0 0 154 c0 184 -4 209 -42 246
-52 53 -169 50 -224 -5 l-24 -24 0 109 0 110 -25 0 -25 0 0 -295z"/>
<path d="M11760 305 l0 -295 29 0 30 0 3 161 3 161 37 34 c32 29 45 34 88 34
91 0 110 -43 110 -252 l0 -138 25 0 25 0 0 160 c0 221 -19 262 -125 277 -54 7
-127 -17 -150 -50 -14 -20 -15 -12 -15 91 l0 112 -30 0 -30 0 0 -295z"/>
<path d="M12650 305 l0 -295 25 0 25 0 0 295 0 295 -25 0 -25 0 0 -295z"/>
<path d="M4920 550 c0 -38 2 -40 30 -40 28 0 30 2 30 40 0 38 -2 40 -30 40
-28 0 -30 -2 -30 -40z"/>
<path d="M5070 550 c0 -38 2 -40 30 -40 28 0 30 2 30 40 0 38 -2 40 -30 40
-28 0 -30 -2 -30 -40z"/>
<path d="M5730 500 l0 -60 -40 0 c-36 0 -40 -2 -40 -25 0 -22 4 -25 40 -25
l40 0 0 -173 c0 -201 2 -207 83 -207 40 0 47 3 47 20 0 14 -7 20 -21 20 -11 0
-29 5 -40 10 -18 10 -19 23 -19 170 l0 160 40 0 c36 0 40 3 40 25 0 23 -4 25
-40 25 l-40 0 0 60 c0 57 -1 60 -25 60 -24 0 -25 -3 -25 -60z"/>
<path d="M3883 431 c-78 -36 -121 -143 -103 -258 10 -60 29 -99 62 -130 78
-73 234 -50 285 42 29 51 29 65 -1 65 -17 0 -30 -10 -44 -34 -28 -47 -65 -69
-116 -69 -55 0 -99 30 -120 83 -33 82 -37 80 144 80 l160 0 0 43 c0 69 -45
147 -100 175 -54 27 -111 28 -167 3z m146 -46 c29 -14 71 -85 71 -118 0 -15
-15 -17 -135 -17 -149 0 -148 -1 -121 63 21 51 70 87 117 87 22 0 53 -7 68
-15z"/>
<path d="M4295 436 c-71 -27 -102 -94 -71 -154 20 -39 36 -48 133 -72 42 -10
89 -28 103 -38 53 -40 30 -100 -47 -121 -67 -19 -139 16 -158 77 -4 15 -14 22
-32 22 -23 0 -25 -3 -19 -32 14 -73 58 -107 146 -115 113 -11 190 39 190 122
0 73 -31 98 -160 130 -85 21 -110 38 -110 73 0 45 21 64 76 69 66 6 102 -9
120 -52 11 -27 20 -35 40 -35 23 0 25 3 19 28 -9 37 -30 68 -59 88 -35 22
-123 27 -171 10z"/>
<path d="M4950 434 c-82 -35 -123 -105 -124 -209 -1 -90 29 -154 87 -193 34
-23 51 -27 112 -27 87 0 131 25 170 96 47 88 29 236 -36 296 -55 51 -142 66
-209 37z m148 -54 c94 -57 94 -245 0 -314 -37 -26 -110 -26 -145 0 -51 39 -67
70 -71 143 -4 72 14 127 54 162 40 35 113 39 162 9z"/>
<path d="M5377 436 c-48 -18 -62 -30 -77 -66 -15 -37 -6 -92 20 -115 11 -10
63 -30 116 -46 53 -15 104 -35 115 -45 41 -37 13 -94 -58 -113 -68 -19 -145
17 -159 76 -4 16 -14 23 -30 23 -52 0 -10 -99 56 -132 72 -36 205 -13 244 43
9 13 16 43 16 67 0 55 -37 95 -101 112 -157 40 -171 48 -171 97 0 38 35 63 89
63 60 0 102 -23 110 -60 5 -25 10 -30 35 -30 28 0 30 2 23 28 -9 37 -30 68
-59 88 -34 22 -123 27 -169 10z"/>
<path d="M6044 439 c-41 -12 -100 -77 -113 -126 -37 -131 9 -262 104 -298 109
-42 227 9 251 107 5 25 3 28 -19 28 -18 0 -28 -8 -37 -30 -47 -113 -207 -94
-249 29 -21 63 -27 61 155 61 l166 0 -7 48 c-14 95 -45 143 -110 173 -43 20
-91 23 -141 8z m125 -52 c34 -17 61 -56 68 -100 l6 -37 -131 0 c-72 0 -133 4
-137 9 -10 17 26 90 57 116 33 28 96 34 137 12z"/>
<path d="M6979 440 c-82 -25 -129 -103 -129 -217 0 -110 28 -166 102 -204 83
-43 203 -10 245 66 29 51 29 65 -1 65 -18 0 -29 -10 -43 -37 -15 -28 -32 -43
-66 -57 -44 -18 -48 -18 -91 -2 -50 19 -83 62 -93 121 l-6 35 163 0 162 0 -4
59 c-9 129 -119 208 -239 171z m127 -59 c32 -20 64 -74 64 -110 0 -20 -5 -21
-135 -21 -101 0 -135 3 -135 13 1 26 39 95 65 115 35 28 98 29 141 3z"/>
<path d="M7550 434 c-83 -36 -122 -104 -122 -211 0 -62 4 -80 29 -125 83 -146
299 -124 338 34 6 25 4 28 -18 28 -19 0 -30 -9 -44 -37 -25 -51 -65 -78 -114
-77 -52 2 -88 28 -116 84 -61 119 6 270 119 270 54 0 86 -18 105 -61 15 -31
23 -39 46 -39 25 0 27 3 22 23 -31 103 -144 155 -245 111z"/>
<path d="M8544 439 c-52 -15 -84 -55 -84 -105 0 -23 3 -50 6 -59 9 -23 71 -52
152 -70 79 -18 112 -43 112 -84 0 -34 -25 -59 -74 -72 -66 -18 -148 21 -158
76 -2 13 -12 21 -31 23 -33 4 -34 -7 -7 -66 26 -57 87 -86 169 -80 97 7 152
51 154 121 2 74 -34 105 -154 131 -114 25 -153 78 -93 125 57 45 162 18 178
-44 5 -18 13 -25 31 -25 30 0 32 17 9 66 -28 60 -123 88 -210 63z"/>
<path d="M8965 436 c-99 -37 -150 -170 -114 -299 23 -85 114 -144 208 -135 59
6 105 36 131 88 27 52 26 70 -4 70 -19 0 -27 -8 -36 -35 -23 -70 -99 -98 -169
-63 -59 30 -86 81 -86 163 0 110 54 175 145 175 54 0 87 -20 106 -66 11 -26
20 -34 39 -34 18 0 25 5 25 19 0 23 -38 79 -71 103 -34 26 -123 32 -174 14z"/>
<path d="M9812 429 c-68 -34 -96 -85 -101 -182 -4 -92 9 -143 46 -188 76 -90
244 -75 300 26 29 51 29 65 -1 65 -17 0 -30 -10 -44 -34 -28 -47 -65 -69 -116
-69 -55 0 -99 30 -120 83 -33 82 -37 80 144 80 l160 0 0 43 c0 28 -10 63 -27
98 -47 92 -147 124 -241 78z m149 -45 c18 -9 38 -32 50 -57 35 -78 37 -77
-116 -77 -149 0 -148 -1 -121 63 7 18 28 45 45 60 38 32 94 36 142 11z"/>
<path d="M10275 435 c-16 -9 -37 -24 -47 -35 -22 -27 -28 -25 -28 10 0 25 -4
30 -25 30 l-25 0 0 -215 0 -215 24 0 24 0 3 148 c4 131 7 151 26 183 42 67
132 81 184 30 l29 -29 0 -166 0 -166 31 0 31 0 -4 174 c-3 158 -5 177 -24 203
-42 58 -135 80 -199 48z"/>
<path d="M11445 436 c-48 -18 -101 -76 -115 -125 -16 -58 -12 -151 9 -196 64
-138 257 -155 328 -30 30 52 30 75 0 75 -17 0 -28 -10 -40 -39 -22 -49 -60
-74 -113 -74 -85 0 -138 66 -139 173 0 115 52 180 145 180 54 0 87 -20 106
-66 11 -26 20 -34 40 -34 23 0 25 3 20 28 -8 33 -34 70 -67 94 -34 26 -123 32
-174 14z"/>
<path d="M13518 440 c-85 -26 -128 -99 -128 -217 0 -85 20 -142 61 -180 80
-73 235 -51 286 42 29 52 29 65 -2 65 -17 0 -28 -7 -34 -22 -13 -33 -53 -67
-91 -78 -64 -18 -128 15 -154 80 -33 82 -37 80 144 80 l160 0 0 39 c0 139
-114 230 -242 191z m123 -56 c18 -9 38 -32 50 -57 35 -78 37 -77 -116 -77
-149 0 -148 -1 -121 63 7 18 28 45 45 60 38 32 94 36 142 11z"/>
<path d="M13907 436 c-50 -18 -64 -31 -77 -72 -15 -44 1 -96 36 -119 13 -8 59
-24 101 -35 86 -21 126 -46 131 -79 12 -81 -142 -117 -205 -49 -11 13 -24 33
-28 46 -8 26 -55 32 -55 7 0 -32 29 -83 59 -105 44 -31 136 -38 196 -16 59 23
85 57 85 112 0 68 -34 99 -140 125 -104 25 -130 40 -130 77 0 48 33 72 100 72
54 0 79 -14 96 -56 11 -26 20 -34 39 -34 32 0 33 25 2 71 -42 63 -125 85 -210
55z"/>
<path d="M14339 440 c-48 -14 -78 -41 -104 -93 -20 -41 -25 -65 -25 -126 1
-139 59 -212 174 -219 79 -4 141 25 173 83 29 51 29 65 -1 65 -18 0 -29 -10
-43 -37 -15 -28 -32 -43 -66 -57 -44 -18 -48 -18 -91 -2 -50 19 -83 62 -93
121 l-6 35 163 0 162 0 -4 59 c-9 129 -119 208 -239 171z m121 -55 c31 -16 70
-80 70 -115 0 -19 -6 -20 -135 -20 -149 0 -147 -2 -116 66 35 78 110 106 181
69z"/>
<path d="M14772 430 c-23 -10 -45 -26 -48 -35 -10 -25 -24 -17 -24 15 0 25 -4
30 -25 30 l-25 0 0 -215 0 -215 25 0 25 0 0 115 c0 153 12 206 56 245 28 24
43 30 82 30 92 -1 105 -30 110 -232 l4 -158 25 0 25 0 -4 173 c-4 199 -11 224
-78 251 -53 21 -95 20 -148 -4z"/>
<path d="M15174 439 c-52 -15 -84 -55 -84 -105 0 -23 3 -50 6 -59 9 -23 71
-52 152 -70 79 -18 112 -43 112 -84 0 -34 -25 -59 -74 -72 -66 -18 -148 21
-158 76 -2 13 -12 21 -31 23 -33 4 -34 -7 -7 -66 26 -57 87 -86 169 -80 97 7
152 51 154 121 2 74 -34 105 -154 131 -114 25 -153 78 -93 125 57 45 162 18
178 -44 5 -18 13 -25 31 -25 30 0 32 17 9 66 -28 60 -123 88 -210 63z"/>
<path d="M6370 225 l0 -215 25 0 25 0 0 130 c0 144 10 183 55 218 16 12 45 25
67 28 32 6 38 10 38 30 0 49 -95 24 -144 -38 l-26 -33 0 48 c0 40 -3 47 -20
47 -19 0 -20 -7 -20 -215z"/>
<path d="M6620 225 l0 -215 30 0 30 0 0 135 c0 147 7 176 56 214 14 11 41 23
60 27 27 5 34 11 34 30 0 48 -86 23 -134 -38 l-26 -33 0 48 c0 43 -2 47 -25
47 l-25 0 0 -215z"/>
<path d="M7300 225 l0 -215 25 0 25 0 0 215 0 215 -25 0 -25 0 0 -215z"/>
<path d="M8310 225 l0 -215 30 0 30 0 0 215 0 215 -30 0 -30 0 0 -215z"/>
<path d="M12210 264 c0 -148 3 -181 17 -205 46 -77 192 -79 251 -4 l22 28 0
-37 c0 -32 3 -36 25 -36 l25 0 0 215 0 215 -25 0 -25 0 0 -122 c0 -130 -10
-186 -42 -230 -40 -58 -153 -56 -183 2 -12 22 -15 66 -15 190 l0 160 -25 0
-25 0 0 -176z"/>
<path d="M12760 430 c0 -7 30 -104 66 -216 65 -203 65 -204 94 -204 27 0 30 4
49 68 68 232 82 276 84 279 2 1 25 -75 53 -170 49 -171 50 -172 80 -175 l30
-3 67 210 c37 115 67 212 67 216 0 3 -12 5 -27 3 -26 -3 -30 -10 -65 -123 -20
-66 -44 -147 -53 -180 l-18 -60 -51 180 -52 180 -30 3 -30 3 -50 -176 c-27
-96 -51 -175 -54 -175 -3 0 -28 78 -56 173 -49 163 -52 172 -78 175 -15 2 -26
-2 -26 -8z"/>
</g>
</svg>
